<?xml version="1.0" encoding="utf-8"?>
<!-- Generator: Adobe Illustrator 27.7.0, SVG Export Plug-In . SVG Version: 6.00 Build 0)  -->
<svg version="1.1" id="Layer_1" xmlns="http://www.w3.org/2000/svg" xmlns:xlink="http://www.w3.org/1999/xlink" x="0px" y="0px"
	 viewBox="0 0 100 100" style="enable-background:new 0 0 100 100;" xml:space="preserve">
<style type="text/css">
	.st0{fill:#03A678;}
	.st1{fill:#939393;}
	.st2{fill:#BABABA;}
	.st3{fill:#FFFFFF;}
	.st4{fill:#B2B2B2;}
	.st5{fill:#E2E2E2;}
	.st6{fill:#C2CBCE;}
	.st7{fill:#EAEAEA;}
	.st8{fill:#D8D8D8;}
</style>
<circle class="st0" cx="49.5" cy="50" r="45"/>
<g>
	<path class="st1" d="M29.2,56.1h6.4l0,0v1.2c0,2.7-2.2,4.8-4.8,4.8h-1.6l0,0V56.1L29.2,56.1z"/>
	<path class="st2" d="M26.4,74.8c-2.7,0.2-5-2-5.2-4.9l-1-14h9.8l1,13.1C31,71.9,29,74.5,26.4,74.8z"/>
	<path class="st3" d="M63.6,41.5c-3.2,0-5.7,2.6-5.7,5.7l0,0h11.4C69.4,44.1,66.8,41.5,63.6,41.5L63.6,41.5z"/>
	<path class="st4" d="M63.6,53c3.2,0,5.7-2.6,5.7-5.7l0,0H57.9C57.9,50.4,60.5,53,63.6,53L63.6,53z"/>
	<path class="st3" d="M37.4,37.1v20.2c-5.8-1-11.2-1.3-16.7-1.3c-3.4,0-6.1-2.6-6.1-5.9v-5.8c0-3.2,2.8-5.9,6.1-5.9
		C26.3,38.5,31.6,38.1,37.4,37.1z"/>
	<path class="st5" d="M37.4,47.2v10.1c-5.8-1-11.2-1.3-16.7-1.3c-3.4,0-6.1-2.6-6.1-5.9v-2.9H37.4z"/>
	<path class="st6" d="M37.4,57.3c14.7,3,23.9,10.1,23.9,10.1V47.2H37.4V57.3z"/>
	<path class="st7" d="M19.8,47v0.5c0,0.3-0.3,0.6-0.6,0.6h-1.9c-0.3,0-0.6-0.3-0.6-0.6c0,0,0,0,0,0V47c0-0.3,0.3-0.6,0.6-0.6h1.9
		C19.6,46.3,19.8,46.6,19.8,47z"/>
	<path class="st7" d="M17.3,49.3h1.9c0.3,0,0.6,0.3,0.6,0.6v0.5c0,0.3-0.3,0.6-0.6,0.6h-1.9c-0.3,0-0.6-0.3-0.6-0.6V50
		C16.7,49.6,17,49.3,17.3,49.3z"/>
	<path class="st7" d="M17.3,52.3h1.9c0.3,0,0.6,0.3,0.6,0.6v0.5c0,0.3-0.3,0.6-0.6,0.6h-1.9c-0.3,0-0.6-0.3-0.6-0.6V53
		C16.7,52.6,17,52.3,17.3,52.3z"/>
	<path class="st7" d="M17.3,40.4h1.9c0.3,0,0.6,0.3,0.6,0.6v0.5c0,0.3-0.3,0.6-0.6,0.6h-1.9c-0.3,0-0.6-0.3-0.6-0.6V41
		C16.7,40.6,17,40.4,17.3,40.4z"/>
	<path class="st7" d="M17.3,43.4h1.9c0.3,0,0.6,0.3,0.6,0.6v0.5c0,0.3-0.3,0.6-0.6,0.6h-1.9c-0.3,0-0.6-0.3-0.6-0.6V44
		C16.7,43.6,17,43.4,17.3,43.4z"/>
	<path class="st3" d="M37.4,37.1v10.1h23.9V27C61.3,27,52.1,34.1,37.4,37.1z"/>
	<path class="st3" d="M65,27c0-1-0.8-1.8-1.8-1.8l0,0c-1,0-1.8,0.8-1.8,1.8v20.2H65L65,27z"/>
	<path class="st8" d="M63.2,69.3L63.2,69.3c1,0,1.8-0.8,1.8-1.8V47.2h-3.6v20.2C61.3,68.4,62.2,69.3,63.2,69.3z"/>
	<path class="st5" d="M13.4,44.4h1.1l0,0v5.9l0,0h-1.1c-0.5,0-0.9-0.4-0.9-0.9v-4C12.5,44.8,12.9,44.4,13.4,44.4z"/>
	<path class="st3" d="M86.4,48.4H74.4c-0.6,0-1.1-0.5-1.1-1.1c0-0.6,0.5-1.1,1.1-1.1c0,0,0,0,0,0h11.9c0.6,0,1.1,0.5,1.1,1.1
		C87.5,47.9,87,48.4,86.4,48.4C86.4,48.4,86.4,48.4,86.4,48.4z"/>
	<path class="st3" d="M71.6,39.3c-0.4-0.4-0.4-1.2,0-1.6l9.1-9.1c0.5-0.4,1.2-0.4,1.6,0c0.4,0.4,0.4,1.1,0,1.6l-9.1,9.1
		C72.8,39.7,72,39.7,71.6,39.3z"/>
	<path class="st3" d="M79.8,65l-8.2-8.2c-0.4-0.5-0.4-1.2,0-1.6c0.4-0.4,1.1-0.4,1.6,0l8.2,8.2c0.4,0.4,0.4,1.2,0,1.6
		C81,65.5,80.3,65.5,79.8,65L79.8,65z"/>
</g>
</svg>
