<?xml version="1.0" encoding="utf-8"?>
<!-- Generator: Adobe Illustrator 28.2.0, SVG Export Plug-In . SVG Version: 6.00 Build 0)  -->
<svg version="1.1" id="Layer_1" xmlns="http://www.w3.org/2000/svg" xmlns:xlink="http://www.w3.org/1999/xlink" x="0px" y="0px"
	 viewBox="0 0 35 38.3" style="enable-background:new 0 0 35 38.3;" xml:space="preserve">
<style type="text/css">
	.st0{fill:#FFFFFF;}
</style>
<path class="st0" d="M0.3,16.8c0.1-0.7,0.3-1.4,0.4-2c0.9-3.2,2.4-6.2,4.9-8.5c2.3-2.2,5.1-3.4,8.3-3.8c3.3-0.4,6.4,0.1,9.4,1.3
	c0.3,0.1,0.5,0.1,0.6-0.3c0.3-0.8,0.6-1.6,1-2.4c0.3-0.6,0.8-1,1.5-1S27.6,0.4,28,1c0.1,0.2,0.3,0.4,0.4,0.7
	c1.8,3.1,3.6,6.2,5.4,9.2c0.6,1.1,0.1,2.3-1.1,2.6c-3.7,1-7.3,1.9-11,2.9c-0.7,0.2-1.4,0.1-1.9-0.5s-0.5-1.2-0.2-1.9
	c0.3-0.8,0.7-1.6,1-2.4c0.1-0.2,0.1-0.3-0.1-0.4C16.6,9.3,12.6,8.5,8.3,10c-3.4,1.2-5.8,3.4-7.6,6.4C0.6,16.5,0.5,16.7,0.3,16.8z"/>
<path class="st0" d="M34.7,21.7c0.1,0.3,0.1,0.4,0,0.6c-0.7,3.1-1.9,6-4,8.5c-2.3,2.8-5.3,4.4-8.8,5c-3.5,0.6-6.8,0.1-10-1.2
	c-0.4-0.2-0.5-0.1-0.7,0.3c-0.3,0.8-0.6,1.5-0.9,2.3c-0.3,0.7-0.8,1.1-1.5,1.1c-0.7,0.1-1.2-0.2-1.6-0.9c-1.8-3.1-3.6-6.2-5.4-9.3
	c-0.1-0.2-0.2-0.4-0.3-0.6c-0.7-1.1-0.2-2.4,1.1-2.7c2.5-0.7,5-1.3,7.5-1.9c1.2-0.3,2.3-0.6,3.5-0.9c0.7-0.2,1.4-0.1,1.9,0.5
	s0.5,1.3,0.2,2c-0.3,0.8-0.6,1.6-1,2.4c-0.1,0.2-0.1,0.3,0.1,0.4c3.5,1.7,7.1,2.5,11,1.6c3.3-0.8,5.9-2.7,7.9-5.4
	C33.9,22.9,34.3,22.3,34.7,21.7z"/>
</svg>
