<?xml version="1.0" encoding="utf-8"?>
<!-- Generator: Adobe Illustrator 28.2.0, SVG Export Plug-In . SVG Version: 6.00 Build 0)  -->
<svg version="1.1" id="Layer_1" xmlns="http://www.w3.org/2000/svg" xmlns:xlink="http://www.w3.org/1999/xlink" x="0px" y="0px"
	 viewBox="0 0 200 200" style="enable-background:new 0 0 200 200;" xml:space="preserve">
<style type="text/css">
	.st0{fill:none;stroke:#F36E46;stroke-width:3;stroke-miterlimit:10;}
	.st1{fill:#F36E46;}
	.st2{fill:#FFFFFF;}
</style>
<circle class="st0" cx="100.2" cy="100.7" r="98.5"/>
<circle id="Ellipse_20" class="st1" cx="100.8" cy="101.2" r="92.5"/>
<g>
	<g>
		<g>
			<path class="st2" d="M91.9,121.3c-0.6,2.5-1.2,4.9-1.8,7.4c-1.2,5,0.9,10.1,5.1,12.4c1.7,0.9,2.8,0.2,2.8-1.7
				c0-1.1-0.3-2.5,0.2-3.2s1.9-0.9,3-1.2c2.6-0.7,4.5-2.2,5.5-4.8c0.4-1.2,1.3-1.9,2.4-2.4c2.1-1,3.3-2.6,3.7-4.9
				c0.1-0.8,0-1.7,0.1-2.6c0-0.4,0.3-0.9,0.6-1.1c0.8-0.7,1.7-1.2,2.5-1.9c1.7-1.3,2.5-3.1,2.2-5.2c-0.3-2.2-1.5-3.7-3.6-4.6
				c-0.6-0.2-1.2-0.5-1.8-0.6c-1.1-0.2-1.6-0.9-1.8-1.9c-0.5-2.3-2-3.9-4-5.1c-2-1.1-4.2-1.4-6.5-1.4c-0.5,0-1.1-0.2-1.5-0.6
				c-3.1-2.6-7.5-2.5-10.4,0.3c-0.3,0.3-0.6,0.5-0.9,0.8c-0.6-0.8-1.1-1.4-1.6-2.1c-0.9-1.2-1.7-2.4-2.1-3.9c-0.5-2-2-3.2-4-3.8
				c-0.4-0.1-0.9-0.2-1.4-0.4c0.1-0.3,0.2-0.6,0.2-0.9c0.1-0.9,0.5-1.3,1.5-1.1c0.6,0.1,1.2,0.1,1.8,0c0.7-0.1,1.2,0.2,1.7,0.7
				c1.8,2.1,4.1,3.5,6.8,4.1c0.8,0.2,1.6,0.2,2.2-0.6c0.5-0.8,0.3-1.5-0.2-2.2c-1.1-1.6-2.2-3.1-3.1-4.8c-0.3-0.4-0.5-1.2-0.3-1.5
				c0.2-0.4,0.9-0.6,1.4-0.7c1.1-0.1,2.3,0,3.4,0c2.3-0.1,3.9-1.7,4.1-4c0-0.3,0-0.6,0.1-0.9c0.2,0,0.4-0.1,0.6-0.1
				c3.4,0.1,6.7-0.6,9.8-2.1c0.3-0.1,0.8,0,1.1,0.2c3.6,2.2,6.7,4.9,9.3,8.2c0.2,0.3,0.4,0.9,0.3,1.2c-0.4,2.2-0.8,4.5-1.3,6.7
				c-0.6,2.9-0.2,5.6,1.2,8.2c0.3,0.5,0.5,1.2,0.5,1.8c0.2,3.1,2.9,5,5.9,3.8c0.5-0.2,0.9-0.4,1.6-0.7c0,1,0.1,1.8,0,2.6
				c-0.2,2.1-0.3,4.2-0.7,6.3c-2.9,16.4-17.6,29.1-34.2,29.8c-3.2,0.1-6.4-0.1-9.5-0.8c-0.7-0.2-1.5-0.1-1.9,0.6
				c-0.2,0.5-0.4,1.3-0.1,1.6c0.3,0.5,1,0.9,1.6,1c13.4,2.5,25.4-0.5,35.3-9.8c11.3-10.6,15-23.8,11.7-39c-0.2-0.7-0.1-1.1,0.5-1.6
				c5.4-4.6,7.9-10.4,7.2-17.5c-0.7-8-6.4-14.8-14.1-17.1c-7.8-2.3-16.1,0.2-21.2,6.5c-0.5,0.6-0.9,0.7-1.7,0.6
				c-6-1.5-12-1.6-18-0.3C59.6,72,46,94.2,51.9,116.5c0.6,2.3,1.6,4.5,2.5,6.7c0.4,1.1,1.4,1.4,2.3,1c0.9-0.4,1.1-1.3,0.7-2.4
				c-0.1-0.2-0.1-0.3-0.2-0.5c-7.3-15.8-2.4-34.6,11.7-44.9c0.4-0.3,0.9-0.6,1.5-1c0.2,2.2,0.4,4.1-1.8,5.2
				c-0.2,0.1-0.4,0.3-0.6,0.4c-3.7,2.8-3.2,7.9,0.9,9.9c0.3,0.2,0.6,0.5,0.7,0.8c1.1,2.9,3.2,4.5,6.3,4.7c0.7,0,1.4,0.1,2.1,0.2
				c3.2,0.7,5.5,3,8.2,4.6c-0.1,0.2-0.1,0.3-0.1,0.5c-1.3,3.8-1.3,7.6,0.6,11.2c0.4,0.7,0.9,1.4,1,2.2
				C87.7,118.4,89.2,120.3,91.9,121.3z M134.1,47.9c-0.2,0.2-0.8,0.4-1,0.8c-1.7,2.9-3.4,5.8-5,8.7c-0.5,0.9-0.2,1.8,0.6,2.2
				s1.7,0.2,2.2-0.7c0.3-0.5,0.6-1,0.9-1.5c1.3-2.3,2.7-4.6,4-6.9C136.5,49.2,135.8,47.9,134.1,47.9z M106.2,58.3
				c-0.1-0.1-0.1-0.1-0.2-0.2c-0.1-0.3-0.1-0.5-0.2-0.7c-1.4-2.3-2.8-4.6-4.3-6.9c-0.5-0.7-1.4-0.9-2.1-0.5s-1.1,1.3-0.7,2.1
				c1.4,2.4,2.9,4.7,4.4,7c0.3,0.4,1.2,0.6,1.7,0.5C105.4,59.5,105.8,58.8,106.2,58.3z M118.6,51.4c0-1,0-1.9,0-2.9
				c0-0.1,0-0.1,0-0.2c-0.1-1.1-0.7-1.8-1.6-1.8c-1,0-1.6,0.7-1.6,1.8c0,2.1,0,4.1,0,6.2c0,1.2,0.6,1.9,1.6,1.9s1.6-0.7,1.7-1.9
				C118.6,53.5,118.6,52.4,118.6,51.4z M145.3,81.4c1,0,2.1,0,3.1,0c1.2,0,1.9-0.7,1.9-1.6c0-1-0.7-1.6-1.9-1.6c-2.1,0-4.2,0-6.3,0
				c-1.1,0-1.8,0.7-1.8,1.6c0,1,0.7,1.6,1.9,1.6C143.2,81.4,144.2,81.4,145.3,81.4z M146,64.3c0-1.6-1.3-2.3-2.5-1.7
				c-1.9,1-3.8,2.1-5.6,3.2c-0.9,0.5-1.1,1.4-0.7,2.2c0.4,0.8,1.4,1.1,2.3,0.6c1.9-1.1,3.8-2.1,5.6-3.3
				C145.6,65.1,145.8,64.5,146,64.3z M146,95.4c-0.1-0.2-0.3-0.8-0.7-1c-2-1.2-4-2.4-6-3.5c-0.8-0.4-1.7-0.1-2.1,0.7
				c-0.4,0.7-0.3,1.7,0.5,2.1c2,1.2,4,2.4,6.1,3.5C144.8,97.7,146,96.8,146,95.4z"/>
			<path class="st2" d="M91.9,121.3c-2.7-1-4.2-2.9-4.6-5.7c-0.1-0.8-0.6-1.5-1-2.2c-1.9-3.7-1.9-7.4-0.6-11.2
				c0-0.1,0.1-0.2,0.1-0.5c-2.7-1.6-5-3.9-8.2-4.6c-0.7-0.1-1.4-0.2-2.1-0.2c-3.1-0.2-5.2-1.8-6.3-4.7c-0.1-0.3-0.4-0.7-0.7-0.8
				c-4.1-2.1-4.6-7.1-0.9-9.9c0.2-0.1,0.4-0.3,0.6-0.4c2.2-1.1,2-3.1,1.8-5.2c-0.6,0.4-1,0.7-1.5,1c-14,10.3-18.9,29.1-11.7,44.9
				c0.1,0.2,0.1,0.3,0.2,0.5c0.5,1.1,0.2,2-0.7,2.4s-1.8,0.1-2.3-1c-0.9-2.2-1.9-4.4-2.5-6.7c-5.9-22.3,7.6-44.5,30.2-49.5
				c6-1.3,12.1-1.2,18,0.3c0.8,0.2,1.2,0.1,1.7-0.6c5.1-6.3,13.5-8.8,21.2-6.5s13.4,9.1,14.1,17.1c0.6,7-1.8,12.9-7.2,17.5
				c-0.6,0.5-0.7,0.9-0.5,1.6c3.3,15.1-0.4,28.3-11.7,39c-9.9,9.3-21.9,12.3-35.3,9.8c-0.6-0.1-1.3-0.5-1.6-1
				c-0.2-0.4-0.1-1.2,0.1-1.6c0.4-0.7,1.1-0.7,1.9-0.6c3.1,0.7,6.3,0.9,9.5,0.8c16.6-0.6,31.3-13.3,34.2-29.8
				c0.4-2.1,0.5-4.2,0.7-6.3c0.1-0.8,0-1.6,0-2.6c-0.6,0.3-1.1,0.5-1.6,0.7c-2.9,1.2-5.7-0.6-5.9-3.8c0-0.6-0.2-1.2-0.5-1.8
				c-1.4-2.6-1.8-5.3-1.2-8.2c0.5-2.2,0.9-4.4,1.3-6.7c0.1-0.4,0-0.9-0.3-1.2c-2.6-3.3-5.7-6.1-9.3-8.2c-0.3-0.2-0.8-0.3-1.1-0.2
				c-3.1,1.5-6.4,2.2-9.8,2.1c-0.2,0-0.3,0-0.6,0.1c0,0.3-0.1,0.6-0.1,0.9c-0.1,2.3-1.8,3.9-4.1,4c-1.1,0-2.3-0.1-3.4,0
				c-0.5,0-1.2,0.3-1.4,0.7c-0.2,0.4,0,1.1,0.3,1.5c1,1.6,2.1,3.2,3.1,4.8c0.5,0.7,0.7,1.4,0.2,2.2c-0.5,0.8-1.3,0.8-2.2,0.6
				c-2.7-0.6-5-2-6.8-4.1c-0.5-0.6-1-0.8-1.7-0.7c-0.6,0.1-1.2,0.1-1.8,0c-0.9-0.1-1.4,0.2-1.5,1.1c0,0.3-0.1,0.6-0.2,0.9
				c0.5,0.1,1,0.2,1.4,0.4c1.9,0.6,3.4,1.8,4,3.8c0.4,1.5,1.2,2.7,2.1,3.9c0.5,0.7,1,1.3,1.6,2.1c0.3-0.3,0.6-0.6,0.9-0.8
				c2.9-2.8,7.3-2.9,10.4-0.3c0.4,0.3,1,0.6,1.5,0.6c2.3-0.1,4.4,0.2,6.5,1.4c2.1,1.2,3.5,2.7,4,5.1c0.2,1.1,0.7,1.7,1.8,1.9
				c0.6,0.1,1.2,0.4,1.8,0.6c2.1,0.8,3.3,2.4,3.6,4.6c0.3,2.1-0.5,3.9-2.2,5.2c-0.8,0.6-1.7,1.2-2.5,1.9c-0.3,0.3-0.5,0.7-0.6,1.1
				c-0.1,0.9,0,1.7-0.1,2.6c-0.4,2.3-1.6,4-3.7,4.9c-1.1,0.5-1.9,1.2-2.4,2.4c-1,2.6-2.9,4.1-5.5,4.8c-1.1,0.3-2.5,0.4-3,1.2
				c-0.5,0.7-0.2,2.1-0.2,3.2c0,1.9-1.2,2.6-2.8,1.7c-4.2-2.3-6.3-7.4-5.1-12.4C90.7,126.3,91.3,123.9,91.9,121.3z"/>
			<path class="st2" d="M73.5,120.8c0,5.2,0,10.4,0,15.6c0,0.7,0.2,1.2,0.7,1.8c2.9,3.1,3.5,7.7,1.5,11.3c-2,3.8-6.1,5.9-10.5,5.2
				c-4-0.6-7.3-3.7-8.1-7.8c-0.7-3.3,0.2-6.3,2.5-8.8c0.5-0.5,0.7-1,0.7-1.7c0-10.5,0-21,0-31.5c0-2.7,1.2-4.7,3.5-6
				c2.3-1.2,4.7-1.1,6.9,0.4c2,1.4,2.8,3.4,2.8,5.9C73.5,110.4,73.5,115.6,73.5,120.8L73.5,120.8z M70.2,121.4c0-2.5,0-4.9,0-7.4
				c0-3.1,0-6.1,0-9.2c0-1.7-1.2-3.1-2.9-3.3c-1.6-0.2-3.1,0.7-3.6,2.2c-0.2,0.6-0.2,1.2-0.2,1.8c0,10.7,0,21.3,0,32
				c0,0.9-0.2,1.6-0.9,2.3c-3,2.6-3.3,6.8-0.6,9.7c2.6,2.8,7,2.8,9.7,0s2.5-7.1-0.5-9.7c-0.7-0.6-1-1.3-1-2.2
				C70.3,132.2,70.2,126.8,70.2,121.4z"/>
			<path class="st2" d="M134.1,47.9c1.7,0,2.4,1.3,1.7,2.6c-1.3,2.3-2.7,4.6-4,6.9c-0.3,0.5-0.6,1-0.9,1.5c-0.5,0.9-1.4,1.1-2.2,0.7
				c-0.8-0.4-1.1-1.4-0.6-2.2c1.6-2.9,3.3-5.8,5-8.7C133.3,48.2,133.9,48,134.1,47.9z"/>
			<path class="st2" d="M106.2,58.3c-0.4,0.4-0.8,1.1-1.3,1.2c-0.5,0.1-1.5-0.1-1.7-0.5c-1.6-2.3-3-4.6-4.4-7
				c-0.4-0.7-0.1-1.7,0.7-2.1c0.7-0.4,1.7-0.3,2.1,0.5c1.5,2.3,2.9,4.6,4.3,6.9c0.1,0.2,0.2,0.5,0.2,0.7
				C106.1,58.2,106.2,58.3,106.2,58.3z"/>
			<path class="st2" d="M118.6,51.4c0,1.1,0,2.1,0,3.2c0,1.2-0.7,1.9-1.7,1.9s-1.6-0.7-1.6-1.9c0-2.1,0-4.1,0-6.2
				c0-1.1,0.7-1.9,1.6-1.8c1,0,1.6,0.7,1.6,1.8c0,0.1,0,0.1,0,0.2C118.6,49.4,118.6,50.4,118.6,51.4z"/>
			<path class="st2" d="M145.3,81.4c-1,0-2.1,0-3.1,0c-1.2,0-1.9-0.6-1.9-1.6c0-0.9,0.7-1.6,1.8-1.6c2.1,0,4.2,0,6.3,0
				c1.2,0,1.9,0.7,1.9,1.6c0,1-0.7,1.6-1.9,1.6C147.3,81.4,146.3,81.4,145.3,81.4z"/>
			<path class="st2" d="M146,64.3c-0.2,0.2-0.4,0.8-0.9,1.1c-1.8,1.1-3.7,2.2-5.6,3.3c-0.9,0.5-1.9,0.2-2.3-0.6
				c-0.4-0.8-0.2-1.7,0.7-2.2c1.9-1.1,3.7-2.2,5.6-3.2C144.7,61.9,146,62.7,146,64.3z"/>
			<path class="st2" d="M146,95.4c0,1.5-1.3,2.3-2.3,1.7c-2.1-1.1-4.1-2.3-6.1-3.5c-0.7-0.4-0.9-1.4-0.5-2.1s1.3-1.1,2.1-0.7
				c2,1.1,4.1,2.3,6,3.5C145.7,94.6,145.9,95.2,146,95.4z"/>
			<path class="st2" d="M68.5,123.1c0,5.3,0,10.6,0,15.9c0,0.7,0.1,1.2,0.9,1.6c2,1.1,2.9,3.4,2.3,5.6c-0.6,2.2-2.5,3.7-4.8,3.7
				c-2.2,0-4.2-1.5-4.8-3.6c-0.6-2.2,0.3-4.6,2.3-5.7c0.7-0.4,0.9-0.7,0.8-1.5c0-10.7,0-21.4,0-32.1c0-0.9,0.2-1.8,1.2-2.1
				c1.2-0.3,2.1,0.5,2.1,1.9c0,3.2,0,6.3,0,9.5C68.5,118.6,68.5,120.8,68.5,123.1z M68.6,144.9c0-0.9-0.8-1.7-1.7-1.7
				c-0.9,0-1.7,0.8-1.7,1.7s0.8,1.6,1.6,1.7C67.7,146.6,68.6,145.8,68.6,144.9z"/>
		</g>
	</g>
</g>
</svg>
