<?xml version="1.0" encoding="utf-8"?>
<!-- Generator: Adobe Illustrator 28.2.0, SVG Export Plug-In . SVG Version: 6.00 Build 0)  -->
<svg version="1.1" id="Layer_1" xmlns="http://www.w3.org/2000/svg" xmlns:xlink="http://www.w3.org/1999/xlink" x="0px" y="0px"
	 viewBox="0 0 200 200" style="enable-background:new 0 0 200 200;" xml:space="preserve">
<style type="text/css">
	.st0{fill:#8AC24A;}
	.st1{fill:none;stroke:#8AC24A;stroke-width:3;stroke-miterlimit:10;}
	.st2{fill:#FFFFFF;}
</style>
<circle class="st0" cx="100" cy="100.5" r="91.1"/>
<circle class="st1" cx="100" cy="100.5" r="98.5"/>
<g>
	<path class="st2" d="M102.2,41.9c0.6,0.5,1.4,0.4,2,0.5c8.3,1.9,13.7,10.1,12,18.4c-1.7,8.5-9.6,14-18.1,12.5
		C90.4,72,85,65.5,85,57.6c0-7.6,5.7-14.2,13.3-15.4c0.4-0.1,0.8,0.1,1-0.3C100.4,41.9,101.3,41.9,102.2,41.9z"/>
	<path class="st2" d="M148.4,136.2c-0.6-0.5-1.4-0.4-2-0.5c-5.5-1.2-10.6-5.6-12.1-10.6c10.5,2.9,21.1,2.9,31.7,0
		c-2.4,5.6-6.4,9.1-12.1,10.6c-0.8,0.2-1.7,0.1-2.4,0.6C150.4,136.2,149.4,136.2,148.4,136.2z"/>
	<path class="st2" d="M82.5,82.8c-0.9-2.1-1.6-4-2.4-5.8c-0.8-1.9-2.2-2.6-3.6-2c-1.5,0.6-1.9,2.1-1.2,3.9
		c6.6,16.3,13.2,32.6,19.8,48.9c0.5,1.2,1.1,2.3,0.8,3.7c-0.3,1.8-1.7,3.3-3.5,3.7c-2,0.4-3.8-0.4-4.9-2.2
		c-3.1-5.2-6.2-10.4-9.3-15.7c-4.5-7.6-9-15.3-13.5-22.9c-0.5-0.8-1-1.6-2.1-1.8c-1.1-0.2-1.9,0.2-2.6,1c-0.7,1-0.6,2-0.1,3
		c1.5,2.6,3.1,5.3,4.7,7.9c0.4,0.7,0.4,1-0.3,1.5c-2,1.2-3.9,2.5-5.8,3.7c-1.5,1-1.9,2.5-1,3.8c0.9,1.2,2.4,1.4,3.8,0.5
		c1.9-1.2,3.8-2.4,5.6-3.7c0.6-0.4,0.8-0.3,1.2,0.3c2.7,4.6,5.5,9.3,8.2,13.9c0.3,0.6,0.2,0.8-0.3,1.2c-6.9,6-14.9,9.1-24,9.4
		c-3.6,0.1-6.9-0.4-10-2.3c-4.1-2.6-6.2-6.5-5.9-11.3c1.1-18.2,8.1-33.7,21.1-46.5c3.2-3.1,6.6-6,10.8-7.7c2.9-1.2,5.9-1.8,9.1-1.2
		c4,0.7,6.4,2.9,7.2,6.9C85.4,76.4,84.7,79.6,82.5,82.8z"/>
	<path class="st2" d="M91.4,96.9c3.8,0.1,6.6,1.6,8.6,4.5c5.4,8.1,10.8,16.2,16.2,24.3c1.9,2.9,1.2,6.5-1.5,8.5
		c-2.7,1.9-6.4,1.3-8.5-1.5c-2-2.7-4-5.4-6.1-8c-2.2-2.7-3.1-6.1-4.4-9.2c-2.4-5.6-4.6-11.3-6.9-16.9c-0.4-1-0.2-1.3,0.7-1.4
		C90.3,97,91,96.9,91.4,96.9z"/>
	<path class="st2" d="M150.1,115.1c4.7,0.1,9.4,0.4,13.9,2c1,0.3,2.5,0.6,2.5,1.5c0,0.8-1.5,1.1-2.5,1.4c-5.2,1.7-10.5,2.1-15.9,1.9
		c-4-0.1-8-0.5-11.9-1.9c-0.2-0.1-0.4-0.1-0.6-0.2c-0.8-0.4-2.1-0.5-2.1-1.4c0-0.7,1.3-1,2.2-1.3
		C140.3,115.5,145.2,115.2,150.1,115.1z"/>
</g>
</svg>
