<?xml version="1.0" encoding="utf-8"?>
<!-- Generator: Adobe Illustrator 28.2.0, SVG Export Plug-In . SVG Version: 6.00 Build 0)  -->
<svg version="1.1" id="Layer_1" xmlns="http://www.w3.org/2000/svg" xmlns:xlink="http://www.w3.org/1999/xlink" x="0px" y="0px"
	 viewBox="0 0 200 200" style="enable-background:new 0 0 200 200;" xml:space="preserve">
<style type="text/css">
	.st0{fill:#8AC24A;}
	.st1{fill:#FFFFFF;}
	.st2{fill:none;stroke:#8AC24A;stroke-width:3;stroke-miterlimit:10;}
</style>
<circle id="Ellipse_13" class="st0" cx="100.1" cy="100.9" r="92.5"/>
<g>
	<path class="st1" d="M64.9,68.4c0-2.8,0.1-5.7,0-8.5c-0.1-2.3,1.4-2.3,2.9-2.1c1.4,0.1,3.8-0.9,3.6,1.9c-0.2,2.7,1.2,2.9,3.2,2.7
		c1.2-0.1,2.4-0.1,3.5,0c2.2,0.2,4-0.1,5.5-2c0.5-0.7,1.4-1.1,2.2-1.5c2.5-1.3,3.4-3.4,2.6-6.1c-0.4-1.5-2.8-2.2-4.8-1.3
		c-0.8,0.4-1.4,1.1-2.2,1.4c-2.1,1-4.1,0.5-5.5-1.3c-1.3-1.7-1.4-3.7,0-5.4c1.4-1.8,3.5-2.6,5.4-1.2c2.8,2,5.2,2.3,8,0.3
		c1.1-0.8,2.6-0.3,3.9,0.5c2,1.5,3.9,1.3,5.9-0.2c2.4-1.7,4.7-1.5,6.3,0.4c1.6,1.9,1.6,4,0,5.9s-3.9,2.1-6.3,0.4
		c-1.7-1.2-3.5-1.8-5.2-0.6c-1.8,1.4-0.6,3.6-0.8,5.5c-0.1,0.8,1,0.8,1.5,1.2c3.8,3,8,3.9,12.8,4.5c7.1,0.8,12.4,7.6,12.8,14.8
		c0.1,1.6,0,3.1,0.1,4.7c0,1.8-0.4,3.7,2.3,4.2c1.3,0.2,1.8,1.8,1.5,3.2c-0.3,1.4-1.2,2.3-2.6,2.3c-4.9,0.1-9.8,0.1-14.7,0
		c-1.6,0-2.5-1-2.7-2.6c-0.2-1.5,0.5-2.9,2-3.2c1.9-0.3,1.8-1.4,1.8-2.7c0-1,0-2,0-2.9c0.1-2.3-0.1-4.6-2.5-5.4s-5-1.1-7.2,1.2
		c-3.7,3.7-9.5,4.4-13.4,1c-2.8-2.4-5.5-2.8-8.8-2.7c-2.4,0.1-4.8-0.7-4.7,3.4c0.1,2.3-2.7,1-4.1,1.3c-1.4,0.2-2.2-0.4-2.2-2
		C64.9,74.4,64.9,71.4,64.9,68.4z"/>
	<path class="st1" d="M114,148.5c-2.3,0-4.7-0.1-7,0c-1.2,0-1.8-0.4-1.9-1.6c-0.8-9.1-1.6-18.3-2.4-27.4c-0.1-1.3,0.6-1.4,1.6-1.4
		c2.6,0,5.1,0.5,7.5,1.2c3.8,1.2,7.7,1.5,11.6,0.7c1.7-0.4,2.2,0,2.1,1.8c-0.8,8.3-1.5,16.5-2.2,24.8c-0.1,1.5-0.6,2.1-2.1,2
		C118.7,148.4,116.4,148.5,114,148.5z"/>
	<path class="st1" d="M114.1,156.6c-4.4,0-8.8-0.1-13.2,0c-2.1,0-3-0.7-3.2-2.8c-0.9-10-1.8-20.1-2.7-30.1
		c-0.4-3.9-0.7-7.8-1.1-11.7c-0.2-1.7-0.3-3.7,2.1-3.7c2.1-0.1,2.2,1.8,2.4,3.4c1,12.2,2.1,24.4,3.1,36.6c0.3,3.8,0.7,4.1,4.5,4.1
		c5.7,0,11.4-0.1,17,0c2.6,0,3.6-0.9,3.8-3.5c1-12.5,2.2-25,3.3-37.4c0.1-1.3,0.1-2.8,1.7-3c2.2-0.4,2.7,1.1,2.5,2.9
		c-0.5,6-1,12.1-1.5,18.1c-0.7,7.8-1.6,15.6-2.1,23.4c-0.2,3.2-1.5,4-4.4,3.9C122.3,156.4,118.2,156.6,114.1,156.6z"/>
	<path class="st1" d="M115.9,104.1c0,2.1,0,4.3,0,6.4c0,1.1-0.4,1.9-1.7,2c-1.4,0.1-1.9-0.8-1.9-2.1c0-4.4,0-8.8,0-13.1
		c0-1.2,0.4-2.2,1.8-2.2c1.3,0,1.8,1,1.8,2.2C115.9,99.6,115.9,101.8,115.9,104.1L115.9,104.1z"/>
	<path class="st1" d="M108.9,99c-0.2,2.8-0.4,5.7-0.7,8.5c-0.1,1.3-0.2,3.1-2.1,3c-1.8-0.1-1.8-1.7-1.7-3.2c0.3-3.1,0.6-6.2,0.9-9.4
		c0.1-1.4,0.2-3.1,2.1-2.8c1.7,0.2,1.6,1.7,1.5,3C108.9,98.4,108.9,98.7,108.9,99L108.9,99z"/>
	<path class="st1" d="M123.8,108c0.1,1.2-0.2,2.3-1.5,2.4s-1.9-0.8-2-2c-0.4-3.6-0.7-7.2-1-10.8c-0.1-1.3,0.3-2.5,1.8-2.5
		c1.3-0.1,1.9,0.9,2,2.1C123.2,100.8,123.5,104.4,123.8,108z"/>
</g>
<circle class="st2" cx="99.6" cy="100.4" r="98.5"/>
</svg>
