<?xml version="1.0" encoding="utf-8"?>
<!-- Generator: Adobe Illustrator 28.2.0, SVG Export Plug-In . SVG Version: 6.00 Build 0)  -->
<svg version="1.1" id="Layer_1" xmlns="http://www.w3.org/2000/svg" xmlns:xlink="http://www.w3.org/1999/xlink" x="0px" y="0px"
	 viewBox="0 0 200 200" style="enable-background:new 0 0 200 200;" xml:space="preserve">
<style type="text/css">
	.st0{fill:#FFFFFF;}
	.st1{fill:none;stroke:#F36E46;stroke-width:3;stroke-miterlimit:10;}
	.st2{fill:#F36E46;}
</style>
<circle class="st0" cx="100" cy="100.5" r="91.1"/>
<circle class="st1" cx="100" cy="100.5" r="98.5"/>
<g>
	<path class="st2" d="M117.9,104.7c-0.6-3.3-1.2-6.3-1.8-9.4c-0.5-2.6-1-5.2-1.5-7.8c-0.3-1.3-1.1-2.2-2.3-2.2
		c-1.2,0-2.1,0.7-2.4,2.1c-0.9,3.6-1.8,7.3-2.6,10.9c-0.2,0.7-0.5,1-1.3,1c-3.3,0-6.5,0-9.8,0c-0.3,0-0.6,0-0.8-0.4
		c-2-6.6-6.5-11.2-12.4-14.5c-2.6-1.4-5.3-2.4-8-3.7c-2.2-1-4.4-2.1-6.4-3.6c-1.8-1.4-3-3.1-2.9-5.5c0-0.8,0.3-1.6,0.2-2.5
		c-0.2-1.2-0.4-1.7-1.7-3.2c1.3-0.8,2.7-1.3,4.2-1.8c10.5-3.3,20.1-1.4,28.8,5.4c0.9,0.7,0.9,0.7,1.8,0c11.1-9.3,27.7-9.3,38.6,0.1
		c7.4,6.4,10.7,14.4,10.5,24c0,1.7-0.3,3.4-0.7,5.1c-0.1,0.4-0.3,0.6-0.7,0.6c-5.5,0-10.9,0-16.4,0c-0.6,0-0.9-0.3-1.1-0.8
		c-0.8-1.9-1.6-3.8-2.5-5.6c-0.5-1.2-1.3-1.8-2.3-1.7c-1.2,0.1-1.8,0.8-2.2,1.8c-1.3,3.6-2.6,7.2-3.9,10.8
		C118.1,104,118,104.3,117.9,104.7z"/>
	<path class="st2" d="M68.2,124.6c1.5,0.4,3.1,0.7,4.8,1c4.8,0.6,9.5,0.3,14.1-1c0.6-0.2,0.9,0,1.1,0.5c0.3,0.7,0.5,1.5,0.5,2.3
		c0.1,2.8,2.2,4.8,4.9,4.7c2.6-0.1,4.5-2.2,4.5-4.9c0-3.4-1.1-6.4-3.3-9.1c-0.3-0.3-0.3-0.6-0.2-1c1.6-4.5,2.2-9.1,1.7-13.8
		c-0.1-0.7,0.1-0.9,0.8-0.9c3,0,6,0,9.1,0c2,0,3.6-1.2,4-3.2c0.5-2.1,1-4.2,1.5-6.3c0.1-0.2,0.1-0.5,0.3-0.6
		c0.3,0.1,0.3,0.3,0.3,0.5c1,5.1,1.9,10.1,2.8,15.2c0.2,1.3,1,2.1,2.2,2.2c1.1,0.1,2-0.6,2.5-1.9c1.5-4,3-8.1,4.4-12.1
		c0-0.1,0.1-0.2,0.2-0.5c0.5,1.1,0.9,2.1,1.3,3c0.2,0.5,0.4,1.1,0.7,1.6c0.8,1.4,1.9,2.1,3.5,2.1c5.1-0.1,10.3,0,15.4,0
		c0.7,0,0.8,0.2,0.5,0.8c-1.5,4-3.8,7.5-6.8,10.6c-12.8,12.8-25.7,25.5-38.6,38.3c-1.5,1.5-3.6,1.5-5.1,0
		c-7.6-7.5-15.2-15.1-22.8-22.6C71.2,127.9,69.7,126.2,68.2,124.6z"/>
	<path class="st2" d="M61.3,68.1c1,0,1.7,0.9,1.5,1.8c-0.9,4.2,0.9,7.3,4.1,9.8c2.7,2.1,5.7,3.4,8.9,4.7c3.5,1.4,6.9,3,9.9,5.4
		c5.3,4.3,7.8,9.9,7.7,16.7c-0.1,4-0.8,7.8-2.5,11.4c-0.2,0.4,0,0.6,0.3,0.8c2.1,1.9,3.4,4.2,3.7,7c0.1,0.5,0.1,1,0.1,1.6
		c0,0.9-0.6,1.6-1.5,1.6s-1.6-0.6-1.6-1.6c0-1.1-0.2-2.2-0.6-3.2c-0.5-1.2-1.2-2.1-2.1-3c-0.4-0.4-0.8-0.4-1.3-0.2
		c-7.4,2.5-14.8,2.3-22-0.6c-7.4-3-12.3-8.4-15.3-15.6c-3.2-7.8-3.3-15.7-0.4-23.6c1.5-4.2,4.4-7.5,7.7-10.5c0.7-0.7,1.5-1.3,2.3-2
		C60.5,68.3,60.9,68.1,61.3,68.1z M85.1,118.7c-1.6-1.1-3-2-4.4-3c-3.2-2.3-6.2-5-8.6-8.2c-0.6-0.8-0.6-1.8,0.1-2.3
		c0.7-0.6,1.6-0.4,2.3,0.5c0.4,0.5,0.8,1.1,1.3,1.6c3.3,3.7,7.3,6.6,11.6,9.2c0.6,0.3,0.8,0.3,1.1-0.3c1.2-2.9,1.8-5.9,1.9-9
		c0.3-6.4-2.1-11.5-7.2-15.3c-2.6-2-5.6-3.3-8.6-4.5c-3.2-1.3-6.4-2.7-9.2-4.8c-3-2.2-5.1-4.8-5.7-8.6c-0.1-0.5-0.2-0.4-0.5-0.2
		c-2.4,2.4-4.6,4.9-5.9,8.1c-3.1,8-2.8,15.8,0.9,23.5c2.4,5.1,6,9.1,11.2,11.6c4.7,2.3,9.7,3,14.9,2.7
		C81.9,119.4,83.5,119.2,85.1,118.7z"/>
</g>
</svg>
