<?xml version="1.0" encoding="utf-8"?>
<!-- Generator: Adobe Illustrator 28.2.0, SVG Export Plug-In . SVG Version: 6.00 Build 0)  -->
<svg version="1.1" id="Layer_1" xmlns="http://www.w3.org/2000/svg" xmlns:xlink="http://www.w3.org/1999/xlink" x="0px" y="0px"
	 viewBox="0 0 200 200" style="enable-background:new 0 0 200 200;" xml:space="preserve">
<style type="text/css">
	.st0{fill:#FFFFFF;}
	.st1{fill:none;stroke:#F36E46;stroke-width:3;stroke-miterlimit:10;}
	.st2{fill:#F36E46;}
</style>
<circle id="Ellipse_20" class="st0" cx="100.5" cy="100.5" r="92.5"/>
<circle class="st1" cx="100" cy="100" r="98.5"/>
<g>
	<path class="st2" d="M127.4,98c-8.9-8.7-19.5-11.7-31.2-11.6c4.4-1.3,8.9-0.6,13.4-0.8c-9.1-11-26.3-4.4-33.7,5.6
		c9,7.5,22.1,11.1,32.2,0.7c1-1.1,2.1-1.4,3.5-0.5c8.1,5.3,13.5,11.8,6.5,22.2c-3,4.4-5.9,6.9-11.6,6.2c-5.4-0.6-11-0.3-16.4-0.1
		c-2.6,0.1-4.2-0.7-5.6-3c-2.4-4-5.2-7.7-8-11.4c-7.3-9.8-8.4-22.8-2.4-32.9c7.1-11.9,17.8-16.3,31.3-14.8
		c10.5,1.2,20.6,10.4,23.7,21.7C130.5,84.6,129.9,92.3,127.4,98z M120.1,77.2c-0.4-4.8-2.8-8-6.1-10.6c-1.2-0.9-1.7-0.1-2.4,0.6
		c-3,3.1-3.9,6.8-2.9,11c0.6,2.5,2,4.5,3.6,6.4c1.1,1.3,1.8,1.2,3.5,0.1C119,82.7,119.6,80,120.1,77.2z"/>
	<path class="st2" d="M100.1,122.9c3,0,6-0.1,9,0c4.7,0.2,4.6,1.2,3.9,5.8c-0.9,5.8-6.6,7.1-9,11.6c-1.5,2.8-8.2,0.9-9.4-2.3
		c-0.6-1.5-1.4-2-2.7-2.6c-4.2-1.7-4.6-5.9-5.5-9.4c-0.5-2.1,1.7-3,3.7-3C93.4,122.9,96.8,122.9,100.1,122.9L100.1,122.9z"/>
</g>
</svg>
