<?xml version="1.0" encoding="utf-8"?>
<!-- Generator: Adobe Illustrator 28.2.0, SVG Export Plug-In . SVG Version: 6.00 Build 0)  -->
<svg version="1.1" id="Layer_1" xmlns="http://www.w3.org/2000/svg" xmlns:xlink="http://www.w3.org/1999/xlink" x="0px" y="0px"
	 viewBox="0 0 200 200" style="enable-background:new 0 0 200 200;" xml:space="preserve">
<style type="text/css">
	.st0{fill:none;stroke:#F36E46;stroke-width:3;stroke-miterlimit:10;}
	.st1{fill:#FFFFFF;}
	.st2{fill:#F36E46;}
</style>
<g id="Ellipse_21" transform="translate(302 97)">
	<g>
		<circle class="st0" cx="-202" cy="2.9" r="98.5"/>
	</g>
</g>
<g id="Group_52" transform="translate(-840 -284)">
	<g>
		<g id="Group_24_00000031905075199292891930000008549440964783774141_" transform="translate(538 187)">
			<circle id="Ellipse_20_00000060728604152141262790000005959035209769873082_" class="st1" cx="402.5" cy="197.4" r="92.5"/>
		</g>
	</g>
</g>
<g>
	<g>
		<path class="st2" d="M75.8,60.9c0.4,0.5,0.4,1.1,0.1,1.6c-0.2,0.4-0.4,0.8-0.7,1.1c-1.7,2-2.8,4.4-3.5,6.9
			c-1.2,4-2.4,7.9-3.3,11.9c-0.5,2.3-0.8,4.6-0.6,6.9c0,0.5,0,1.2,0.6,1.4c0.6,0.3,1.2,0,1.7-0.3c1.7-1.4,2.9-3.4,1.7-5.7
			c-0.3-0.6-0.5-1.2-0.7-1.8c-0.3-0.9-0.2-1.8,0.5-2.6c0.5-0.6,0.9-0.5,1.3,0.1c0.2,0.3,0.4,0.5,0.7,0.3c0.3-0.2,0.5-0.4,0.2-0.7
			c-0.2-0.3-0.1-0.6,0-0.9c0.2-0.6,0.7-0.6,1.2-0.2c0.5,0.6,0.5,1.3,0.5,2c-0.1,0.5-0.1,1,0,1.4c0.2,0.7,0.7,1.2,1.3,1.1
			c0.5-0.1,0.9-0.5,0.9-1.3c0-1.1-0.2-2.3,0.1-3.4c0.9-3.5,3-5.9,6.5-6.9c0.7-0.2,0.9,0,0.8,0.7c-0.1,0.5-0.3,0.9-0.5,1.3
			c-0.8,1.4-1.7,2.7-2.5,4.1c-0.1,0.2-0.3,0.3-0.3,0.6c0,0,0,0-0.1,0.1c0,0,0,0,0.1,0c0.6-0.1,1.2-0.4,1.8-0.5
			c0.8-0.2,1.1,0.1,1,0.9c-0.2,0.9-0.7,1.6-1.5,2.1c-0.5,0.3-1,0.5-1.5,0.8c-0.4,0.2-0.9,0.5-1.2,0.8c-0.2,0.2-0.4,0.4-0.4,0.8
			c1.6-0.3,3.1-0.7,4.8-1c-0.3,0.8-0.8,1.3-1.4,1.7c-0.9,0.6-1.9,1.1-2.8,1.6c-2.2,1.2-4.2,2.7-5.9,4.5c-1,1-1.7,2.2-1.9,3.6
			c0.3,0,0.3-0.2,0.4-0.3c4.1-4.9,9.3-7.5,15.8-7c0.9,0.1,1.7,0.2,2.5,0.5c0.6,0.2,1.2,0.1,1.7-0.1c2.7-1.2,4.7-6,2.2-9
			c-0.9-1.1-2.2-1.6-3.5-2c-0.2-0.1-0.5-0.1-0.9-0.2c0.5-0.2,0.9-0.3,1.3-0.4s0.8-0.3,1.2-0.5c0.4-0.2,0.5-0.3,0-0.6
			c-1.1-0.6-2.1-1.3-3.1-2.1c-0.3-0.3-0.8-0.5-0.6-1c0.1-0.5,0.7-0.4,1-0.6c0.1,0,0.1,0,0.2,0c0.6-0.1,1.3-0.3,1.9-0.1
			c0.6,0.2,0.7,1,1,1.5c0.3,0.4,0.5,0.8,0.8,1c0.5,0.4,0.8,0.3,1.1-0.2c0.3-0.6,0.4-1.3,0.5-1.9c0.1-0.3,0.2-0.7,0.3-1
			c0.1-0.2,0.1-0.4,0.3-0.4c0.2,0,0.3,0.2,0.4,0.3c0.1,0.2,0.2,0.3,0.3,0.5c0.1,0.2,0.3,0.3,0.6,0.3c1.2,0,1.9,1,1.6,2.2
			c-0.2,0.9-0.2,1.8,0,2.8c0,0.1,0.1,0.3,0.2,0.3s0.3-0.1,0.3-0.2c0.2-0.4,0.5-0.8,0.6-1.2c0.5-1.3,1.1-2.5,1.6-3.8
			c0.1-0.2,0.2-0.4,0.3-0.7c0.2-0.3,0.2-0.7,0.6-0.7c0.3,0,0.3,0.5,0.4,0.8c0,0.1,0.1,0.1,0.1,0.2c0.1,0.5,0.3,0.7,0.8,0.2
			c0.7-0.7,1.5-0.9,2.3-0.9c-0.3,0.6-0.6,1.1-0.8,1.7c-0.3,0.7-0.7,1.5-0.1,2.3c0.6,0.7,1.4,0.5,2.2,0.4c0.8-0.1,1.7-0.3,2.4-0.6
			c0.8-0.3,1.4-0.1,2.1,0.2c0.5,0.3,0.6,0.6,0.2,1c-0.6,0.6-1.4,1-2.2,1.3c-0.4,0.2-0.5,0.3-0.3,0.7c0.1,0.1,0.1,0.3,0.1,0.4
			c0.3,1.2,0.2,1.3-1,1.2c-1.7-0.2-3.4-0.2-5.1,0.3c-3,0.9-4.8,3-5.5,6c-0.1,0.4,0,0.6,0.5,0.6c2.3,0.2,4.7,0.2,7,0.1
			c0.4,0,0.5-0.2,0.5-0.6c-0.1-0.6-0.2-1.2,0-1.8c0.2-0.6,0.5-0.7,1-0.4c0.8,0.5,1.3,1.3,1.6,2.3c0.8-0.6,1.7-0.8,2.7-0.3
			c-1.5,1.2-3.2,2.1-4.9,2.8c0.4,0.4,0.8,0.9,1.2,1.3c0.2,0.2,0.4,0.4,0.3,0.6c-0.1,0.3-0.4,0.2-0.7,0.1c-1.7-0.2-3.3-0.7-4.9-1
			c-1.8-0.3-3.6-0.6-5.4-0.5c-0.9,0.1-1.7,0.3-2.5,0.8c-0.3,0.2-0.5,0.4,0,0.7c3.1,1.9,4.8,4.8,5.9,8.2c0.2,0.5,0.1,0.6-0.4,0.6
			c-1.4-0.1-2.8,0.2-4.1,0.8c-2.4,1.2-4.3,4.7-1.8,7.8c1.3,1.6,1.2,4.1-0.2,5.7c-0.4,0.5-0.9,1-1.4,1.5c-2.8,2.7-3.4,5.8-2,9.4
			c0.4,1.1,0.8,2.1,1.2,3.2c0.1,0.4,0.1,0.5-0.3,0.6c-1.7,0.6-3.5,1.1-5.2,1.7c-0.6,0.2-0.7,0-0.7-0.5c0-0.7,0-1.4-0.1-2.1
			c-0.4,0.5-0.4,1-0.5,1.6c-0.3,1.6-0.3,1.6-1.8,1.9c-7.5,1.7-14.7,1-21.7-2c-0.1,0-0.2-0.1-0.2-0.1c-1.4-0.6-1.4-0.6-1.3-2.1
			c0.3-3.5,0.5-7.1,0.9-10.6c0.2-1.9,0.7-3.7,1.8-5.3c1.1-1.5,1.2-1.6,2.8-0.7c1.7,0.9,3.4,1.8,5.2,2.7c0.4,0.2,0.6,0.5,0.6,0.9
			c0.3,2.3,0.4,4.7,0.9,7c0.1,0.3,0.1,0.5,0.2,0.7c0.3-0.1,0.2-0.3,0.2-0.4c0-2.7,0.2-5.4,0.5-8.1c0-0.4-0.1-0.6-0.4-0.8
			c-1.8-1.7-3.6-3.5-5.4-5.2c-0.4-0.4-0.5-0.6-0.1-1c0.2-0.2,0.3-0.4,0.5-0.6c0.9-0.9,1.3-2,1.5-3.3c0.3-1.4,0.1-2.6-0.7-3.7
			c-0.7-1.2-1.4-2.4-2-3.6c-1.1-2.2-2.5-2.9-5.4-2.2c-3.5,0.7-6.1,4-5.9,7.4c0,0.6,0,1.2-0.2,1.8c-0.2,0.5-0.6,0.8-1.1,0.9
			c-0.8,0.2-1.3-0.3-1.2-1.2c0.1-0.6,0.2-1.1,0.3-1.7c0,0,0-0.1-0.1-0.1c-0.9,0.3-1.8,0.6-2.7,0.9s-1.8,0.5-2.8,0.6
			c0.4-1.1,1.2-1.5,2.3-1.6c-0.3-0.5-0.6-0.9-0.8-1.4c-0.3-0.8-0.1-1.5,0.4-2c0.4-0.3,0.8-0.3,1.1,0.1c0.4,0.4,0.7,0.9,1,1.4
			c0.2,0.3,0.3,0.4,0.6,0.1c1.8-1.6,3.5-3.3,5.1-5.2c0.3-0.4,0.2-0.6-0.1-0.8c-0.4-0.3-0.9-0.4-1.4-0.4c-1.7-0.2-3.3-0.3-5-0.5
			c-1.6-0.1-2.9,0.4-3.8,1.8c-0.7,0.9-1.2,1.9-1.9,2.8c-0.5,0.6-0.6,0.6-1.2,0c-0.2-0.3-0.4-0.5-0.5-0.8c-0.1-0.5-0.4-0.5-0.8-0.3
			c-0.4,0.2-0.9,0.4-1.3,0.6C41,94,40.4,93.8,39.7,93c0-0.2,0-0.4,0-0.5c0.4-0.5,0.9-0.8,1.4-1.1c1.3-0.7,2.7-1.3,3.9-2.2
			c0.4-0.3,0.8-0.7,0.6-1.3c-0.1-0.6-0.6-0.8-1.2-0.9c-0.5-0.1-1-0.1-1.5-0.1s-1-0.1-1.4-0.4c-0.4-0.4-0.4-0.7,0-1
			c0.5-0.4,1.1-0.6,1.7-0.7c0.9-0.2,1-0.2,0.5-1c-0.3-0.6-0.1-0.9,0.4-1.2c0.9-0.5,1.8-0.1,2.2,0.9c0.3,0.8,0.6,1.5,1.2,2
			c1,0.9,2.3,0.8,3.2,0c0.5-0.6,0.7-1.3,0.3-1.9c-0.4-0.7-1.1-1-1.9-0.7c-0.4,0.2-0.7,0-0.9-0.3c-0.5-0.5-0.6-1.5-0.1-2
			c0.4-0.5,0.4-0.9,0.3-1.4c-0.2-0.5,0-0.7,0.6-0.6s1,0.5,1.4,0.9s0.9,0.7,1.4,0.8c0.3,0,0.7,0,0.9-0.3s0.1-0.7-0.1-0.9
			c-0.3-0.3-0.6-0.6-0.8-0.9c-0.3-0.4-0.5-0.8-0.1-1.2c0.7-0.8,1.5-1.7,2.4-2.3c0.3-0.3,0.8-0.4,1.2-0.1s0.5,0.7,0.5,1.2
			c0,0.4-0.2,0.7-0.4,1c-0.3,0.4-0.7,0.8-1,1.1c-0.4,0.5-0.6,1-0.5,1.6s0.4,0.8,1,0.7c0.9-0.3,1.7-0.8,2.6-1.2l0,0
			c0.1,0.3-0.1,0.6-0.2,0.9c-0.4,0.7-0.8,1.4-1.2,2.1c-1.2,2.1-0.8,3.7,1.3,5c0.3,0.2,0.7,0.4,1.1,0.5c1.5,0.7,3.1,1.1,4.7,1.4
			c2.1,0.4,3-0.5,2.7-2.6c0-0.1,0-0.1,0-0.2c-0.3-1.4-0.7-2.9-1.3-4.2c-0.7-1.7-1.6-3.3-3.2-4.4c-0.2-0.2-0.6-0.2-0.6-0.5
			c0-0.4,0.4-0.5,0.8-0.6c0.4-0.1,0.7-0.2,1.1-0.1c0.8,0.2,0.8,0.2,0.9-0.6c0.1-0.5,0.1-1,0.8-1c0.5,0,1.1,0.4,1.2,1
			c0.1,0.5,0.1,1,0,1.4s-0.1,0.9-0.1,1.3c0.1,0.8,0.5,1.3,1.1,1.4s1.2-0.4,1.4-1.2c0.2-0.7-0.1-1.4-0.4-2c-0.5-0.8-1-1.6-1.3-2.6
			c-0.3-1.3-0.3-2.5,0.4-3.6c0.5-0.7,1.1-0.7,1.5,0.1c0.1,0.3,0.2,0.6,0.2,0.9s0,0.7,0,1c0,0.2,0,0.4,0.2,0.4s0.3-0.1,0.4-0.2
			c0.3-0.3,0.4-0.7,0.4-1.1s0-0.9-0.1-1.3c-0.1-1.2-0.5-2.5-0.3-3.8c0.1-1.3,0.6-2.4,1.9-3c0.4-0.2,0.6-0.1,0.6,0.3
			c0,0.3,0,0.5,0,0.8c0.1,0,0.2,0,0.2,0c1-1.3,2.4-2.2,3.9-2.9C75.7,60.9,75.8,60.9,75.8,60.9z"/>
		<path class="st2" d="M49.2,139c-0.1-0.2,0-0.3,0.1-0.4c3-3,6-6,9-9c0.5-0.5,0.9-0.6,1.5-0.3c0.3,0.2,0.6,0.2,0.8,0.4
			c-0.1,0.3-0.3,0.4-0.5,0.6c-2.7,2.7-5.3,5.3-8,8c-0.4,0.5-0.9,0.8-1.5,0.7c-0.1,0-0.3-0.1-0.4,0.1C49.9,139,49.5,139,49.2,139z"/>
		<path class="st2" d="M116.1,123.5c0.3,0.4,0.1,0.5-0.3,0.5c-3.2,0-6.4,0.3-9.7,0.6c-3.4,0.3-6.8,0.6-10.2,1.3
			c-0.2,0.1-0.5,0.1-0.6-0.2c-0.6-1.6-1.4-3.2-1.7-4.9c-0.4-1.7,0-3.3,1.2-4.6c0.8-0.9,1.7-1.7,2.4-2.6c1.9-2.3,1.9-6.2,0.1-8.6
			c-1.3-1.7-0.7-3.6,1.4-4.2c1.6-0.5,3.2-0.3,4.8,0.1c3.5,0.8,6.6,2.4,9.6,4.3c0,0,0.1,0.1,0.1,0.2c-0.7,0.3-1.4,0.6-2.1,0.9
			c-0.3,0.1-0.5,0.3-0.5,0.6c-0.6,2.7-1.4,5.4-2.4,8c0,0,0,0.1,0,0.2c0.3,0,0.4-0.3,0.5-0.5c1.2-1.8,2.1-3.8,3-5.8
			c0.4-0.9,0.9-1.3,1.9-1.3c1.1,0,2.2-0.2,3.3-0.4c0.4-0.1,0.7,0,1,0.2c2.4,1.5,3.8,3.8,4.8,6.3c1.4,3.3,2,6.9,2.5,10.4
			c0.1,0.4-0.1,0.5-0.5,0.4c-2.1-0.3-4.2-0.4-6.3-0.4C117.8,123.9,116.9,124,116.1,123.5C116.2,123.4,116.1,123.4,116.1,123.5
			C116,123.4,116.1,123.5,116.1,123.5z"/>
		<path class="st2" d="M144.4,97.6c0,0.8-0.3,1.4-1,1.8c-1.1,0.6-1.6,1.6-1.5,2.9c0,0.8-0.3,1.5-0.8,2.1c-0.6,0.7-1.1,1.4-0.8,2.4
			c0.1,0.4-0.1,0.7-0.5,0.9c-0.6,0.3-0.9,0.8-0.8,1.5c0.1,0.6-0.2,1-0.8,1.1c-0.5,0.2-0.9,0.4-1,1c-0.2,1.4-1.3,1.9-2.4,2.4
			c-0.3,0.2-0.7,0.2-1.1,0.3c-1.4,0.2-2.4,1.2-3.5,1.9c-0.4,0.3-0.5,0.9-0.7,1.4c-0.4,1.1-0.7,2.2-1.3,3.3c-0.1,0.2-0.2,0.3-0.4,0.6
			c-0.3-1.2-0.5-2.4-0.7-3.5c-0.5-2.2-1.1-4.3-2.1-6.3c-0.2-0.4-0.1-0.6,0.2-0.9c0.6-0.4,1.1-0.8,1.6-1.1c1-0.8,1.5-1.8,1.5-3.1
			c0-0.2,0-0.5,0-0.7c-0.2-1.9,0.2-3.6,1.2-5.2c0.2-0.3,0.3-0.6,0.1-0.9c0-0.1-0.1-0.2,0-0.3c0.3-1-0.2-1.7-0.8-2.4
			c-0.4-0.5-0.6-1.1-0.6-1.7c0-1.1-0.4-2-1.4-2.5c-0.6-0.4-0.9-0.9-0.9-1.6c0-0.1,0-0.2,0-0.2c0.2,0,0.4,0,0.7,0
			c0.5,0,0.8,0.3,0.9,0.7c0,0.2,0.1,0.4,0.2,0.6c0.2,0.4,0.5,0.5,0.9,0.6c0.3,0,0.3-0.3,0.4-0.5c1-1.8,1.2-2.3-0.5-4.1
			c-0.5-0.5-0.5-1.2-0.1-1.7c1-1.4,0.9-2.7-0.2-4c-0.6-0.6-0.5-1.4,0-2c1.2-1.2,1.3-2.5,0.5-4c-0.4-0.7-0.2-1.5,0.5-1.9
			c1.5-0.9,2-2.1,1.6-3.8c-0.2-0.7,0.2-1.3,0.9-1.6c0.5-0.2,1.1-0.4,1.6-0.7c0,0.2,0,0.4,0.1,0.6c0.4,1.4,0,2.4-1.3,3.1
			c-1,0.5-1.1,1.1-0.6,2c0.6,1.2,0.6,2.3,0.1,3.4c-1.2,2.5-1,4.9,0.7,7.1c0.9,1.2,1.2,2.7,0.9,4.2c0.3-0.2,0.5-0.4,0.8-0.5
			c0.5-0.2,0.7-0.5,0.6-1c-0.1-0.6,0.2-1,0.8-1.1c0.4-0.1,0.7-0.3,0.8-0.8c0.1-0.8,0.5-1.1,1.2-1c0.2,0,0.3-0.1,0.5-0.1
			c0,1.1-0.6,1.7-1.4,2.2c-0.7,0.4-0.9,1.1-0.9,1.9c0,1-0.3,1.7-0.9,2.5c-0.9,1-0.8,2,0,3c0.5,0.6,0.6,1.1,0.3,1.8
			c-0.9,2.1-1.1,2.2,0.4,4.2c0.5,0.6,0.5,1.3,0,1.9c-1.2,1.4-1.4,2.9-0.5,4.5c0.2,0.4,0.2,0.9,0.1,1.4c-0.1,0.5-0.3,1.1-0.4,1.6
			c0.1,0.1,0.2,0.1,0.3,0c0.4-0.6,1-1,1.6-1.3c0.9-0.4,1.3-1.1,1.4-2c0.1-0.8,0.3-1.5,1.2-1.9c0.5-0.2,0.5-0.6,0.4-1
			c-0.1-0.6,0.1-1.1,0.7-1.3c0.5-0.2,0.7-0.6,0.7-1.1c-0.1-0.7,0.2-1.2,1-1.3c0.4-0.1,0.7-0.4,0.8-0.8c0.3-1.1,0.3-1.1,1.4-1.2
			c0.1,0,0.2,0,0.3-0.1C144.4,97.4,144.4,97.5,144.4,97.6z"/>
		<path class="st2" d="M160,97.3c-0.1,0.2-0.2,0.3-0.3,0.4c-0.7,1.3-1.8,1.8-3.3,1.4c-0.9-0.3-1.5,0-1.7,1c-0.4,1.4-1.3,2.1-2.5,2.7
			c-0.1,0.1-0.3,0.1-0.4,0.2c-2.1,0.8-3.4,2.3-3.7,4.6c-0.3,2.1-1.4,3.6-3.1,4.8c-0.4,0.3-0.7,0.6-1,0.9c-0.7,0.6-1,1.4-0.9,2.3
			c0,0.3,0,0.5,0,0.8c0,0.8-0.4,1.4-1.2,1.6c-1.7,0.4-2.5,1.4-2.5,3.2c0,0.8-0.5,1.3-1.3,1.5c-2.1,0.4-2.6,0.3-3.6,3
			c-0.1,0.3-0.3,0.6-0.6,0.7c-1.2,0.7-2.4,1.5-3.8,1.9c-0.3,0.1-0.5,0.3-0.7,0.5c-2.9,2.9-5.8,5.8-8.7,8.7c-0.5,0.5-1,0.8-1.8,0.7
			c-0.4,0-0.8,0-1.3,0c-0.1-0.2,0.1-0.3,0.3-0.4c3.2-3.2,6.3-6.3,9.5-9.5c0.3-0.3,0.6-0.5,1-0.4c0.3,0.1,0.4,0,0.3-0.3
			c-0.2-1.7-0.4-3.4-0.6-5.1c-0.1-0.4,0-0.7,0.5-0.8c0.8-0.2,1.3-0.8,1.8-1.4c1.2-1.4,2.6-2.4,4.4-2.8c1.8-0.4,3-1.5,3.6-3.4
			c0.1-0.3,0.2-0.6,0.3-0.9c0.4-1.3,1.2-2.1,2.5-2.4c1.2-0.3,1.4-0.7,1.5-1.9c0-0.3,0.1-0.7,0.1-1c0.1-0.7,0.4-1.1,1.1-1.3
			c2.1-0.6,2.3-0.6,2.7-3c0.1-0.8,0.6-1.3,1.4-1.3c1.7,0,2.7-0.9,3.2-2.5c0.3-0.9,0.8-1.1,1.8-1c0.1,0,0.3,0,0.4,0
			c1.3,0.4,2.2-0.2,3-1.2c0.8-1.1,1.3-1.2,2.6-0.6C159.3,97,159.6,97.1,160,97.3z"/>
		<path class="st2" d="M126,90.7c0,0.1,0,0.2,0,0.2c-0.2-0.2-0.4-0.3-0.6-0.3c-0.5,0-1-0.1-1.2-0.7c-0.1-0.2-0.2-0.2-0.3,0
			c-0.8,0.7-0.9,1.3-0.5,2.3c0.5,1.1,0.5,1.2-0.3,2c-0.7,0.8-0.8,1-0.4,1.9c0.3,0.7,0.4,1.4-0.1,2c-1.2,1.7-1.2,3.5-0.2,5.3
			c0.6,1.1,0.1,2.3,0.1,3.5c-0.3,0-0.4-0.2-0.5-0.4c-1-1-2.1-1.9-3.4-2.5c-1.1-0.6-1.3-1.5-0.5-2.4c0.7-0.7,0.9-1.5,0.4-2.4
			c-0.3-0.7-0.1-1.2,0.4-1.7c0.7-0.6,0.8-1.8,0.2-2.6c-0.2-0.2-0.3-0.4-0.5-0.6c-0.5-0.5-0.7-1.1-0.7-1.8c0-1.1-0.4-2-1.3-2.5
			c-0.6-0.4-0.9-0.9-0.9-1.6c0-0.1,0-0.2,0.1-0.3c0.2,0,0.4,0.1,0.7,0.1c0.5,0,0.8,0.2,0.8,0.7c0.1,0.6,0.4,1,1,1.2
			c0.5,0.1,0.6,0.5,0.7,0.9c0,0.8,0.4,1.3,1.1,1.5c0.2,0.1,0.2-0.1,0.3-0.2c0.4-0.7,0.8-1.3,1.2-1.9c0.6-0.8,0.7-1.7,0.5-2.7
			c-0.1-0.4-0.2-0.7-0.3-1.1c-0.3-0.9-0.4-1.8,0.2-2.6c0.3-0.5,0.3-1-0.2-1.3c-1.1-0.7-1.3-1.6-0.8-2.7c0.2,0.1,0.5,0.2,0.7,0.3
			c0.9,0.4,1.1,0.7,0.8,1.7c-0.2,0.9,0,1.6,0.7,2.1c0.8,0.7,0.9,1,0.3,1.9c-0.5,0.8-0.5,1.5,0.1,2.2c0.1,0.1,0.2,0.3,0.2,0.4
			c0.1,0.5,0.2,1.2,1.1,0.9c0.2-0.1,0.4,0.3,0.5,0.5C125.6,90.2,125.7,90.5,126,90.7z"/>
		<path class="st2" d="M115.5,126.8c-0.2,0.2-0.4,0.4-0.5,0.6c-3.4,3.4-6.8,6.8-10.2,10.2c-0.5,0.5-0.9,0.7-1.6,0.6
			c-0.5,0-0.9,0-1.4,0c0-0.3,0.2-0.3,0.3-0.4c3.5-3.5,7-7,10.5-10.5c0.3-0.3,0.6-0.4,1-0.4C114.2,126.9,114.8,126.8,115.5,126.8z"/>
		<path class="st2" d="M107,138.2c0.1-0.3,0.3-0.5,0.5-0.6c3.4-3.4,6.7-6.7,10.1-10.1c0.5-0.5,1-0.8,1.7-0.7c0.4,0.1,0.8,0,1.2,0
			c-0.1,0.4-0.3,0.5-0.5,0.7c-3.4,3.4-6.8,6.7-10.1,10.1c-0.4,0.4-0.9,0.7-1.5,0.6C108,138.1,107.5,138.2,107,138.2z"/>
		<path class="st2" d="M110,127.1c-0.1,0.3-0.3,0.4-0.4,0.6c-3.3,3.3-6.7,6.6-10,10c-0.5,0.5-0.9,0.8-1.6,0.7c-0.5,0-0.9,0-1.5,0
			c0.7-0.7,1.2-1.3,1.8-1.8c2.9-2.9,5.8-5.8,8.7-8.7c0.4-0.4,0.7-0.6,1.3-0.6C108.8,127.2,109.3,127.1,110,127.1z"/>
		<path class="st2" d="M125.3,127.2c-0.1,0.3-0.3,0.4-0.4,0.6c-3.2,3.2-6.4,6.4-9.6,9.7c-0.4,0.4-0.9,0.7-1.5,0.6c-0.5,0-1,0-1.4,0
			c0-0.3,0.2-0.3,0.3-0.5c3.4-3.4,6.8-6.8,10.3-10.3c0.3-0.3,0.6-0.4,1-0.3C124.3,127.1,124.8,127.2,125.3,127.2z"/>
		<path class="st2" d="M104.3,127.7c-1.2,1.2-2.5,2.5-3.7,3.7c-2.1,2.1-4.2,4.2-6.3,6.3c-0.4,0.4-0.8,0.7-1.4,0.6c-0.5,0-1,0-1.5,0
			c-0.1-0.2,0.1-0.3,0.2-0.4c3.3-3.3,6.5-6.5,9.8-9.8c0.2-0.2,0.5-0.4,0.9-0.4c0.7,0,1.3-0.1,2-0.2
			C104.3,127.6,104.3,127.7,104.3,127.7z"/>
		<path class="st2" d="M86,138.2c0.3-0.2,0.6-0.4,0.8-0.7c2.7-2.7,5.4-5.4,8.1-8.1c0.5-0.5,1-0.8,1.8-0.9c0.6-0.1,1.2-0.3,1.8-0.3
			c0,0.3-0.3,0.4-0.4,0.6c-3,3-5.9,5.9-8.9,8.9c-0.5,0.5-1,0.7-1.7,0.7c-0.4,0-0.9,0-1.3,0C86.1,138.4,86,138.3,86,138.2z"/>
		<path class="st2" d="M133.6,129.4c-1.5,1.5-2.9,2.9-4.3,4.3c-1.2,1.2-2.5,2.5-3.7,3.7c-0.4,0.4-0.7,0.5-1.2,0.5s-1,0-1.7,0
			c0.2-0.3,0.4-0.4,0.5-0.6c2.7-2.7,5.4-5.4,8.1-8.1c0.4-0.5,0.8-0.6,1.4-0.3C132.9,129.2,133.2,129.3,133.6,129.4z"/>
		<path class="st2" d="M56.6,128.4c-3.4,3.4-6.8,6.8-10.1,10.1c-0.1-1.1-0.2-2.2,0.8-3.1c2.1-2,4.1-4,6.1-6.1c0.7-0.7,1.4-1,2.3-1
			C56,128.4,56.3,128.4,56.6,128.4z"/>
		<path class="st2" d="M54.4,138.8c0-0.3,0.3-0.4,0.4-0.6c2.4-2.4,4.8-4.8,7.2-7.2c0.5-0.5,0.8-0.6,1.4-0.3c1,0.4,1,0.4,0.2,1.1
			c-2.1,2.1-4.2,4.2-6.3,6.3c-0.4,0.5-0.9,0.7-1.5,0.6C55.4,138.8,54.9,138.8,54.4,138.8z"/>
		<path class="st2" d="M91.6,130.1c-1,1-2,2-3,3c-1.6,1.6-3.2,3.2-4.8,4.8c-0.4,0.4-0.8,0.6-1.4,0.6c-0.5,0-1,0-1.6,0
			c0.2-0.3,0.4-0.4,0.5-0.6c2.1-2.1,4.2-4.2,6.3-6.3c0.3-0.3,0.7-0.5,1.1-0.7c0.9-0.3,1.8-0.6,2.7-0.9
			C91.5,130,91.6,130.1,91.6,130.1z"/>
		<path class="st2" d="M127.8,137.9c1-1,1.9-1.9,2.8-2.8c1.4-1.4,2.9-2.8,4.3-4.3c0.4-0.5,0.8-0.5,1.3-0.2c0.9,0.5,0.9,0.5,0.2,1.2
			c-1.8,1.8-3.6,3.6-5.4,5.4c-0.5,0.5-0.9,0.8-1.6,0.7C128.9,137.9,128.4,137.9,127.8,137.9z"/>
		<path class="st2" d="M68.4,132.2c-0.1,0.3-0.3,0.4-0.4,0.5c-1.8,1.8-3.6,3.6-5.4,5.4c-0.4,0.5-0.9,0.7-1.5,0.6c-0.5,0-1,0-1.5,0
			c0.1-0.3,0.3-0.4,0.4-0.5c2-2,4-4,6-6c0.4-0.4,0.7-0.5,1.2-0.3C67.5,132,67.9,132.1,68.4,132.2z"/>
		<path class="st2" d="M73,132.9c-1.1,1-2,2-3,3c-0.5,0.5-1.1,0.9-1.5,1.5c-0.9,1.3-2.2,1.5-3.6,1.3c-0.1-0.2,0.2-0.3,0.3-0.4
			c1.7-1.7,3.5-3.5,5.2-5.2c0.3-0.3,0.6-0.4,1-0.3C71.8,132.8,72.3,132.8,73,132.9z"/>
		<path class="st2" d="M84.2,132.4c-0.7,0.7-1.4,1.3-2,2c-1.2,1.2-2.4,2.4-3.6,3.7c-0.4,0.4-0.8,0.6-1.3,0.6s-1,0-1.5,0
			c-0.1-0.2,0.1-0.3,0.3-0.4c1.7-1.7,3.4-3.4,5.1-5.1c0.2-0.2,0.5-0.4,0.8-0.4c0.8-0.1,1.5-0.3,2.3-0.4
			C84.1,132.3,84.2,132.3,84.2,132.4z"/>
		<path class="st2" d="M78,133c-1.9,1.9-3.6,3.6-5.3,5.3c-0.2,0.2-0.3,0.3-0.6,0.3c-0.7,0-1.3,0-2,0c0-0.3,0.2-0.3,0.3-0.5
			c1.5-1.6,3.1-3.1,4.6-4.7c0.3-0.3,0.7-0.5,1.2-0.5C76.7,133.1,77.3,133,78,133z"/>
		<path class="st2" d="M133.1,137.7c1.5-1.5,3-3,4.5-4.5c0.1-0.1,0.2-0.2,0.3-0.3c1-1,1-1,2.1-0.1c0.2,0.2,0.2,0.3,0,0.4
			c-1.5,1.5-2.9,2.9-4.4,4.4c-0.1,0.1-0.2,0.2-0.4,0.2C134.5,137.8,133.8,137.8,133.1,137.7C133.2,137.8,133.2,137.7,133.1,137.7z"
			/>
		<path class="st2" d="M138.2,137.7c1.3-1.3,2.4-2.4,3.6-3.6c0.1-0.1,0.3-0.2,0.5-0.1c1.4,0.6,1.5,0.7,0.3,1.8
			c-0.2,0.2-0.4,0.4-0.6,0.6C140.6,137.9,140.6,137.9,138.2,137.7z"/>
		<path class="st2" d="M147,136.5c-0.8,1.6-2.1,1.2-3.6,1.2c0.7-0.7,1.2-1.2,1.8-1.7c0.2-0.2,0.3-0.1,0.5,0
			C146.1,136.1,146.6,136.3,147,136.5z"/>
		<path class="st2" d="M144.4,97.6c0-0.1,0-0.2-0.1-0.3c0.3-0.2,0.5-0.6,0.7-0.9c0.3-0.5,1-0.7,1.5-0.4c0.1,0.1,0.1,0.1,0.1,0.3
			c-0.2,0.5-0.4,1-1.1,0.9C145.1,97.2,144.7,97.2,144.4,97.6z"/>
		<path class="st2" d="M115.7,88.1c0,0.1,0,0.2-0.1,0.3c-0.2-0.3-0.5-0.3-0.8-0.3c-0.2,0-0.4,0-0.6-0.1c-0.3-0.2-0.5-0.5-0.5-0.8
			c0-0.2,0.2-0.1,0.3-0.2c0.3-0.1,0.7-0.2,1,0.2C115.2,87.5,115.3,87.9,115.7,88.1z"/>
		<path class="st2" d="M138,84.3c0.3-1.1,0.7-1.3,1.5-1c0.2,0.1,0.2,0.1,0.2,0.4C139.4,84.3,139.1,84.5,138,84.3z"/>
		<path class="st2" d="M81.8,78.5C81.8,78.5,81.8,78.6,81.8,78.5C81.7,78.6,81.8,78.5,81.8,78.5L81.8,78.5z"/>
		<path class="st2" d="M57.8,78.3C57.8,78.2,57.8,78.2,57.8,78.3C57.8,78.2,57.8,78.2,57.8,78.3L57.8,78.3z"/>
		<path class="st2" d="M116.1,123.5C116.1,123.5,116,123.4,116.1,123.5C116.1,123.4,116.2,123.4,116.1,123.5
			C116.2,123.5,116.2,123.5,116.1,123.5z"/>
	</g>
</g>
<image style="overflow:visible;" width="74" height="72" xlink:href="FB1A0442.jpg"  transform="matrix(1 0 0 1 247.6471 104.8235)">
</image>
</svg>
