<?xml version="1.0" encoding="utf-8"?>
<!-- Generator: Adobe Illustrator 28.2.0, SVG Export Plug-In . SVG Version: 6.00 Build 0)  -->
<svg version="1.1" id="Layer_1" xmlns="http://www.w3.org/2000/svg" xmlns:xlink="http://www.w3.org/1999/xlink" x="0px" y="0px"
	 viewBox="0 0 200 200" style="enable-background:new 0 0 200 200;" xml:space="preserve">
<style type="text/css">
	.st0{fill:#8AC24A;}
	.st1{fill:none;stroke:#8AC24A;stroke-width:3;stroke-miterlimit:10;}
	.st2{fill:#FFFFFF;}
</style>
<circle class="st0" cx="100" cy="100" r="91.1"/>
<circle class="st1" cx="100" cy="100" r="98.5"/>
<g>
	<path class="st2" d="M106.2,40.1c1.6,1,2.1,2.4,2,4.3c-0.1,3.1,1,5.9,1.8,8.8c0.1,0.6,0.3,1.1,0.5,1.7c0.3,1.2,1,1.9,2.3,2
		c0.1-1,0.1-2.1,0.3-3.1c1.3-5.3,6.3-8.8,11.6-8c5.4,0.8,9.3,5.5,8.9,11.1c-0.3,5.2-4.7,9.5-10,9.7c-2,0.1-3.7-0.5-5.4-1.4
		c-3.7-2.1-7.4-1.9-10.7,0.6c-3.4,2.5-4.8,5.9-4.2,10c0.1,0.7,0.3,1.5,0.5,2.2c0.2,0.8,0,1-0.8,1c-2.9,0-5.7,0.1-8.7,0.3
		c-6.7,0.3-13.3,0.6-20,0.9c-2.3,0.1-4.3,0.8-6,2.3c-0.7,0.6-0.9,0.4-1-0.4c-1.2-5.5,0.2-10.4,3.2-15.1c2.5-3.8,5.5-7.1,8.4-10.5
		c1.8-2.2,3.4-4.5,5.7-6.3c2.7-2.1,5.7-3.2,9.1-3.5c0.6-0.1,1.2-0.1,1.8-0.1c2.4,0,4.3-0.3,5.8-2.7c1.1-1.9,3.3-2.8,5-3.8
		C106.1,40.1,106.2,40.1,106.2,40.1z"/>
	<path class="st2" d="M77.9,135.9c1.3,1.1,2.5,2.1,3.6,3.1c1.4,1.1,3,1.1,3.8-0.1c1-1.3,0.8-2.7-0.6-3.8c-1.3-1.1-2.6-2.2-3.9-3.3
		c-0.5-0.4-0.7-0.7-0.3-1.4c0.9-1.4,0.5-3.1,0.7-4.6c0.4-5.2,0.8-10.5,1.1-15.8c0-0.4,0-0.8-0.2-1.2c-1.3-2.5-1.1-5.1-1.1-7.7
		c0-0.9,0.5-0.8,1.1-0.8c3.5-0.2,7.1-0.2,10.5-0.5c2.6-0.2,5.1,0,7.6-0.3c0.7-0.1,1.2,0.1,1,0.9c-0.5,2.7,0.7,4.4,2.6,6.1
		c1.5,1.3,2.7,2.9,4.1,4.4c-0.6,0-1,0-1.4,0c-1.5,0-2.6,1.1-2.6,2.5s1,2.6,2.5,2.7c1.8,0.1,3.5,0.1,5.3,0.1c0.8,0,1.5,0.3,2,0.9
		c0.4,0.6,0.9,1,1.4,1.5c1.6,1.6,2.4,3.4,2.3,5.7c-0.1,4.2,0,8.5,0,12.8c-0.6,0-1-0.4-1.5-0.7c-1.4-0.7-2.9-0.3-3.5,1
		c-0.7,1.2-0.3,2.7,1,3.4c1.1,0.7,2.3,1.4,3.3,2c0.5,0.3,0.7,0.6,0.7,1.3c0,3.2,0,6.2,0,9.4c0,3.3-2.7,6-5.9,6s-5.8-2.7-5.9-6
		c0-8.7,0-17.4,0-26.1c0-1.1-0.2-1.8-1-2.6c-3.2-3.3-6.3-6.7-9.4-10c-0.3-0.3-0.5-0.8-1.1-0.6c-0.6,0.2-0.5,0.8-0.5,1.3
		c-0.4,5.3-0.7,10.6-1.1,16c-0.1,0.9-0.2,1.7-0.6,2.5c-4.1,8.3-8.3,16.4-12.5,24.7c-1.7,3.2-5.1,4.2-8,2.7c-3-1.6-3.9-4.9-2.4-8.2
		c2.7-5.4,5.4-10.7,8.2-16.2C77.6,136.4,77.7,136.1,77.9,135.9z"/>
	<path class="st2" d="M112,93.9c-1.5,0-3,0-4.5,0c-0.6,0-1-0.2-1.5-0.4c-1.2-0.6-2.3-1.2-3.4-1.8c-1.6-0.7-3.2,0-3.6,1.7
		c-0.2,0.7-0.5,0.9-1.2,0.9c-7.6,0.4-15.3,0.8-22.9,1.2c-3,0.1-5.3-2.1-5.4-4.8c-0.1-2.8,2-5,4.8-5.2c5.8-0.3,11.6-0.6,17.4-0.8
		c5.6-0.3,11.3-0.5,16.9-0.8c1.6-0.1,1.6-0.1,1.2-1.6c-0.6-2.4-1.2-4.7-1.8-7.1c-0.6-2.8,1-5.3,3.5-6c2.8-0.7,5.4,0.8,6.1,3.5
		c1.3,4.8,2.5,9.8,3.6,14.6c0.8,3.3-1.5,6-4.9,6.2c-1.6,0.1-3.1,0-4.6,0C112,93.7,112,93.8,112,93.9z"/>
	<path class="st2" d="M129.2,71.1c0.9,0.7,1.8,1.1,2.7,1.6c1,0.5,1.6,1.3,1.7,2.4c0.1,0.8-0.1,1.6-0.8,2c-0.8,0.5-1.5,0.3-2.2-0.2
		c-0.8-0.6-1.3-1.3-1.4-2.4C129.2,73.4,129.2,72.3,129.2,71.1z"/>
	<path class="st2" d="M135.1,54.2c1.2,0.5,2.3,0.7,3.3,0.9c1.4,0.4,2.4,1.6,2.3,2.8c0,0.9-0.6,1.5-1.5,1.7c-1.3,0.2-2.6-0.7-3.1-2.1
		C135.7,56.5,135.5,55.5,135.1,54.2z"/>
</g>
</svg>
