<?xml version="1.0" encoding="utf-8"?>
<!-- Generator: Adobe Illustrator 28.2.0, SVG Export Plug-In . SVG Version: 6.00 Build 0)  -->
<svg version="1.1" id="Layer_1" xmlns="http://www.w3.org/2000/svg" xmlns:xlink="http://www.w3.org/1999/xlink" x="0px" y="0px"
	 viewBox="0 0 200 200" style="enable-background:new 0 0 200 200;" xml:space="preserve">
<style type="text/css">
	.st0{fill:#FFFFFF;}
	.st1{fill:none;stroke:#F36E46;stroke-width:3;stroke-miterlimit:10;}
	.st2{fill:#F36E46;}
</style>
<circle class="st0" cx="100" cy="100.5" r="91.1"/>
<circle class="st1" cx="100" cy="100.5" r="98.5"/>
<g>
	<path class="st2" d="M60,90.1c0.6-7.3,3.5-13.7,8.4-19.1c11.5-12.6,30.4-14.5,44.3-4.3c0.5,0.3,0.7,0.3,1.1-0.1
		c3.9-3.9,7.8-7.8,11.6-11.7c0.1-0.1,0.3-0.2,0.3-0.5c-0.3,0-0.5,0-0.7,0c-3.6,0-7.2,0-10.8,0c-0.3,0-0.7,0.1-0.7-0.5
		c0-2.6,0-5.1,0-7.7c2.9,0,5.9,0,8.8,0c5.8,0,11.6,0,17.5,0c0,8.8,0,17.6,0,26.4c-2.5,0-4.9,0-7.4,0c-0.6,0-0.7-0.2-0.7-0.7
		c0-3.6,0-7.2,0-10.8c0-0.2,0.1-0.5-0.1-0.8c-0.2,0.1-0.3,0.3-0.4,0.4c-3.8,3.8-7.7,7.7-11.6,11.5c-0.4,0.4-0.4,0.7-0.1,1.2
		c5.4,7.3,7.4,15.5,6.1,24.5c-2.2,14.7-13.2,25.7-27.9,28c-0.5,0.1-0.7,0.3-0.7,0.8c0,2.6,0,5.2,0,7.8c0,0.6,0.2,0.8,0.8,0.8
		c3.4,0,6.8,0,10.2,0c0.6,0,0.7,0.2,0.7,0.7c0,2.2,0,4.5,0,6.7c0,0.6-0.2,0.8-0.8,0.8c-3.4,0-6.8,0-10.2,0c-0.5,0-0.8,0.1-0.8,0.7
		c0,3.2,0,6.4,0,9.6c-2.7,0-5.4,0-8.1,0c0-3.1,0-6.3,0-9.4c0-0.7-0.1-1-1-1c-3.4,0.1-6.7,0-10.1,0c-0.6,0-0.8-0.2-0.8-0.8
		c0-2.2,0-4.4,0-6.6c0-0.7,0.2-0.8,0.8-0.8c3.4,0,6.8,0,10.2,0c0.7,0,0.8-0.2,0.8-0.8c0-2.6,0-5.1,0-7.7c0-0.6-0.2-0.8-0.8-0.9
		c-15-2.2-26.6-14.3-28.1-29.4 M93,68.3c-13.7,0-24.9,11.1-25,24.8c-0.1,13.6,11.1,25,24.6,25c13.9,0,25.2-11,25.2-24.6
		C117.9,79.5,106.9,68.4,93,68.3z"/>
	<path class="st2" d="M113.5,46.2c0-0.1,0-0.1,0-0.2c8.6,0,17.2,0,25.9,0c0.2,0,0.5-0.2,0.6,0.1c-0.1,0-0.1,0-0.2,0
		c-5.8,0-11.6,0-17.5,0C119.4,46.2,116.5,46.2,113.5,46.2z"/>
	<path class="st2" d="M139.8,46.2c0.1,0,0.1,0,0.2,0c0,8.8,0,17.7,0,26.5c-0.1,0-0.1,0-0.2,0C139.8,63.8,139.8,55,139.8,46.2z"/>
	<path class="st2" d="M88.9,154c0-0.1,0-0.1,0-0.2c2.7,0,5.4,0,8.1,0c0,0.1,0,0.1,0,0.2C94.3,154,91.6,154,88.9,154z"/>
	<path class="st2" d="M93.4,83.8c4.5,0,9,0,13.5,0c0.6,0,0.8,0.1,0.8,0.8c0,1.9,0,3.7,0,5.6c0,0.6-0.2,0.7-0.7,0.7
		c-7.8,0-15.5,0-23.3,0c-1.3,0-2.7,0-4,0c-0.6,0-0.7-0.2-0.7-0.7c0-1.9,0-3.8,0-5.7c0-0.6,0.1-0.7,0.7-0.7
		C84.3,83.8,88.8,83.8,93.4,83.8z"/>
	<path class="st2" d="M93.4,95.8c4.5,0,8.9,0,13.4,0c0.7,0,0.9,0.1,0.9,0.9c-0.1,1.8,0,3.7,0,5.5c0,0.5-0.1,0.7-0.7,0.7
		c-9.1,0-18.2,0-27.3,0c-0.6,0-0.7-0.2-0.7-0.7c0-1.8,0-3.7,0-5.5c0-0.7,0.1-0.9,0.8-0.9C84.4,95.8,88.9,95.8,93.4,95.8L93.4,95.8z"
		/>
</g>
</svg>
