<?xml version="1.0" encoding="utf-8"?>
<!-- Generator: Adobe Illustrator 28.2.0, SVG Export Plug-In . SVG Version: 6.00 Build 0)  -->
<svg version="1.1" id="Layer_1" xmlns="http://www.w3.org/2000/svg" xmlns:xlink="http://www.w3.org/1999/xlink" x="0px" y="0px"
	 viewBox="0 0 200 200" style="enable-background:new 0 0 200 200;" xml:space="preserve">
<style type="text/css">
	.st0{fill:#F36E46;}
	.st1{fill:none;stroke:#F36E46;stroke-width:3;stroke-miterlimit:10;}
	.st2{fill:#FFFFFF;}
</style>
<circle class="st0" cx="100" cy="100" r="91"/>
<circle class="st1" cx="100" cy="100" r="98.5"/>
<g>
	<path class="st2" d="M139.7,105.5c-2.2,1.6-0.3,4.6-2.3,6.7c-3.5-5.2-6.4-1.9-9.7,0.6c-7.6,5.9-15.4,11.5-23.1,17.4
		c-2.2,1.7-3.6,1.7-5.4-0.4c-2.4-2.7-5.3-5.1-7.7-7.8c-2.1-2.4-3.9-2.9-6.6-0.6c-4.7,4-9.8,7.5-14.6,11.2c-5.5,4.3-5.5,4.3-10-1.1
		c4.5-5.6,11-9,16.4-13.5c3.8-3.2,7.8-8.1,11.9-8.3c4.3-0.2,7.3,6,10.7,9.5c2.2,2.2,3.6,2.6,6.2,0.5c5.9-4.8,12.1-9.3,18.3-13.8
		c3.1-2.2,5.8-4.2,1.6-8.2c5.3-0.5,9.7,0.7,14.1,1.8C139.7,101.5,139.7,103.5,139.7,105.5z"/>
	<path class="st2" d="M102.7,55.6c4.4,2.1,9.1,3.5,12.8,7.2c2.7,2.7,3.5-2.2,6.3-1.7c0,3.3,0,6.6,0,10c0,2-1.1,2.5-2.9,2.4
		c-3.1-0.1-6.3,0-9.4,0c-0.2-0.5-0.5-0.9-0.3-1.1c3.6-5.2,3.2-6.7-2.8-9.5c-9.6-4.4-20.8-0.5-25.5,9c-0.4,0.9-0.8,1.8-1.1,2.8
		c-0.9,2.5-3,1.9-4.6,1.5c-2-0.6-0.7-2.3-0.4-3.3c2.2-7.1,7-11.9,13.6-15.1c1.4-0.7,3.3-0.6,4.3-2.1C96.1,55.6,99.4,55.6,102.7,55.6
		z"/>
	<path class="st2" d="M120.7,144.4c0.1-5.6,0.5-11.3,0.2-16.8c-0.3-5.4,1.8-8.8,7.3-11.1c0,9.1,0,17.9,0,26.7
		c-2.1,0.7-4.7-0.9-6.6,1.2C121.4,144.4,121,144.4,120.7,144.4z"/>
	<path class="st2" d="M80.8,144.4c0-3.5,0.3-7-0.1-10.4c-0.6-5.3,1.7-8.4,7.1-10.4c-0.3,7.1,1.4,14-1,20.8
		C84.8,144.4,82.8,144.4,80.8,144.4z"/>
	<path class="st2" d="M107.7,144.4c0-2.7-0.1-5.3-0.1-8c0-6.1,0.2-6.4,7.1-9.7c-0.5,6.1,1.2,11.9-1.1,17.6
		C111.7,144.4,109.7,144.4,107.7,144.4z"/>
	<path class="st2" d="M94.7,144.4c-0.1-0.3-0.1-0.6-0.1-0.9c2.3-0.1,4.5-0.2,6.8-0.3c0.1,0.4,0.2,0.8,0.3,1.2
		C99.4,144.4,97.1,144.4,94.7,144.4z"/>
	<path class="st2" d="M121.7,144.4c1.9-2.1,4.4-0.5,6.6-1.2c0.1,0.4,0.3,0.8,0.4,1.2C126.4,144.4,124,144.4,121.7,144.4z"/>
	<path class="st2" d="M67.8,144.4c-0.1-0.3-0.1-0.6-0.1-0.9c2.1,0,4.1,0,6.2,0c0,0.3,0,0.6-0.1,0.9
		C71.8,144.4,69.8,144.4,67.8,144.4z"/>
	<path class="st2" d="M74.4,99.6c-0.5-0.9-0.6-1.1-0.6-1.2c0.1-14.1-2.7-12.2,12.2-11.8c0.1,0.3,0.3,0.7,0.1,0.9
		c-3.7,4.9-3.4,5.9,2.1,8.9c9.6,5.2,21.5,1.4,26.3-8.4c0.4-0.7,0.8-1.5,1-2.3c0.7-2.9,3-2.5,4.8-1.9c2.2,0.8,0.6,2.6,0.2,3.8
		C115.4,103.1,96.4,109,83,99.2C80,97,77.5,94.9,74.4,99.6z"/>
	<path class="st2" d="M101.3,73.9c-1.7-0.1-4.1-1.1-4.7,1.1c-0.6,2.3,2.1,2.6,3.6,3.3c6.5,3.2,7,7,1.2,11.2
		c-0.7,0.5-1.5,0.8-1.7,1.7c-0.1,0.3-0.1,0.7-0.2,1c-0.4,1.2-2.1,1.5-2.2,0.9c-0.7-3.4-6.3-2.1-5.9-6c0.2-2.1,2.3-1.1,3.7-0.8
		c1.6,0.3,3.7,0.8,4.4-1.1c0.9-2.5-1.7-2.8-3.2-3.5c-6.8-3.3-7.2-6.5-1.4-11.1c0.8-0.7,1.3-1.4,1.7-2.3c0.9-1.9,2.2-2.2,3,0.1
		c0.5,1.4,1.6,1.6,2.6,1.9c1.2,0.4,2.1,0.8,1.7,2.4C103.6,74.2,102.7,74.5,101.3,73.9z"/>
	<path class="st2" d="M101.4,143.2c-2.3,0.1-4.5,0.2-6.8,0.3c-1.2-4.4-0.5-8.9-0.6-13.4C100.3,132.7,101.9,135.6,101.4,143.2z"/>
	<path class="st2" d="M73.9,143.5c-2.1,0-4.1,0-6.2,0c-0.1-1-0.3-2-0.3-2.9c0.2-3.6,3.2-5.7,5.7-5.8c2.4,0,1,3.5,1.3,5.4
		C74.6,141.3,74.7,142.5,73.9,143.5z"/>
</g>
</svg>
