<?xml version="1.0" encoding="utf-8"?>
<!-- Generator: Adobe Illustrator 27.7.0, SVG Export Plug-In . SVG Version: 6.00 Build 0)  -->
<svg version="1.1" id="Layer_1" xmlns="http://www.w3.org/2000/svg" xmlns:xlink="http://www.w3.org/1999/xlink" x="0px" y="0px"
	 viewBox="0 0 200 200" style="enable-background:new 0 0 200 200;" xml:space="preserve">
<style type="text/css">
	.st0{fill:#99E1D5;}
	.st1{fill:#018D8A;}
</style>
<g id="Layer_2_00000165931235147639988050000004314027802133491886_">
	<g id="Group_46" transform="translate(-0.333 -0.333)">
		<circle id="Ellipse_37" class="st0" cx="100.2" cy="100.3" r="69"/>
	</g>
</g>
<g id="Layer_1_00000065071230560779994130000007334979693339608489_">
	<g>
		<path class="st1" d="M118.6,86.2H53.7c-1.2,0-2.1-0.9-2.1-2.1l0,0l0,0c0-1.2,0.9-2.1,2.1-2.1h64.9c1.2,0,2.1,0.9,2.1,2.1l0,0
			C120.6,85.2,119.7,86.2,118.6,86.2z"/>
		<path class="st1" d="M105.4,100H53.7c-1.2,0-2.1-0.9-2.1-2.1l0,0c0-1.2,0.9-2.1,2.1-2.1h51.7c1.2,0,2.1,0.9,2.1,2.1l0,0
			C107.5,99.1,106.5,100,105.4,100z"/>
		<path class="st1" d="M93.8,113.9H53.7c-1.2,0-2.1-0.9-2.1-2.1l0,0c0-1.2,0.9-2.1,2.1-2.1h40.1c1.2,0,2.1,0.9,2.1,2.1l0,0
			C95.9,113,94.9,113.9,93.8,113.9z"/>
		<path class="st1" d="M53.7,123.6h41.1c1.2,0,2.1,0.9,2.1,2.1l0,0c0,1.2-0.9,2.1-2.1,2.1H53.7c-1.2,0-2.1-0.9-2.1-2.1l0,0
			C51.6,124.6,52.5,123.6,53.7,123.6z"/>
		<path class="st1" d="M118.6,141.7H53.7c-1.2,0-2.1-0.9-2.1-2.1l0,0c0-1.2,0.9-2.1,2.1-2.1h64.9c1.2,0,2.1,0.9,2.1,2.1l0,0
			C120.6,140.7,119.7,141.7,118.6,141.7z"/>
		<path class="st1" d="M129.3,159.3c0,1.5-1.2,2.7-2.7,2.7H45.7c-1.5,0-2.7-1.2-2.8-2.7V61.6h22.7c2.6,0,4.7-2.1,4.8-4.8V38h56.2
			c1.5,0,2.7,1.2,2.7,2.7v49.2l3-3V40.7c0-3.2-2.6-5.8-5.8-5.8H68.9c-0.4,0-0.7,0.1-1,0.4L40.6,58.8c-0.1,0.1-0.3,0.2-0.4,0.4
			c-0.2,0.3-0.3,0.6-0.3,0.9v99.2c0,3.2,2.6,5.8,5.8,5.8h80.9c3.2,0,5.8-2.6,5.8-5.8v-54.4l-3,3L129.3,159.3z M67.4,39.8v17.1
			c0,0.9-0.8,1.7-1.7,1.7H45.5L67.4,39.8z"/>
		<path class="st1" d="M159.4,75.8l-6.9-6.9c-0.6-0.6-1.5-0.6-2.1,0l-4.5,4.5l-13.5,13.5l-3,3L108,111.2c-0.2,0.2-0.3,0.4-0.4,0.7
			l-2.6,9.5c-0.2,0.8,0.3,1.6,1.1,1.9c0.1,0,0.2,0,0.4,0.1c0.1,0,0.3,0,0.4-0.1l9.5-2.6c0.3-0.1,0.5-0.2,0.7-0.4l12.3-12.3l3-3
			L155,82.3l4.5-4.5C160,77.3,160,76.3,159.4,75.8z M132.4,100.7l-3,3.1L115.2,118l-6.6,1.8l1.8-6.6l18.9-18.9l3-3L147,76.5l4.8,4.8
			L132.4,100.7z M153.9,79.1l-4.8-4.8l2.3-2.3l4.8,4.8L153.9,79.1z"/>
	</g>
</g>
</svg>
