<?xml version="1.0" encoding="utf-8"?>
<!-- Generator: Adobe Illustrator 27.7.0, SVG Export Plug-In . SVG Version: 6.00 Build 0)  -->
<svg version="1.1" xmlns="http://www.w3.org/2000/svg" xmlns:xlink="http://www.w3.org/1999/xlink" x="0px" y="0px"
	 viewBox="0 0 200 200" style="enable-background:new 0 0 200 200;" xml:space="preserve">
<style type="text/css">
	.st0{fill:#99E1D5;}
	.st1{fill:#018D8A;}
</style>
<g id="Layer_2">
	<g id="Group_46" transform="translate(-0.333 -0.333)">
		<circle id="Ellipse_37" class="st0" cx="100.2" cy="100.3" r="69"/>
	</g>
</g>
<g id="Layer_1">
	<g>
		<path class="st1" d="M152.5,100.6c1.9-3.6,2.9-7.3,2.9-11.2c0-0.3,0-0.6,0-0.9c0-1.2-0.2-2.5-0.4-3.7c-0.2-0.9-0.4-1.8-0.7-2.7
			c-0.8-2.3-1.9-4.6-3.3-6.6c-2.8-4-6.7-7.6-11.6-10.7c-4.8-3-10.4-5.3-16.7-6.9c-13.2-3.3-27-3.3-40.2,0c-6.2,1.6-11.8,4-16.7,6.9
			c-3.8,2.4-7,5-9.6,8c-0.7,0.9-1.4,1.8-2.1,2.7c-0.3,0.5-0.6,0.9-0.9,1.4c-1,1.6-1.8,3.4-2.4,5.2c-1.6,4.7-1.6,9.8,0,14.5
			c0.8,2.3,1.9,4.6,3.3,6.6c2.8,4,6.7,7.6,11.6,10.7c3.1,1.9,6.3,3.5,9.7,4.7c2.2,0.8,4.3,1.5,6.6,2.1l0.4,0.1
			c6.6,1.7,13.3,2.5,20.1,2.5c0.4,0,0.8,0,1.2,0l21.1,21.1l-2.6-11.8c-1-4.7-1-8-0.8-10c0.1-0.6,0.1-1.2,0.2-1.6
			c3.9-0.9,7.7-2.2,11.4-3.9c0.2-0.1,0.4-0.2,0.6-0.3c1.4-0.6,2.7-1.3,3.9-2c2.6-1.4,5.1-3.1,7.3-5.1
			C148.1,107.1,150.7,104,152.5,100.6z M132.8,113.4c-1.4,0.7-2.8,1.3-4.3,1.8c-3.2,1.2-6.5,2.2-9.9,2.9c0,0-2.3,4.9,0,15.3
			L105,119.9c-0.9,0-1.7,0-2.6,0c-5.2,0-10.3-0.5-15.4-1.5c-1.8-0.4-3.5-0.8-5.2-1.3l0,0c-17-4.8-28.8-15.4-28.8-27.7
			c0-4.7,1.8-9.2,4.9-13.2c1-1.3,2.1-2.5,3.3-3.6c8.8-8.2,24-13.6,41.2-13.6c24.5,0,44.8,11,48.7,25.4c0.3,1.2,0.5,2.4,0.6,3.6
			c0,0.5,0.1,1,0.1,1.5C151.8,99.2,144.4,107.9,132.8,113.4z"/>
		<path class="st1" d="M159.5,86c0.1,0.8,0.2,1.6,0.2,2.4c0,0.4,0,0.7,0,1.1c0,0.1,0,0.2,0,0.4c2.2,0.8,4.3,1.9,6.2,3.2
			c3.5,2.6,5.5,5.8,5.5,9c0,3.6-2.3,6.4-4.3,8c-2.9,2.5-7.1,4.4-11.8,5.4l-0.9,0.2l-0.4,0.8c-0.1,0.2-0.7,1.5-0.7,4l-4.2-4.2l-0.8,0
			c-0.4,0-0.9,0-1.3,0c-1.1,0-2.2,0-3.3-0.1c-1.4,1-2.8,1.9-4.4,2.7l-0.3,0.2c2.6,0.5,5.3,0.7,8,0.7c0.2,0,0.4,0,0.6,0l10.9,10.9
			l-1.3-5.9c-0.7-3.1-0.5-5.2-0.3-6.2c4.9-1.2,9.1-3.2,12.3-5.9c3.6-3.1,5.5-6.8,5.5-10.7C175,95,168.8,88.9,159.5,86z"/>
		<path class="st1" d="M65.1,119.6c-0.7,0-1.3,0-2,0l-0.8,0l-7.4,7.4c0.3-4.9-0.7-7.3-0.9-7.7l-0.4-0.8l-0.9-0.2
			c-7.2-1.5-13.3-4.3-17.7-8.1c-4.3-3.7-6.6-8-6.6-12.5c0-8.1,7.5-15.3,18.8-19.1c0.6-1.3,1.2-2.6,2-3.8c0.1-0.2,0.2-0.4,0.3-0.5
			c-5.5,1.4-10.4,3.6-14.4,6.5C28.6,85.3,25,91.4,25,97.7c0,5.5,2.7,10.8,7.9,15.2c4.7,4,11,7,18.3,8.7c0.3,1.4,0.8,4.7-0.4,10
			l-1.3,5.9l14.3-14.3c0.4,0,0.9,0,1.3,0c2.7,0,5.4-0.2,8-0.5c-2.3-0.9-4.5-1.9-6.7-3C66,119.6,65.6,119.6,65.1,119.6z"/>
	</g>
</g>
</svg>
