<?xml version="1.0" encoding="utf-8"?>
<!-- Generator: Adobe Illustrator 28.2.0, SVG Export Plug-In . SVG Version: 6.00 Build 0)  -->
<svg version="1.1" id="Layer_1" xmlns="http://www.w3.org/2000/svg" xmlns:xlink="http://www.w3.org/1999/xlink" x="0px" y="0px"
	 viewBox="0 0 260 260" style="enable-background:new 0 0 260 260;" xml:space="preserve">
<style type="text/css">
	.st0{fill:#89C34C;}
	.st1{fill:#FFFFFF;}
</style>
<path class="st0" d="M130,260L130,260C58.2,260,0,201.8,0,130l0,0C0,58.2,58.2,0,130,0l0,0c71.8,0,130,58.2,130,130l0,0
	C260,201.8,201.8,260,130,260z"/>
<g>
	<path class="st1" d="M125.6,53c19.6,0.3,36.1,6.2,50.4,18.1c12,10,20.1,22.6,24.6,37.6c1.6,5.3,2.5,10.8,2.8,16.3
		c0.4,6,0.1,11.9-0.9,17.8c-1.8,10.6-5.7,20.4-11.6,29.4c-1.8,2.6-1.6,2,0.4,4c6,6.1,12.1,12.1,18.1,18.1c1.2,1.2,1.3,2.7,0.3,3.8
		s-2.7,1.1-3.9-0.2c-5.1-5-10.1-10.1-15.2-15.2c-1.1-1.1-2.3-2.3-3.4-3.5c-0.6-0.6-1-0.7-1.6,0.1c-7.4,8.8-16.3,15.6-26.7,20.5
		c-7.7,3.6-15.8,5.8-24.3,6.7c-11.3,1.2-22.4-0.1-33.2-3.8c-10.2-3.6-19.3-9.1-27.2-16.4c-7.6-7-13.4-15.2-17.7-24.6
		c-2.8-6.2-4.8-12.7-5.9-19.4c-1-5.8-1.2-11.7-0.8-17.6c0.6-8.8,2.7-17.4,6.3-25.5C62.8,84,73.3,72.1,87.6,63.6
		c9.2-5.5,19.2-8.9,29.9-10.1C120.5,53.3,123.6,53.2,125.6,53z M138.9,149.1c-0.1,11.9,9.5,21.5,20.9,21.9
		c12.4,0.5,22.3-9.3,22.8-20.9c0.5-12.1-9-22.7-21.8-22.7C148.6,127.4,138.9,137.2,138.9,149.1z M124,108.9
		c-0.4-0.1-0.6-0.1-0.9-0.1c-9.7,0-19.4,0-29.1,0c-0.9,0-1.1,0.4-1.2,1.2c-1.1,7.7-1.8,15.3-1.3,23.1c0.3,5.6,0.9,11.3,1.3,16.9
		c0.1,1.2,0.5,1.4,1.6,1.3c9.4,0,18.8,0,28.2,0c1.2,0,1.5-0.3,1.5-1.5c0-13.1,0-26.2,0-39.3C124,110,124,109.5,124,108.9z
		 M87.3,151.3c-0.4-7.2-1-14.2-1-21.2s0.6-14.1,1-21.3c-9.6,0-19.3,0-29.2,0c-4.3,14.1-4.3,28.4,0,42.5
		C68,151.3,77.7,151.3,87.3,151.3z M94,103.4c0.6,0,1.1,0.1,1.5,0.1c9,0,18,0,27.1,0c1.2,0,1.5-0.3,1.5-1.5c0-14,0-28,0-41.9
		c0-0.5,0-0.9,0-1.7c-1.5,0.5-2.8,0.7-4.1,1.2c-5,2.1-8.8,5.7-12,10C100.4,79.6,96.6,91.2,94,103.4z M129.4,103.4
		c10,0,19.9,0,29.9,0c-0.3-1.6-0.6-3-1-4.4c-2.2-9.2-5.3-18.1-10.5-26.1c-3.5-5.4-7.6-10.1-13.6-12.9c-1.5-0.7-3.1-1.1-4.9-1.7
		C129.4,73.6,129.4,88.5,129.4,103.4z M123.9,201.5c0-15.1,0-29.9,0-44.8c-10,0-19.9,0-29.8,0c0,0.6,0,1,0.1,1.5
		c2.2,9.6,5.2,19,10.4,27.5c3.3,5.5,7.3,10.4,12.9,13.7C119.5,200.4,121.5,201.2,123.9,201.5z M165.7,108.8
		c0.4,4.7,0.8,9.1,1.2,13.6c0,0.3,0.6,0.7,1,0.8c2.1,0.9,4.3,1.5,6.2,2.7c7.7,4.6,12.3,11.3,13.4,20.3c0.2,1.7,0.2,3.3,0.3,5.2
		c2.4,0,4.7,0,7.3,0c4.3-14.2,4.3-28.4,0-42.5C185.3,108.8,175.5,108.8,165.7,108.8z M145.3,60.7c-0.1,0.1-0.2,0.2-0.2,0.3
		c0.2,0.3,0.4,0.6,0.6,0.8c5.2,5.2,8.9,11.5,11.9,18.1c3.2,7.1,5.4,14.5,6.8,22.2c0.2,1.1,0.7,1.4,1.8,1.4c8.5,0,17.1,0,25.6,0
		c0.4,0,0.9,0,1.6,0c-4.1-10.2-10-18.8-17.9-26.1C166.7,69.4,156.7,63.8,145.3,60.7z M108,60.9c-13.7,3.6-25.3,10.7-34.8,21.2
		c-5.7,6.3-10.1,13.3-13.3,21.3c9.7,0,19.1,0,28.5,0C91.8,87.7,96.7,72.8,108,60.9z M88.5,156.6c-9.4,0-18.8,0-28.5,0
		c4.7,11.6,11.8,21.1,21.2,29c7,5.9,22.9,13.9,27,13.5C96.7,187.2,91.8,172.4,88.5,156.6z M129.4,108.9c0,14.2,0,28.3,0,42.3
		c1.5,0,2.8,0,4,0c1-18,10.3-27.7,28.2-29.3c0-0.3,0-0.7,0-1c-0.4-3.5-0.8-7.1-1.1-10.6c-0.1-1.2-0.5-1.4-1.7-1.4
		c-9.3,0-18.7,0-28,0C130.4,108.8,129.9,108.9,129.4,108.9z M129.4,201.4c2.1-0.1,5.2-1.3,7.9-3.1c4.5-3,7.9-6.9,10.7-11.5
		c2-3.3,3.6-6.8,5.4-10.2c0.5-0.9,0.5-1.5-0.8-1.7c-0.9-0.2-1.7-0.6-2.5-0.9c-7.4-3.3-12.4-8.8-15-16.5c-0.1-0.4-0.5-1-0.8-1
		c-1.6-0.1-3.2,0-4.8,0C129.4,171.6,129.4,186.5,129.4,201.4z M177.9,170.4c-1.9,1.1-3.6,2.2-5.5,3.2c-3.7,1.9-7.8,2.7-11.9,2.7
		c-1.4,0-1.7,0.4-2.1,1.5c-2.9,7.1-6.5,13.7-11.7,19.4c-0.6,0.7-1.2,1.3-1.7,2c15.3-3.9,27.7-12.1,37.6-24.1
		C180.9,173.4,179.4,171.9,177.9,170.4z M185.8,170.5c3.1-4.3,5.4-8.9,7.5-14c-2,0-3.7,0-5.4,0c-0.8,0-1.2,0.2-1.4,1
		c-0.5,1.3-1,2.7-1.6,3.9c-0.9,1.8-2,3.4-2.9,4.9C183.2,167.7,184.5,169.1,185.8,170.5z"/>
	<path class="st1" d="M161.6,133.6c7.2,0,14.1,6.4,14.7,13.7c0.1,1,0.2,2,0,2.9c-0.3,1.3-1.4,1.9-2.8,1.7c-1.2-0.2-2.2-1.1-2.2-2.4
		c-0.1-2.3-0.7-4.5-2.1-6.4c-2-2.7-4.8-4.1-8.1-4.4c-2-0.2-3.1-1.1-3.1-2.6c0-1.7,1.1-2.5,3.2-2.5
		C161.4,133.6,161.5,133.6,161.6,133.6z"/>
</g>
</svg>
