<?xml version="1.0" encoding="utf-8"?>
<!-- Generator: Adobe Illustrator 28.2.0, SVG Export Plug-In . SVG Version: 6.00 Build 0)  -->
<svg version="1.1" id="Layer_1" xmlns="http://www.w3.org/2000/svg" xmlns:xlink="http://www.w3.org/1999/xlink" x="0px" y="0px"
	 viewBox="0 0 260 260" style="enable-background:new 0 0 260 260;" xml:space="preserve">
<style type="text/css">
	.st0{fill:#89C34C;}
	.st1{fill:#FFFFFF;}
</style>
<path class="st0" d="M130.3,260.2L130.3,260.2c-71.8,0-130-58.2-130-130l0,0c0-71.8,58.2-130,130-130l0,0c71.8,0,130,58.2,130,130
	l0,0C260.3,202,202.1,260.2,130.3,260.2z"/>
<g>
	<g>
		<g>
			<path class="st1" d="M132.2,97.7c1.2,0.5,2.5,0.4,3.7,0.7c14.2,2.6,24.6,13.7,26.4,28.2c0.1,0.5-0.1,1.1,0.4,1.6
				c0.6,0.8,1.2,0.6,1.9,0c0.5-0.1,0.9-0.1,1.4,0c0.8,0.6,1.5,0.7,2.3,0c0.5,0,1-0.1,1.5-0.1c11.4,0,22.9,0,34.3,0
				c0.3,0,0.6,0.1,0.9,0.1c0.8,0.7,1.6,0.7,2.4,0c2.7,0,5.4-0.1,8-0.1c1.5,0,2.2,0.9,2.2,2.6c-0.1,10.5-1.8,20.8-5.7,30.5
				c-11.1,27.5-30.9,45.5-59.6,53.3c-35.5,9.7-74.5-5.3-94.6-36.1c-0.1-0.1-0.1-0.3-0.2-0.4c0.3,0,0.6,0,0.9,0.1
				c1.8,0.4,2.2,0.1,2.8-1.7c0.3,0.3,0.5,0.6,0.8,0.9c10.3,14.6,23.8,25,40.6,31.1c3,1.1,6.1,2,9.3,2.6
				c-7.1-5.6-12.3-12.6-16.5-20.5c0.7-0.1,1.2,0.3,1.7,0.4c1,0.2,2.2,0.5,2.3-1.2c0.2,0.2,0.3,0.4,0.4,0.6
				c2.9,5.2,6.4,10.1,10.8,14.2c4.7,4.4,10.1,7.6,16.6,8.5c0.9,0.1,1.1-0.1,1.1-0.9c-0.1-1.4,0-2.8,0-4.2c0-10.7,0-21.3,0-32
				c0-0.8,0.1-1.4-1.1-1.4c-11,0.1-22,0-33,0c-1.1,0-1.1,0.4-0.8,1.2c1.3,3.7,2.9,7.2,4.4,10.8c-1.7,0.1-2.2,0.6-2.3,2.4
				c0,0.4,0,0.8-0.4,1.1c-2.4-4.5-4.4-9.3-6-14.2c-0.3-1-0.8-1.3-1.8-1.3c-6.4,0.1-12.8,0-19.2,0c-2.6,0-5.1-0.1-7.7-0.1
				c-0.8-0.8-1.6-0.9-2.5-0.2c-0.8,0.7-1.6,1.4-0.7,2.6c0.2,0.3,0.3,0.7,0.2,1.1c-3.3-4.8-6-9.9-8.1-15.4
				c-18.4-46.5,5.1-98.3,52.3-114.9c9.1-3.2,18.5-4.8,28.1-4.8c1.3,0,2.4,0.3,2.5,1.9c-0.6,0.4-0.4,1-0.4,1.5c0,16.6,0,33.3,0,49.9
				C131.8,96.8,131.6,97.4,132.2,97.7z M132.2,134.1c-0.7,0.2-0.4,0.8-0.4,1.3c0,11,0,22,0,33.1c0,0.5-0.2,1.1,0.4,1.5
				c0.1,0.8,0.7,0.5,1.2,0.5c11.4,0,22.8,0,34.1,0c1.1,0,1.6-0.3,1.9-1.4c3.2-11.6,4.8-23.3,5.2-35.3c0-1.4-0.3-1.7-1.6-1.7
				c-12.8,0.1-25.7,0.1-38.5,0C132.9,132.1,132,132.4,132.2,134.1z M90.2,94.1c-0.8-0.4-1.6-0.7-2.4-1.1c-0.3-0.1-0.6-0.3-0.8,0
				c-0.2,0.3-0.1,0.6,0.1,0.8c0.2,0.3,0.5,0.8,0,1c-1.9,0.7-0.2,1.8-0.4,2.7c0,0.2,0.3,0.4,0.6,0.4c0.3,0,0.3-0.2,0.3-0.5
				c0.1-2,0.5-2.4,2.4-2.5c-0.1,0.5-0.2,1.1-0.3,1.6c-2.3,9.9-3.5,20-3.8,30.2c0,1.1,0.2,1.4,1.3,1.4c13.2,0,26.5,0,39.7,0
				c0.9,0,1.2-0.1,1.2-1.1c0-12.1,0-24.2,0-36.2c0-0.9-0.3-1.2-1.2-1.2c-11.4,0-22.8,0-34.1,0c-1,0-1.5,0.3-1.7,1.2
				C91,91.9,90.6,93,90.2,94.1z M128.2,151.3c0-6,0-11.9,0-17.9c0-0.8-0.1-1.2-1.1-1.2c-13.3,0-26.7,0-40,0c-0.9,0-1.1,0.3-1.1,1.1
				c0.3,12.2,1.9,24.3,5.2,36.1c0.2,0.9,0.6,1.2,1.6,1.2c11.4,0,22.8-0.1,34.1,0c1.2,0,1.4-0.4,1.4-1.5
				C128.2,163.1,128.2,157.2,128.2,151.3z M64.4,128.1c5.4,0,10.7,0,16.1,0c1.2,0,1.5-0.4,1.5-1.5c0.2-12.1,1.8-24.1,5-35.8
				c0.3-0.9,0.3-1.3-0.9-1.3c-9.1,0.1-18.2,0-27.3,0c-0.8,0-1.3,0.2-1.7,1c-6.1,11.3-9.4,23.4-10,36.2c-0.1,1.1,0.2,1.5,1.4,1.4
				C53.8,128,59.1,128.1,64.4,128.1z M64.6,132.2L64.6,132.2c-5.4,0-10.7,0-16.1,0c-1.2,0-1.4,0.3-1.4,1.4
				c0.7,12.7,3.9,24.7,9.9,35.9c0.4,0.7,0.8,1,1.6,1c9.1,0,18.3,0,27.5,0c1,0,1.2-0.2,0.9-1.2c-3.2-11.7-4.8-23.6-5-35.8
				c0-1.2-0.4-1.4-1.5-1.4C75.2,132.2,69.9,132.2,64.6,132.2z M196.1,132.2c-5.3,0-10.5,0.1-15.8,0c-1.5,0-1.8,0.4-1.8,1.8
				c-0.2,12-1.8,23.8-5,35.3c-0.3,1.2,0.1,1.2,1,1.2c9.1,0,18.2,0,27.3,0c0.8,0,1.2-0.2,1.6-1c6.1-11.3,9.3-23.3,9.9-36.1
				c0.1-1.1-0.3-1.3-1.3-1.3C206.8,132.2,201.5,132.2,196.1,132.2z M132.3,193.9c0,6,0,12,0,18.1c0,1.1,0.2,1.3,1.3,1.2
				c6.5-1,11.8-4.1,16.4-8.6c8.4-8.1,13.5-18.2,17.3-29c0.4-1.3-0.4-0.9-1-0.9c-10.9,0-21.8,0-32.6,0c-1.1,0-1.4,0.3-1.4,1.4
				C132.4,181.9,132.3,187.9,132.3,193.9z M128.2,66.2c0-5.9,0-11.8,0-17.8c0-1.2-0.3-1.5-1.5-1.3c-7.1,1.1-12.7,4.8-17.5,9.8
				c-7.6,7.8-12.3,17.3-15.9,27.4c-0.4,1.1,0.2,1,0.9,1c10.9,0,21.8,0,32.8,0c1.1,0,1.3-0.4,1.3-1.4
				C128.2,78.2,128.2,72.2,128.2,66.2z M200.4,174.6c-9.1,0-17.9,0-26.8,0c-1.3,0-1.7,0.4-2.1,1.6c-3.2,9.5-7.6,18.4-13.9,26.2
				c-2.6,3.2-5.5,6.1-9,8.7C164.1,210.4,193.1,189.9,200.4,174.6z M111.7,49.2c-21.9,5.2-39,17.3-51.5,36.2c0.4,0.1,0.5,0.1,0.6,0.1
				c8.9,0,17.9,0,26.8,0c0.9,0,1.2-0.5,1.4-1.2c2.6-7.6,5.9-14.8,10.3-21.5C102.8,57.7,106.8,53.1,111.7,49.2z M145.2,128.1
				L145.2,128.1c3.9,0,7.9,0,11.8,0c1.1,0,1.3-0.3,1.2-1.4c-0.4-2.7-1-5.4-2.2-7.8c-4.4-9.3-11.6-14.9-21.8-16.6
				c-1.9-0.3-1.9-0.3-1.9,1.6c0,7.6,0,15.3,0,22.9c0,1.1,0.3,1.3,1.4,1.3C137.5,128.1,141.3,128.1,145.2,128.1z M89,91.2
				c0.1,0.5-0.2,1.3,0.8,1.3c1.2,0,0.5-0.8,0.5-1.3c0-0.4,0.2-0.9,0.5-1.2c0.8-1.1-0.1-1.7-0.6-2.3c-0.2-0.3-0.6-0.1-0.8,0.1
				c-0.4,0.2-0.3,0.5,0,0.7c0.7,0.6,0.5,1.1-0.1,1.6C88.9,90.3,89,90.8,89,91.2z"/>
			<path class="st1" d="M151.2,63.1c1.7,0.1,2.5,1.4,2,3c-0.9,2.8-1.8,5.6-2.7,8.3c-1,3.2-2.1,6.3-3.1,9.5c-0.5,1.5-1.6,2.2-2.8,1.8
				c-1.2-0.4-1.6-1.5-1.1-3c1.9-5.9,3.9-11.9,5.8-17.8C149.7,63.8,150.3,63.2,151.2,63.1z"/>
			<path class="st1" d="M159.1,92.8c-1.7,0-2.7-1.5-2-2.9c0.2-0.4,0.5-0.8,0.8-1.3c3.5-4.8,6.9-9.6,10.4-14.3
				c0.2-0.2,0.3-0.5,0.5-0.7c0.8-0.8,1.8-1.1,2.7-0.4c1,0.7,1.3,1.8,0.5,2.8c-3.8,5.3-7.7,10.6-11.5,15.9c-0.1,0.2-0.3,0.4-0.6,0.5
				C159.7,92.6,159.3,92.7,159.1,92.8z"/>
			<path class="st1" d="M187.6,90c0,0.8-0.4,1.3-1,1.8c-5.1,3.7-10.3,7.5-15.4,11.2c-1.2,0.8-2.4,0.7-3.1-0.2
				c-0.8-1-0.5-2.2,0.7-3.1c5.1-3.7,10.2-7.4,15.3-11.1c0.8-0.6,1.5-0.8,2.4-0.3C187.2,88.6,187.6,89.2,187.6,90z"/>
			<path class="st1" d="M195.1,107c1.2,0,2,0.5,2.2,1.6c0.2,1.2-0.4,2-1.5,2.4c-2.6,0.9-5.3,1.7-7.9,2.6c-3.4,1.1-6.7,2.2-10.1,3.3
				c-1.6,0.5-2.7,0-3.1-1.2c-0.3-1.2,0.3-2.2,1.8-2.7c5.9-1.9,11.9-3.9,17.8-5.8C194.6,107.1,194.9,107.1,195.1,107z"/>
			<path class="st1" d="M132.2,97.7c-0.6-0.4-0.4-1-0.4-1.5c0-16.6,0-33.3,0-49.9c0-0.5-0.2-1.1,0.4-1.5c0,0.9,0.1,1.7,0.1,2.6
				c0,16.3,0,32.7,0,49C132.3,96.8,132.2,97.3,132.2,97.7z"/>
			<path class="st1" d="M61.1,176.5c-0.6,1.8-1,2-2.8,1.7c-0.3-0.1-0.6,0-0.9-0.1l-0.1,0V178c0.1-0.4,0-0.8-0.2-1.1
				c-1-1.2-0.2-1.9,0.7-2.6c0.9-0.8,1.7-0.6,2.5,0.2C60,175.4,61,175.7,61.1,176.5z"/>
			<path class="st1" d="M207.3,128.2c-0.8,0.7-1.6,0.7-2.4,0C205.7,128.1,206.5,128,207.3,128.2z"/>
			<path class="st1" d="M164.6,128.2c-0.6,0.6-1.2,0.7-1.9,0C163.4,128.1,164,128.1,164.6,128.2z"/>
			<path class="st1" d="M168.3,128.2c-0.8,0.7-1.5,0.6-2.3,0C166.8,128.1,167.5,128.1,168.3,128.2z"/>
			<path class="st1" d="M132.2,134.1c0,5.6,0.1,11.1,0.1,16.6c0,6.4-0.1,12.8-0.1,19.2c-0.6-0.4-0.4-1-0.4-1.5c0-11,0-22,0-33.1
				C131.8,134.9,131.5,134.4,132.2,134.1z"/>
			<path class="st1" d="M95.3,190.6c-0.3-0.1-0.2-0.4-0.3-0.6c0.4-0.2,0.4-0.6,0.4-1.1c0.1-1.8,0.6-2.2,2.3-2.4
				c0.1,0.3,0.3,0.6,0.4,0.9c-0.7,0.4-1.9,0.3-1.4,1.6c0.4,1.1,1.3,0.9,2.1,0.6c0.1-0.1,0.3,0,0.4,0c0.1,0,0.1,0.1,0.1,0.2
				c-0.2,1.6-1.3,1.4-2.3,1.2C96.4,190.9,95.9,190.4,95.3,190.6z"/>
			<path class="st1" d="M90.2,94.1c-0.1,0.3-0.1,0.6-0.2,0.8c-1.9,0.1-2.4,0.5-2.4,2.5c0,0.3,0,0.5-0.3,0.5c-0.3,0-0.6-0.2-0.6-0.4
				c0.2-0.9-1.4-2.1,0.4-2.7c0.5-0.2,0.2-0.7,0-1C87,93.6,86.8,93.3,87,93c0.2-0.3,0.5-0.2,0.8,0C88.6,93.4,89.4,93.7,90.2,94.1z"/>
			<path class="st1" d="M89,91.2c0-0.5-0.1-0.9,0.3-1.2c0.6-0.5,0.8-1,0.1-1.6c-0.2-0.2-0.3-0.5,0-0.7c0.3-0.2,0.6-0.4,0.8-0.1
				c0.5,0.7,1.4,1.3,0.6,2.3c-0.3,0.3-0.4,0.8-0.5,1.2c0,0.5,0.6,1.3-0.5,1.3C88.7,92.5,89.1,91.7,89,91.2z"/>
			<path class="st1" d="M99.2,189.6c-0.2,0-0.3,0-0.4,0c-0.8,0.3-1.7,0.5-2.1-0.6c-0.5-1.3,0.8-1.2,1.4-1.6
				C98.5,188.2,98.9,188.9,99.2,189.6z"/>
		</g>
	</g>
</g>
</svg>
