<?xml version="1.0" encoding="utf-8"?>
<!-- Generator: Adobe Illustrator 28.2.0, SVG Export Plug-In . SVG Version: 6.00 Build 0)  -->
<svg version="1.1" id="Layer_1" xmlns="http://www.w3.org/2000/svg" xmlns:xlink="http://www.w3.org/1999/xlink" x="0px" y="0px"
	 viewBox="0 0 260 260" style="enable-background:new 0 0 260 260;" xml:space="preserve">
<style type="text/css">
	.st0{fill:#89C34C;}
	.st1{fill:#FFFFFF;}
</style>
<path class="st0" d="M129.9,259.9L129.9,259.9c-71.8,0-130-58.2-130-130l0,0c0-71.8,58.2-130,130-130l0,0c71.8,0,130,58.2,130,130
	l0,0C260,201.7,201.8,259.9,129.9,259.9z"/>
<g>
	<g>
		<path class="st1" d="M206.1,125.8c0.4,0.9,0.3,1.8,0.4,2.8c0.3,31.5-17.7,59.3-46.7,71.8c-10.9,4.7-22.4,6.7-34.3,5.9
			c-24.3-1.7-43.7-12.6-57.9-32.3c-7.8-10.7-12.3-22.8-13.6-36.1c2.5,0,2.9-0.2,3.3-2.6c0-0.3,0.1-0.5,0.4-0.6
			c0.7-0.4,0.5-1,0.1-1.5c-0.2-0.4-0.8-0.7-0.2-1.1c0.6-0.3,1.1-0.1,1.2,0.7c-0.6,0.3-0.4,0.8-0.3,1.3c0.6,10.2,3.3,19.9,8,28.9
			c14.2,27.3,44.7,42.5,75.1,37.4c28-4.7,50.7-25.5,57.7-52.9c0.8-3.3,1.5-6.7,1.6-10.1c-2,2.1-3.8,4.2-5.6,6.4
			c-0.3,0.4-0.2,0.8-0.1,1.1c0.4,1.5,0.8,2.9,1.2,4.4c0.7,2.6,0.6,3.3-1.9,4.5c-2.5,1.2-3.6,2.8-3.2,5.6c0.2,1.6-0.4,2.4-2,2.8
			c-0.9,0.3-1.6,0.8-2.1,1.5c-1.3,1.8-2.6,3.5-3.9,5.3c-0.6,0.8-1.4,1.3-2.4,1.3c-2.6,0-5.3,0-7.9,0c-1.1,0-1.9-0.5-2.4-1.4
			c-0.8-1.3-1.6-2.6-2.5-3.8c-1.3-1.6-1.6-3.3-0.9-5.2c0.8-2.2,0.6-4.1-1.4-5.7c-0.8-0.6-0.9-1.6-0.7-2.6c0.4-2.1,0.5-4.2,1-6.2
			c0.2-1.1-0.1-1.8-0.8-2.6c-1.6-1.5-3.4-3-2.7-5.7c0.2-0.7-0.4-0.7-0.8-0.7c-3.7,0-7.4-0.7-10.9,1c-0.8,0.4-1.6,0.4-2.4-0.2
			c1.4-1.2,1.4-2.2,0-3.7c0.1-0.1,0.2-0.2,0.3-0.3c0.3,0.2,0.5,0.5,0.8,0.7c0.8,0.6,1.6,0.5,2.4,0c0.8-0.6,1.1-1.2,0.3-2.1
			c0.8-0.4,1.6-0.5,2.4-0.5c3.4,0.1,6.8,0.1,10.2,0.1c2.1,0,3.4,1.1,3,2.7c-0.6,2.8,0.2,4.9,2.5,6.6c0.1,0.1,0.1,0.1,0.2,0.2
			c0.9,0.8,1.1,1.8,0.9,2.9c-0.4,2-0.6,4.1-1,6.1c-0.2,1.1-0.1,2,0.8,2.8c1.8,1.4,2.2,3.3,1.4,5.4c-0.9,2.4-0.5,4.6,1.2,6.5
			c0.4,0.5,0.7,0.8,1.4,0.8c4.6,0.1,4.6,0.1,7.4-3.6c0.6-0.8,1.2-1.6,1.9-2.5c0.2-0.3,0.5-0.8,0.8-0.8c1.5-0.3,1.4-1.4,1.4-2.6
			c0-0.4,0-0.9,0-1.3c-0.1-1.2,0.4-2,1.5-2.6c0.9-0.5,1.7-1.1,2.7-1.6c0.7-0.4,0.8-0.8,0.6-1.5c-0.4-1.5-0.8-3-1.2-4.5
			c-0.3-1.1-0.1-2,0.6-2.9c1.5-1.8,3-3.5,4.5-5.3c1.1-1.3,2.2-2.6,3.4-4.1c-1.2,0-1.9-0.5-2.4-1.3c-0.9-1.4-1.7-2.8-2.5-4.3
			c-0.6-1-0.5-2,0.2-2.9c0.7-0.9,1.7-1.1,2.8-0.8c1.2,0.4,2.5,0.8,3.7,1.2c0.4,0.1,0.9,0.5,1-0.3c0.7,0.1,0.2,0.5,0.3,0.8
			c-0.6-0.1-0.5,1.7-1.5,0.6c-0.3-0.3-0.4-0.8-0.9-0.4c-0.5,0.4-0.1,0.8,0.2,1.1c0.9,0.9,1.8,1.8,2.7,2.8c0.5,0.5,0.8,0.3,1.2-0.1
			c1.2-1,1-2.3,0.7-3.5C204.8,125.4,205.3,126,206.1,125.8z"/>
		<path class="st1" d="M201.6,124.7c-0.1-0.3,0.4-0.8-0.3-0.8c-0.2-0.8-0.1-1.6-0.9-2.3c-3.4-2.9-6.7-5.8-10-8.7
			c-0.4-0.3-0.8-0.6-1.3-0.6c-4-0.1-7.9-0.2-11.9-0.3c-0.5,0-0.8,0.1-1.1,0.5c-0.9,1.2-1.9,1.5-3.3,0.9s-2.8-1.3-4.2-1.8
			c-1.6-0.6-2.9-1.4-3.5-3.1c-0.2-0.6-0.6-0.8-1.4-0.8c-1.9,0.2-3.8,0.3-5.8,0.4c-0.8,0-1.4,0.3-2,0.8c-0.8,0.8-1.8,0.9-2.9,0.4
			c-1.7-0.8-2.2-0.6-2.1,1.4c0.1,1.7-0.4,2.9-1.7,3.9c-1.3,1.1-2.5,2.3-3.8,3.4c-0.5,0.5-0.8,0.9-0.4,1.6c0.9,1.7,0.6,3.2-0.8,4.5
			c-0.6,0.6-0.6,1,0,1.7c1.5,1.6,2.9,3.3,4.4,4.9c-0.4,0.8-0.6,1.6-0.3,2.5c-0.1,0.1-0.2,0.2-0.3,0.3c-1.2-0.7-1.9,0.2-2.7,0.8
			c-2-2.2-4-4.3-6-6.5c-2.1-2.2-2.1-2.9-0.1-5.2c0.9-1.1,1.1-2,0.5-3.2c-0.7-1.4-0.2-2.6,0.9-3.6c1.1-0.9,2.1-2.1,3.3-2.9
			c1.6-1.2,2.3-2.6,1.9-4.5c-0.3-1.4,0.4-2.4,1.8-2.9c0.4-0.2,0.8-0.4,1.2-0.6c0.8-0.2,0.8-0.6,0.4-1.3c-1-1.7-1.9-3.4-2.9-5.1
			c-2-3.6-1.4-4.9,2.7-5.2c0.5-0.1,1.2,0.1,1.5-0.6c0.3-0.9,1-1.6,1.6-2.3c0.5-0.6,0.8-1.2,0.4-1.9c0.8-0.7,1.8-1.3,2.7-1.7
			c0,0,0.1-0.1,0.1-0.1c0.3-0.4,0.7-0.6,1.2-0.6c0.9,0.8,0.7,2,1.3,3c-0.4,0.3-0.2,0.5,0.2,0.5c0.1,0.4,0.1,0.7-0.1,1.1
			c-0.2,0.1-1.1-0.3-0.6,0.6c0.1,0.6-1.2,1.3,0.2,1.9c1.1,0.5,1.4,1.6,1.1,2.8c-0.3,1.1-1.1,1.7-2.3,1.8c-1.1,0.1-2.2,0.2-3.3,0.2
			c-1.2,0-1.2,0.4-0.7,1.3c0.6,1,1.3,2.1,1.8,3.2c0.4,0.9,0.8,1,1.6,0.3c2.5-2.3,5-4.4,7.5-6.7c1.2-1.1,2.4-1.2,3.8-0.5
			c1.8,1,3.8,1.8,5.6,2.9c2.1,1.3,4,2,6.2,0.4c-0.4,0.7-0.2,1.3,0.2,2c0.6,0.9,1.2,1.8,1.2,3c-0.9-0.1-1.7,0.5-2.5,0.9
			c-1.3,0.7-2.5,0.6-3.8-0.1c-2.3-1.3-4.7-2.5-7.1-3.7c-0.4-0.2-0.8-0.6-1.3-0.2c-0.8,0.7-1.6,1.4-2.4,2.1c0.1,0.2,0.2,0.2,0.2,0.2
			c3-0.6,5.1,0.3,6.1,3.4c0.3,0.8,2.5,1.7,3.1,1.3c0.7-0.5,1.5-0.6,2.3-0.5c2.6,0.1,5.2,0.2,7.8,0.2c0.4,0,0.9,0.2,1.4-0.2
			c-0.9-0.8-1.8-1.6-2.7-2.3c0.1-0.6,0.4-1.2,0.2-1.9c-0.2-0.7,0.8-1.7,1.3-1.3c0.9,0.7,1.1-0.1,1.6-0.4c1.2,0.9,2.4,1.9,3.5,2.8
			c0.5,0.4,0.8,0.4,1.3,0c1.5-1.4,3.1-2.7,4.7-4c0.6-0.4,0.6-0.8,0.3-1.4c-0.9-1.6-1.6-3.2-2.5-4.7c0.8-1,0.7-1.9,0-2.9
			c-0.6-0.8-1.3-0.8-2.1-0.4c-2.4-3.3-4.8-6.5-7.6-9.5c-0.6-0.7-1.1-0.9-2.1-0.6c-1.7,0.7-3.4,1.3-5.2,1.7c-0.8,0.2-1.1,0.5-1.3,1.2
			c-0.6,1.6-1.1,3.2-1.8,4.8c-0.7,1.6-2.8,1.9-4,0.7c-0.4-0.4-0.7-0.9-1-1.4c-1.7-2.7-1.7-2.7-4.7-1.8c-1.1,0.3-2.1,0.4-2.9-0.6
			c0.1-1.5,0.4-2.7,2-3.4c0.7-0.3,0.8-1.2-0.1-1.7c0-0.4,0.3-0.5,0.6-0.6c0.5,1,1.1,1,2.1,0.7c1.2-0.4,2.4-0.9,4-0.3
			c-1.8-2.1-1.3-3.9,0.1-5.5c0.7-0.8,1.2-1.6,1.8-2.5c0.2-0.3,0.6-0.7,0.1-1.1c0.7-0.9-0.1-1.7-0.2-2.5l0,0c1.2,0.7,2.4,0.7,3.3-0.5
			c0.1-0.2,0.4-0.2,0.5-0.4c5.6,3.8,10.6,8.4,14.9,13.5c1.6,1.9,3.3,3.9,4.6,6.1c-0.3,0.4-0.6,0.8-0.9,1.3c-0.7,1.1-0.6,2.1,0.4,2.9
			c1,0.8,2,0.3,2.9-0.2c1,1,1.6,2.4,2.2,3.6c4.6,8.6,7.3,17.8,8.4,27.4c0,0.2,0,0.4,0,0.7c-1.4-0.9-2.5-0.3-2.6,1.4
			c0,0.3,0,0.7,0,1.1C202.9,124.7,202.2,124.7,201.6,124.7z M199.9,114.7c-0.7-3.6-1.7-6.7-2.9-9.8c-0.2-0.6-0.4-0.7-0.9-0.3
			c-1.1,1-2.2,1.9-3.4,2.9c-0.4,0.3-0.6,0.6-0.1,0.9C195.1,110.4,197.4,112.4,199.9,114.7z"/>
		<path class="st1" d="M98,60.4c7.2-3.4,14.8-5.5,22.7-6.5c4-0.5,8.1-0.7,12.2-0.5c0.2,1.8,1.4,3.3,2.2,4.9c-0.5,0-1.1,0-1.6,0
			c-10.3-0.5-20.2,1.2-29.8,5c-1.9,0.8-1.9,0.7-1,2.4c0,0.4,0,0.8,0.6,0.8c0.5,0.8,1.1,1.6,1.6,2.4c-0.4,0.8-0.2,1.1,0.7,1.1
			c1.2,1.6,1.3,2.5,0.2,3.8c-1,0-1.6,0.4-1.6,1.5c-0.7,0.9-1.8,1.5-2.5,2.6c1.4,0.3,2.5,0.9,2.5,2.4s0,3-0.1,4.5
			c-1.2,0.1-1.5,0.8-1.6,1.9c0,0.3,0.3,0.8-0.3,0.8c-1.1-0.1-1.8,0.7-2.7,0.8c-0.6-1,0-2.2-0.4-3.2c-0.5,0-0.9,0.4-1.3,0.7
			c-1.6,0.9-2.7,0.8-3.9-0.5c-0.4-0.4-0.8-0.9-1.2-1.4c0-0.2,0-0.5-0.3-0.4c-0.3,0-0.2,0.3-0.2,0.5c0,1.5-0.1,3-0.3,4.4
			c-0.4,0.2-0.6-0.7-1-0.2c-0.2,0.3-0.2,0.8,0.2,1.2c0.1,0.1,0.2,0.1,0.3,0.2c-0.3,0.7-0.9,0.9-1.6,1.1c-0.9,0.3-1.3,0.9-1.4,1.8
			c-0.2,1.7-0.5,3.4-0.8,5.1c-0.5-0.2-0.9-0.2-0.9,0.4c0,0.4,0,0.8,0,1.2c-1.5,1-3.2,0.5-3.8-1.1c-0.7-1.9-1.4-3.8-2-5.8
			c-0.3-0.8-0.6-1.5-1.5-1.9c0-0.4,0.3-0.9-0.2-1.1c-0.4-0.2-0.5,0.3-0.6,0.7c-2-1-4.2-1.9-6-3.2c-0.1,0-0.1-0.2-0.2-0.1
			c0,0,0.1,0.1,0.2,0.1c-0.1,0.7-0.6,1.1-1,1.5c-0.2,0.1-0.4,0.2-0.4,0.4c0.1,0.2,0,0.3-0.2,0.4c-0.4,0-0.9-0.3-1.1,0.3
			c-0.1,0.4,0.3,0.4,0.6,0.5c-0.8,1.3-1.6,2.5-2.4,3.8c-0.2,0-0.4-0.1-0.6,0.2c-0.1,0.2,0.1,0.3,0.2,0.4c-0.4,0.8-0.9,1.7-1.3,2.5
			c-3.5,6.7-5.9,13.8-7.2,21.3c-0.7,0.2-0.4,0.8-0.4,1.2c0,0.6,0,1.2-0.1,1.8c-0.3,1.8-0.6,3.7-0.6,5.5c0,0.8,0.2,1.4,1.1,1.6
			c-0.1,0.8-0.1,2.3-0.4,2.4c-1.1,0.2-2.1,1.1-3.3,0.6c-0.2-0.1-0.4-0.4-0.7-0.1c-0.2,0.2,0,0.5,0,0.8c0,0.9,1.1,1.1,1.4,1.8
			c-0.9,0.3-1.9-0.1-2.7,0.4c-0.4-2.7-0.3-5.4-0.1-8.1c0.6-11.7,3.7-22.8,9.4-33.1c1.9-3.4,3.9-6.7,6.4-9.7c0.9,0,1.2-0.4,1-1.3
			c1.6-2,3.1-4,5.1-5.6c0.9,0.1,1.2-0.4,1.1-1.2c0.7-0.8,1.5-1.6,2.3-2.2c0.1,0.2,0.2,0.4,0.4,0.3c0.3-0.2,0.2-0.5,0.1-0.8
			c0.8-0.8,1.7-1.6,2.7-2.3c0.5,0,0.9,0,0.8-0.6c0.2-0.3,0.5-0.6,0.8-0.7c0.9,0.3,1.4,0,1.3-1c0.4-0.3,0.9-0.6,1.4-0.9
			c0.3,0.1,0.5,0.6,0.9,0.4c0.4-0.2,0.2-0.7,0.2-1.1c0.6-0.7,1.4-1.1,2.2-1.5c0.4,0,0.8,0,0.8-0.5c0.7-0.4,1.4-0.8,2.1-1.2
			c0.1,0.5,0.3,0.8,0.8,0.6c0.6-0.2,0.4-0.7,0-1c1.3-0.8,2.7-1.5,4.1-2.1c0,0.2,0.1,0.4,0.3,0.4C98.1,61,98,60.6,98,60.4z
			 M92.2,72.2c0.2,0.2,0.5,0.3,0.7,0.4c0.5,1.2,1.3,1.9,2.6,2.1c0.7,0.8,1.2,0.7,1.9-0.1c0.7-0.8,1.5-1.5,2.4-2.1
			c0.8-0.6,1-1.2,0.3-1.9c0.4-0.8,0.2-1.2-0.7-1.1c-0.6-0.9-1.3-1.8-1.9-2.7c-0.2-0.3-0.3-0.7-0.8-0.4c-2.4,1.3-4.7,2.6-7,4.3
			c0.7,0.5,1.3,0.8,1.9,1.2c0,0.2,0,0.5,0.1,0.6C92,72.6,92.1,72.4,92.2,72.2z M83.2,86.8c-0.2,0.1-0.5,0.2-0.3,0.5
			c0.3,0.4,0.6,0,0.9-0.1c1.2,0.6,3.3-0.6,3.4-1.9c0.1-1.7,0.2-3.4,0.3-5.1c0.1-1.2-0.2-2.6,0.5-3.7c0.6-0.8,0.3-1-0.3-1.3
			c0-0.9-0.4-1-1.1-0.7c-1-0.8-1.8-0.4-2.7,0.4c-1.3,1.3-2.8,2.5-4.2,3.7c-0.2-1.2-0.9-0.2-1.4-0.3c-0.2-0.1-0.5,0.1-0.4,0.4
			c0.2,0.7,0.8,0.3,1.2,0.4c0,0,0.1,0,0.1,0c-1.1,1.2-2.2,2.5-3.4,3.8c0.9,0.5,1.7,1,2.6,1.4c-0.1,0.6,0.3,0.5,0.6,0.3
			C80.5,85.4,81.9,86.1,83.2,86.8z M91.7,84.1c0-0.1,0.1-0.2,0.1-0.2c0-0.1-0.1-0.1-0.2-0.1c0,0.1-0.1,0.2-0.1,0.2
			C91.5,84.1,91.6,84.1,91.7,84.1z"/>
		<path class="st1" d="M135.1,58.3c-0.8-1.6-1.9-3.1-2.2-4.9c8.7,0.2,17.1,2,25.1,5.2c4.1,1.6,8.2,3.5,11.9,6
			c-0.8,1-0.9,2.1-0.2,3.2l0,0c-0.2-0.1-0.4-0.1-0.6-0.2c-1.3-0.6-1.9-0.4-2.8,1c-0.7,1.1,0.1,1.6,0.7,2.2c0.4,0.4,1,0.5,1.6,0.5
			c-0.5,1.8-1.5,3-3.3,3.6c-1.5,0.5-2.9,1.2-4.4,1.8c-1.3-1.2-2.8-0.9-3.1,0.6c-0.2,0.8-0.6,1.4-1,2.1c-0.6-0.8-0.9-1.7-1.3-2.6
			c-0.8-1.8-0.3-3,1.5-3.8c1.8-0.8,3.5-1.6,5.3-2.2c1.1-0.4,1.8-1.1,2.3-2.2c0.4-0.9,0.3-1.4-0.6-1.8c-3-1.5-6-2.9-9.1-4.1
			C148.4,60.3,141.8,59,135.1,58.3z"/>
		<path class="st1" d="M53.7,134.2c0.8-0.5,1.7-0.1,2.7-0.4c-0.3-0.8-1.4-0.9-1.4-1.8c0-0.3-0.2-0.5,0-0.8c0.2-0.3,0.5,0,0.7,0.1
			c1.2,0.4,2.2-0.4,3.3-0.6c0.3-0.1,0.3-1.5,0.4-2.4c0.7,0,1.4-0.1,2.1-0.1c1,0.5,1.1,1.1,0,1.6c-0.3,0.2-0.7,0.5-0.4,0.8
			c0.4,0.5,0.7-0.1,0.9-0.3c0.1-0.1,0.2-0.1,0.3-0.2c0.2-0.1,0.4-0.3,0.6-0.2c0.2,0.2,0.2,0.5,0.1,0.7c-0.1,0.3-0.4,0.6-0.7,0.7
			c-0.3,0-0.5,0.2-0.5,0.5c-0.5-0.1-1.1-0.2-1.6-0.3c0-0.3-0.1-0.5-0.5-0.5c-0.1,0-0.2,0.2-0.2,0.2c0.1,0.1,0.3,0.2,0.4,0.2
			c0.1,0.4,0.2,0.8,0.3,1.1c-0.5,0-0.9,0-1.3-0.1c-0.1-0.8-0.6-1-1.2-0.7c-0.6,0.4-0.1,0.7,0.2,1.1c0.3,0.5,0.6,1.1-0.1,1.5
			c-0.3,0.2-0.3,0.4-0.4,0.6c-0.4,2.3-0.8,2.6-3.3,2.6C53.7,136.6,53.6,135.4,53.7,134.2z"/>
		<path class="st1" d="M195.5,90.6c-1,0.4-1.9,0.9-2.9,0.2c-1-0.8-1.1-1.8-0.4-2.9c0.3-0.4,0.6-0.8,0.9-1.3
			C194,87.9,195,89.1,195.5,90.6z"/>
		<path class="st1" d="M169.7,67.8c-0.7-1.1-0.6-2.2,0.2-3.2c1.3,0.6,2.5,1.4,3.6,2.3c-0.2,0.1-0.4,0.2-0.5,0.4
			C172,68.5,170.9,68.6,169.7,67.8z"/>
		<path class="st1" d="M203.5,124.7c0-0.3,0-0.7,0-1.1c0.1-1.7,1.2-2.2,2.6-1.4c0,0.4,0.1,0.7,0.1,1.1c0.1,0.4-1.6,0.9,0,1.3
			c0,0.4,0,0.7,0,1.1c-0.8,0.2-1.4-0.4-2.1-0.5C204,124.9,203.8,124.7,203.5,124.7z"/>
		<path class="st1" d="M93.4,62.7c0.4,0.4,0.5,0.8,0,1c-0.5,0.2-0.7-0.2-0.8-0.6C92.9,63,93.2,62.8,93.4,62.7z"/>
		<path class="st1" d="M206.1,124.7c-1.6-0.5,0.1-0.9,0-1.3C206.4,123.8,206.2,124.3,206.1,124.7z"/>
		<path class="st1" d="M76.6,75.2c0.1,0.8-0.2,1.3-1.1,1.2C75.6,75.8,76.1,75.5,76.6,75.2z"/>
		<path class="st1" d="M85.1,68c0.1,1-0.4,1.3-1.3,1C84.2,68.6,84.7,68.3,85.1,68z"/>
		<path class="st1" d="M87.5,66.3c0,0.4,0.2,0.8-0.2,1.1c-0.4,0.2-0.6-0.3-0.9-0.4C86.7,66.7,87.1,66.4,87.5,66.3z"/>
		<path class="st1" d="M70.4,82c0.2,0.9-0.1,1.3-1,1.3C69.6,82.8,69.9,82.4,70.4,82z"/>
		<path class="st1" d="M79.5,72.5c0,0.3,0.2,0.6-0.1,0.8c-0.2,0.1-0.4-0.1-0.4-0.3C79.1,72.8,79.3,72.7,79.5,72.5z"/>
		<path class="st1" d="M98,60.4C98,60.6,98.1,61,97.8,61c-0.2,0-0.2-0.2-0.3-0.4C97.7,60.5,97.9,60.5,98,60.4z"/>
		<path class="st1" d="M90.5,64.4c0,0.6-0.4,0.5-0.8,0.5C89.9,64.6,90.2,64.4,90.5,64.4z"/>
		<path class="st1" d="M83,69.6c0,0.6-0.4,0.7-0.8,0.6C82.4,69.9,82.6,69.7,83,69.6z"/>
		<path class="st1" d="M201.6,124.7c0.6,0,1.2,0,1.9,0c0,0.3,0.2,0.5,0.5,0.5c0.3,1.3,0.6,2.5-0.7,3.5c-0.4,0.4-0.8,0.6-1.2,0.1
			c-0.9-0.9-1.8-1.8-2.7-2.8c-0.3-0.3-0.7-0.7-0.2-1.1c0.5-0.4,0.7,0.1,0.9,0.4C201.1,126.4,201,124.7,201.6,124.7z"/>
		<path class="st1" d="M148.2,137.3c-1.1-0.8-1.9-1.9-2.7-2.9c0.8-0.6,1.5-1.5,2.7-0.8C149.6,135.1,149.6,136.1,148.2,137.3z"/>
		<path class="st1" d="M148.8,130.9c0.8,1,1.7,1.9,3.2,1.1c0.8,0.8,0.5,1.5-0.3,2.1c-0.8,0.5-1.6,0.6-2.4,0
			c-0.3-0.2-0.5-0.5-0.8-0.7C148.2,132.4,148.4,131.6,148.8,130.9z"/>
		<path class="st1" d="M157.6,84.7c-1.4-0.2-0.8,0.8-0.8,1.4c-0.5,0-0.9,0.1-1.2,0.6c0,0,0,0.1-0.1,0.1c-1,0.5-1.9,1-2.7,1.7
			c-0.1-0.3-0.2-0.5-0.3-0.8c0.9-1,0.4-1.4-0.6-1.6c-0.3-0.2-0.2-0.6-0.3-0.8c0.4,0,0.7,0.3,1.1,0.5c0.9,0.6,1.8,0.2,2.5-0.3
			c0.5-0.4,0.6-1.1,0.4-1.8c-0.1-0.3,0-0.7-0.1-1.1c0.5,0.2,0.8,1.2,1.6,0.6c0.6-0.5,1.5-0.9,1.4-1.9c-0.1-1.1,0.3-1.5,1.4-1.4
			c0.4,0,0.9-0.2,1.3-0.2c0.9,0.5,0.8,1.4,0.1,1.7c-1.6,0.7-1.9,1.9-2,3.4c-0.2,0-0.4-0.1-0.5-0.1C158.3,84,157.9,84,157.6,84.7z"/>
		<path class="st1" d="M161.1,79.7c-0.4,0.1-0.9,0.3-1.3,0.2c-1.1-0.1-1.5,0.3-1.4,1.4c0.1,1-0.8,1.5-1.4,1.9
			c-0.7,0.5-1-0.5-1.6-0.6l0,0c-0.1-0.8-0.9-1.1-1.1-1.9c0.8,0,1.4,0.4,2,0.8c0.2,0.2,0.5,0.7,0.9,0.2c0.3-0.3,0.5-0.8,0.2-1.2
			c-0.2-0.3-0.5-0.5-0.7-0.8c0-0.1,0-0.3,0-0.4c0.4-0.7,0.8-1.3,1-2.1c0.3-1.5,1.9-1.8,3.1-0.6c0,0.1,0,0.2,0,0.2
			c-0.4,0.6-1.5,1.1-1.1,1.7c0.3,0.6,1-0.6,1.7-0.3c0.3,0.2,0.2,0.5,0.3,0.8C161.4,79.1,161.1,79.3,161.1,79.7z"/>
		<path class="st1" d="M181.4,104.8c-0.4-0.2-0.8-0.5-1-0.9c0-1.2-0.6-2.1-1.2-3c-0.4-0.7-0.5-1.3-0.2-2c1.2-0.8,2.2-0.6,3.3,0.3
			c0.7,0.6,1.5,1.3,2.2,1.9c-0.5,0.4-0.7,1.1-1.6,0.4c-0.5-0.4-1.6,0.6-1.3,1.3C181.8,103.5,181.5,104.1,181.4,104.8z"/>
		<path class="st1" d="M169.9,70.3c-1.1-0.6-0.8,0.8-1.3,1c-0.6,0.1-1.2,0-1.6-0.5c-0.6-0.6-1.4-1.1-0.7-2.2c0.9-1.4,1.5-1.7,2.8-1
			c0.2,0.1,0.4,0.2,0.6,0.2C169.8,68.7,170.6,69.4,169.9,70.3z"/>
		<path class="st1" d="M191.9,93.7c-0.8-1-1.5-2.2-2.1-3.3c0.8-0.4,1.5-0.4,2.1,0.4C192.6,91.8,192.7,92.7,191.9,93.7z"/>
		<path class="st1" d="M158.2,90.7c0,0.4-0.2,0.6-0.6,0.6C157.2,90.3,158,90.8,158.2,90.7z"/>
		<path class="st1" d="M158.1,89c0.1,0.2,0.1,0.4,0.2,0.5C158,89.5,157.8,89.4,158.1,89z"/>
		<path class="st1" d="M103.4,90.7c-1.4-0.7-3.2-0.8-4-2.5c0.9-0.2,1.7-0.9,2.7-0.8c0.6,0,0.2-0.5,0.3-0.8c0-1,0.3-1.8,1.6-1.9
			c0,0.7,0.3,1.1,1,1.4c0.7,0.3,1.3,0.7,2,1c-0.9,0.5-1.4,1.8-2.5,1.6c-1.2-0.3-1.3,0.1-1.1,1.1C103.5,90.1,103.4,90.4,103.4,90.7z"
			/>
		<path class="st1" d="M92.9,72.7c1.1,0.4,2,1.1,2.6,2.1C94.3,74.6,93.4,73.8,92.9,72.7z"/>
		<path class="st1" d="M79.8,78.7c-0.2,0.2-0.3,0.3-0.5,0.5c0,0-0.1,0-0.1,0c-0.4-0.2-1.1,0.3-1.2-0.4c-0.1-0.3,0.2-0.4,0.4-0.4
			C78.9,78.4,79.6,77.4,79.8,78.7z"/>
		<path class="st1" d="M91.8,88.2c0.1,0.4-0.1,0.8-0.4,1.1c-0.1-0.1-0.2-0.1-0.3-0.2c-0.4-0.3-0.5-0.8-0.2-1.2
			C91.2,87.5,91.5,88.4,91.8,88.2z"/>
		<path class="st1" d="M87.7,97.4c-0.1,0.7-0.3,1.3-0.9,1.6c0-0.4,0-0.8,0-1.2C86.8,97.2,87.2,97.2,87.7,97.4z"/>
		<path class="st1" d="M105.6,73.8c-0.5,0.6-1,1.1-1.6,1.5C104,74.2,104.6,73.7,105.6,73.8z"/>
		<path class="st1" d="M79.5,90.3c-0.2-0.1-0.5-0.3-0.8-0.4c0.1-0.3,0.1-0.8,0.6-0.7C79.7,89.4,79.4,89.9,79.5,90.3z"/>
		<path class="st1" d="M71.1,89.1c-0.2,0.3-0.4,0.5-0.6,0.8c-0.3-0.1-0.7-0.1-0.6-0.5C70.2,88.8,70.7,89.1,71.1,89.1z"/>
		<path class="st1" d="M100.2,70.6c-0.3-0.3-0.6-0.7-0.7-1.1C100.4,69.4,100.6,69.8,100.2,70.6z"/>
		<path class="st1" d="M104.8,68.9c0.3,0.3,0.6,0.7,0.7,1.1C104.6,70,104.4,69.7,104.8,68.9z"/>
		<path class="st1" d="M87.8,75.2c-0.4-0.2-0.7-0.4-1.1-0.7C87.4,74.2,87.8,74.3,87.8,75.2z"/>
		<path class="st1" d="M59.3,118c0,0.5,0,0.9-0.4,1.2C58.9,118.8,58.6,118.3,59.3,118z"/>
		<path class="st1" d="M83.2,86.8c0.2,0.1,0.4,0.2,0.6,0.4c-0.3,0.1-0.6,0.5-0.9,0.1C82.7,87,83.1,86.9,83.2,86.8z"/>
		<path class="st1" d="M102.6,65.7c0.3,0.2,0.5,0.5,0.6,0.8C102.6,66.5,102.6,66.1,102.6,65.7z"/>
		<path class="st1" d="M91.7,84.1c-0.1,0-0.2-0.1-0.2-0.1c0-0.1,0.1-0.1,0.1-0.2c0.1,0,0.2,0.1,0.2,0.1C91.8,83.9,91.7,84,91.7,84.1
			z"/>
		<path class="st1" d="M92.7,83.7c-0.2,0-0.3,0.1-0.5,0.1c0-0.2-0.1-0.5,0.2-0.5C92.7,83.2,92.6,83.5,92.7,83.7z"/>
		<path class="st1" d="M68.2,93.7c-0.1,0.2-0.2,0.4-0.3,0.5c-0.1-0.1-0.3-0.2-0.2-0.4C67.7,93.6,68,93.7,68.2,93.7z"/>
		<path class="st1" d="M91.7,71.9c0.2,0.1,0.3,0.2,0.5,0.3c-0.1,0.2-0.2,0.4-0.4,0.3C91.7,72.4,91.7,72.1,91.7,71.9z"/>
		<path class="st1" d="M78.5,84.4c0.2,0.1,0.4,0.2,0.6,0.3C78.8,84.8,78.4,85,78.5,84.4z"/>
		<path class="st1" d="M72.6,86.7c-0.1-0.1-0.2-0.1-0.2-0.1C72.6,86.4,72.6,86.7,72.6,86.7C72.7,86.7,72.6,86.7,72.6,86.7z"/>
		<path class="st1" d="M71.6,88.3c-0.1,0.1-0.3,0.3-0.4,0.4C71.3,88.5,71.4,88.3,71.6,88.3z"/>
		<path class="st1" d="M103.4,90.7c0-0.3,0.1-0.6,0-0.9c-0.3-1-0.2-1.4,1.1-1.1c1.1,0.2,1.6-1.1,2.5-1.6c1.8,0.6,2.2,1.2,2.1,3
			c-0.2,2.4-0.4,4.8-0.6,7.2c-0.2,1.8-1.8,2.8-3.4,2.1c-0.2-0.1-0.5-0.2-0.3-0.5c0-0.2-0.2-0.4-0.4-0.4c-0.1,0.1-0.1,0.1-0.2,0.2
			c0.1-1.3-0.3-1.6-1.8-1.2c-0.5-0.4-1.1-0.8-1.6-1.1c-0.1-0.1-0.3-0.3-0.4,0c0,0.1,0.1,0.3,0.1,0.5c-0.3,0.1-0.9-0.1-0.8,0.3
			c0.1,0.4,0.7,0.2,1,0.2c0.8,1,1.4,2.2,1.9,3.4c0.8,1.8-0.3,3.4-2.2,3.5c-2.3,0.1-4.6,0.1-6.8,0.1c-0.8,0-1.3,0.2-1.8,0.9
			c-1.2,1.8-2.5,3.5-3.8,5.2c-0.3-0.4-0.6-0.5-0.9-0.1c-0.3,0.5-0.2,0.7,0.4,0.8c-1.9,2-2.1,4.4-1.9,6.9c0.1,1,0,2-0.1,3.1
			c-0.1,2.3-1.6,3.2-3.7,2.3c-0.3-1.1-0.6-1.3-1.4-0.9c-0.3-0.2-0.6-0.4-0.9-0.6c0.3-0.2,0.5-0.3,0.2-0.7c-0.4-0.4-0.8-0.1-1.2,0.1
			c-1.7-1.6-3.1-0.3-4.8,0.5c2.1,1.1,3.9,2.1,5.7,3.1c1,0.6,2.1,1,2.6,2.2c0,0.7-0.2,1.5,1,1.4c0.3,0.2,0.5,0.5,0.6,0.8
			c-0.2,0.4-0.2,0.7,0.4,0.6c0.5,0.4,0.9,1,1.2,1.6c-0.3,0.7,0,0.9,0.6,0.9c0,0.1,0,0.1,0.1,0.2c0,0,0,0.1-0.1,0.1
			c-0.1,0.7,0.3,0.8,0.8,0.7c0.3,0.3,0.5,0.6,0.9,1c0.5-0.9,0.9-1.8,1.4-2.6c0.8-1.5,2.1-2,3.6-1.2c1.9,1.1,3.9,1.4,6,0.7
			c1.3-0.4,2.4-0.1,3.3,0.8c0.1,1.5,1.1,2.6,1.6,3.9c0.1,0.3,0.4,0.5,0.8,0.4c0.2-0.1,0.3-0.3,0.3-0.4c-0.5-0.9,0.6-1.2,0.6-1.9
			c0.5,0.3,1.1,0.3,1.7,0.1c1.1-0.4,2.2-0.7,3.3-1c0.9-0.2,1.9-0.5,2.6,0.6c-0.1,0.1-0.2,0.1-0.1,0.1c0.2,0.2,0.1-0.1,0.2-0.1
			c1.4,1,2.2,2.5,3.3,3.7c0.5,0.6,1.1,1,1.9,1.1c3.7,0.9,7.4,1.8,11.2,2.8c2.3,0.6,2.9,1.7,2.2,4c-0.4,1.3-0.8,2.6-1.2,3.8
			c-0.4,1.1-0.5,2.1-0.3,3.3c0.3,1.6,0.5,3.2,0.7,4.8c0.4,2.2,0,2.8-2,3.8c-0.1-0.3,0.1-0.8-0.3-0.7c-0.4,0.1-0.5,0.6-0.4,1.1
			c-0.3,0.2-0.7,0.4-1,0.6c-0.5-0.8-1.1-0.2-1.5,0c-0.3,0.2,0,0.5,0.3,0.7c-0.5,0.2-0.9,0.5-1.4,0.8c-0.3-0.1-0.6-0.4-0.9-0.1
			c-0.2,0.3-0.1,0.5,0.1,0.6c-0.2,0.5-0.5,1.1-0.7,1.6c-0.3,0-0.7-0.2-0.8,0.2c-0.1,0.4,0.3,0.3,0.6,0.4c-0.9,2.1-1.6,4.2-2.6,6.3
			c-2,3.9-2.5,8.2-3.5,12.4c-0.2,0.8-0.6,1.6-0.3,2.5c-0.6,0.1-0.6,0.4-0.3,0.7c0.3,0.5,0.6,0.4,0.9-0.1c0.8,0.9,1.8,1.8,2.4,2.9
			c-0.1,0.5,0.1,0.7,0.6,0.7c0.5,0.4,0.9,0.9,1.2,1.5c-0.1,1.4,0.5,2.1,1.7,2c1.2,1.2,1.3,2.2,0.3,3.6c-0.7-0.5-0.7,0.1-0.8,0.6
			c-0.3,0.3-0.8,0.3-1.1,0.2c-3.9-0.8-7.9-1.5-11.7-2.7c-0.1-1-0.2-1.1-0.8-0.7c-2-1.9-3.9-3.9-5.9-5.8c-0.5-0.4-0.6-1.1-0.8-1.7
			c-0.3-1.6-0.7-3.1-1.1-4.7c2.1,0,2.4-0.3,2.8-3c0.5,0.2,0.9,0.8,1.5,0.6c0.2,0.9,0.5,1.8,0.7,2.7c0.4,1.4,0.3,2.9,1.5,4
			c-0.4,0.8-0.1,1,0.9,0.9c0.8,0.8,1.7,1.6,2.5,2.4c0.9,1.1,2.1,1.4,3.4,1.3l0,0c0.1,0.1,0.1,0.2,0.2,0.2c0.6,0,0.7-0.4,0.5-0.8
			c-0.2-0.4-0.7-0.4-1,0c0,0-0.1,0-0.1-0.1c-4-4.7-3.4-2.8-2.2-8.4c1-4.9,1.8-9.9,4.3-14.4c1.4,0,2.4-0.9,2.1-2.1
			c-0.2-0.9,0.2-1.1,0.9-1.1c0.7,0,1.4,0,1.8-0.8c0.1-0.3,0.1-0.6-0.1-0.8c-0.2-0.2-0.4-0.2-0.6,0c-0.7,1-1.4,0.2-2.1,0.1
			c0.2-0.8,0.6-1.5,0.9-2.2c0.8,0.1,1.4,0.6,1.9,1.3c0.3,0.5,1.2,0.9,1.2,0.2c0-1.4,0.8-1.2,1.6-1.4c0.3-0.1,0.7-0.2,0.6-0.8
			c-1.4,0-2.6-0.5-3.3-1.8c1.4-0.8,2.7-1.8,4.3-2.2c0.5,0,1.2,0.8,1.5-0.1c0.2-0.6-0.1-1.5-1.1-1.4c-0.7-3.1-1.3-6.2,0.2-9.2
			c0.5-0.9,0-1.3-0.9-1.5c-3.2-0.8-6.4-1.6-9.6-2.4c-0.7-0.2-1.4-0.4-1.8-1.1c0-1.4,0-1.4-0.8-1c-0.6-0.7-1.2-1.4-1.8-2.2
			c0.2-0.1,0.5-0.2,0.4-0.6c0-0.1-0.2-0.1-0.3-0.2c-0.1,0.2-0.2,0.4-0.2,0.6c-0.9-0.7-1.8-0.1-2.6,0.2c-2.1,0.9-4,0.6-5.6-1
			c-0.1-0.4,0.2-0.8-0.4-1c-0.3-0.1-0.4,0.2-0.6,0.4c-0.4-0.3-0.8-0.5-1.2-0.8c0.2-0.2,0.4-0.4,0.1-0.7c-0.3-0.3-0.7,0.1-1,0.1
			c-0.7,0.1-1.5,0.3-2.2,0.4c-1.1,0.2-2.2,0.6-3.2-0.1c-1.1-0.7-1.8-0.5-2.2,0.7c-1.1,0-1.2,0.6-0.8,1.4c-0.7,1.7,0,3.4,0.1,5.1
			c0.1,0.9,0.1,1.8-0.5,2.5c-0.4,0-0.9-0.1-1,0.5l-0.1,0.1l0.1,0.1l0.1-0.1c0.2,0,0.5,0,0.7,0c-0.6,1.1-1.1,2.1-1.7,3.2
			c-0.8,0.1-1.3-0.1-1.2-1c0.1-0.4,0-0.8-0.5-0.8c-0.6,0-0.5,0.4-0.6,0.8c-0.1,0.4,0.2,0.8-0.2,1.1c-0.7-0.6-1.4-1.2-1.9-2
			c0.1-0.4,0.2-0.7,0.6-0.9c0.7-0.1,1-0.4,0.4-1c0.2-0.8,0.9-1.4,1-2.3c0.2-2.6-0.2-3.2-2.6-4.1c-6-2.1-12.1-4.3-18.2-6.4
			c-1.2-0.4-2.4-0.2-3.6-0.3c-0.5-0.1-1,0.1-1.5-0.2c-0.1-0.4-0.2-0.8-0.3-1.1c0.1,0,0.2,0,0.3,0c0.5,0.1,1.1,0.2,1.6,0.3
			c0.3,0,0.5-0.2,0.5-0.5c0.3-0.2,0.6-0.4,0.7-0.7c0.1-0.2,0.1-0.6-0.1-0.7c-0.2-0.1-0.4,0.1-0.6,0.2c-0.1,0.1-0.2,0.2-0.3,0.2
			c-0.3,0.2-0.5,0.8-0.9,0.3c-0.2-0.3,0.1-0.6,0.4-0.8c1-0.6,1-1.1,0-1.6c2,0,4-0.1,5.9,0.7c4.1,1.6,8.3,3,12.4,4.5
			c0,0.2-0.1,0.6,0.2,0.6c0.3,0.1,0.3-0.2,0.3-0.4c0.1-0.1,0.1-0.1,0.2-0.2c-0.1,0-0.1-0.1-0.2-0.1l0,0c0.1-0.7-0.7-1-0.8-1.6
			c0.2-0.7-0.6-1.3-0.6-1.7c0-1.8-0.8-1-1.6-0.7c-0.2-0.1-0.3-0.2-0.5-0.3c0.1-0.8-0.3-0.8-0.9-0.5c-1.2-0.5-2.3-1.2-3.4-1.9
			c0.4-0.3,0.5-0.7,0.1-1c-0.5-0.3-0.7,0.1-0.9,0.5c-0.9-0.5-1.8-1-2.6-1.5c0.9-0.7,0.4-1-0.3-1.1s-1.4-0.4-1.3-1
			c0.2-1.7-0.8-1.1-1.6-0.9c0-1.7,0.3-2.1,2.3-2.9c-0.1,0.6-0.2,1.1-0.3,1.7c-0.1,1.1,0.3,2,1.3,2.5c0.9,0.5,1.6,0.2,2.2-0.5
			c0.7-0.7,0.3-1.7,0.7-2.2c0.4-0.6,1.7,0,2.4-0.7c0.4-0.4,0.5-0.8,0.2-1.2c-0.3-0.4-0.6,0-0.9,0.2c-0.8,0.8-1.3,0.3-1.6-0.5
			c-0.1-0.3-0.1-0.7-0.5-0.9c0.7-0.4,1.5-0.8,2.3-1.1c0.1,0.5,0.2,0.9,0.6,1.3c0.3,0.3,0.7,0.7,1.2,0.6c0.5-0.1,0.5-0.6,0.3-1
			c-0.1-0.2,0-0.5,0.3-0.5c1.1,0.2,1.6-0.7,2.3-1.1c0.5,0.3,1,0.7,1.5,1c-0.2,0.1-0.6,0.3-0.2,0.6c0.3,0.2,0.5-0.1,0.5-0.4
			c0.6-0.7,0.3-1.4,0.3-2.2c-0.1-2.2,0.9-3.9,2.3-5.4c0.6,0,0.7-0.4,0.6-0.9c1.8-2.7,3.7-5.3,5.6-7.9c0.4-0.6,0.9-0.9,1.7-0.9
			c0.3,0.6,0.5,1.1,0.8,1.7c0.1,0.2-0.1,0.8,0.4,0.6c0.4-0.1,0.7-0.4,0.6-0.9s-0.3-0.9-0.5-1.4c1.3-0.1,2.6-0.1,4-0.2
			c-0.2-0.5-0.4-0.9-0.5-1.3c0.2-0.2,0.4-0.4,0.6-0.5c1.7-1.1,1.8-1.3,1.1-3.1c1.9,0.7,3.6,0,3.2-2.4c0-0.3,0-0.5,0-0.8
			c0.6,0.2,1.1,1.5,1.9,0.4c0.5,0.3,0.9,0.6,1.4,0.9C104.1,91.7,104.1,91.1,103.4,90.7z M105,91.5c0-0.2-0.2-0.3-0.4-0.3
			c-0.2,0-0.3,0.2-0.3,0.3c0.1,0.1,0.2,0.3,0.4,0.3C104.9,91.9,104.9,91.7,105,91.5z M84.7,108.8c0-0.1,0.1-0.2,0.1-0.2
			c0-0.1-0.1-0.1-0.2-0.1c0,0.1-0.1,0.2-0.1,0.2C84.5,108.8,84.6,108.8,84.7,108.8z M102.2,102.3c0,0,0-0.1,0-0.1c0,0-0.1,0-0.1,0
			C102.2,102.2,102.1,102.2,102.2,102.3C102.1,102.2,102.2,102.2,102.2,102.3z M85,113.7c0,0,0,0.1,0,0.1c0,0,0.1,0,0.1,0
			C85.1,113.8,85.1,113.7,85,113.7C85.1,113.7,85,113.7,85,113.7z"/>
		<path class="st1" d="M60.2,131.7c-0.1,0-0.2,0-0.3,0c-0.1-0.1-0.3-0.2-0.4-0.2c0.1-0.1,0.1-0.2,0.2-0.2
			C60.1,131.2,60.2,131.4,60.2,131.7z"/>
		<path class="st1" d="M62.3,131.4c0,0.4-0.2,0.5-0.5,0.5C61.8,131.6,62,131.4,62.3,131.4z"/>
		<path class="st1" d="M204,125.3c-0.4,0-0.5-0.2-0.5-0.5C203.8,124.7,204,124.9,204,125.3z"/>
		<path class="st1" d="M86.6,155.9c-0.4-0.4-0.8-0.8-1-1.4c0.7-0.1,0.9-0.6,1.1-1.2c0-0.1-0.1-0.3-0.2-0.3c-0.6-0.2-0.9,0.4-1.3,0.7
			c0,0,0,0.1-0.1,0.1c-0.5-0.5-1-1.1-1.3-1.8c0.9-1.1,1.7-1.1,2.5,0.1c0.1,0.2,0.4,0.3,0.7,0.4c0.5,0.3,0.9,0.1,0.8-0.4
			c-0.3-1.4,0.8-0.9,1.3-1.1c0.5,0.5,0.9,1.1,1.2,1.8c-0.1,0.5,0.1,0.7,0.6,0.7c0.2,0.3,0.4,0.6,0.7,0.8c-0.3,1.4,0,1.6,1.7,1.6
			c0.2,0.2,0.4,0.3,0.7,0.5c-0.2,0.1-0.5,0.2-0.2,0.4c0.2,0.2,0.3-0.1,0.4-0.3c1.1,0.7,2.2,1.5,3.2,2.3c0.1,1.1,0.2,1.2,1.1,0.8
			c0.6,0.3,0.7,0.9,0.9,1.4c0.6,1.8,1.2,3.7,1.7,5.5c0.9,3.4,2.2,6.6,2.8,10.1c-0.8,0.1-1.6,0.9-2.5,0.1c-0.2-0.2-0.6-0.1-0.8,0.2
			c-0.3,0.4,0.2,0.5,0.3,0.8c0.5,0.9,1.5,1.4,2.2,2.6c-1.2-0.7-2.2-1-3.3-0.4c-1.2-4.9-2.8-9.8-4.2-14.7c-0.4-1.6-1.2-2.8-2.6-3.6
			c-0.3-0.2-0.6-0.5-0.9-0.7c0.1-0.9-0.5-0.9-1.1-0.8c-1.6-0.9-2.8-2.2-3.8-3.8c0.1-0.1,0.3-0.2,0.2-0.4
			C87,155.9,86.8,155.9,86.6,155.9z"/>
		<path class="st1" d="M99.6,180c1-0.6,2-0.3,3.3,0.4c-0.6-1.2-1.6-1.7-2.2-2.6c-0.1-0.2-0.6-0.4-0.3-0.8c0.2-0.3,0.6-0.4,0.8-0.2
			c0.9,0.8,1.7,0.1,2.5-0.1c0.6,1.5,0.8,3,1.1,4.6c-0.6,0.2-1-0.4-1.5-0.6c-0.4,2.7-0.7,3-2.8,3C100.2,182.5,99.9,181.3,99.6,180z"
			/>
		<path class="st1" d="M155.4,82.6c0,0.3,0,0.7,0.1,1.1c0.2,0.7,0.2,1.4-0.4,1.8c-0.7,0.5-1.6,0.8-2.5,0.3c-0.3-0.2-0.6-0.5-1.1-0.5
			c-0.2-0.5-0.5-1.1-0.7-1.6c0.5,0,0.5-0.4,0.6-0.7c0.8-1.2,1.9-1.4,3.1-0.7C154.9,82.4,155.1,82.6,155.4,82.6L155.4,82.6z"/>
		<path class="st1" d="M89.1,151.2c-0.6,0.2-1.7-0.3-1.3,1.1c0.1,0.4-0.3,0.7-0.8,0.4c-0.2-0.1-0.5-0.2-0.7-0.4
			c-0.8-1.2-1.6-1.3-2.5-0.1c-0.4-0.4-0.7-0.8-0.7-1.4c1.2-0.3,1.2-0.8,0.2-1.3c0.2-0.5,0.4-1,0.8-1.4c0.5,0.8,1.2,1.4,1.9,2
			c0.4-0.3,0.2-0.8,0.2-1.1c0.1-0.4,0-0.9,0.6-0.8c0.5,0,0.5,0.4,0.5,0.8c-0.1,1,0.4,1.1,1.2,1C88.5,150.5,88.9,150.8,89.1,151.2z"
			/>
		<path class="st1" d="M155.4,82.6c-0.3,0-0.6-0.2-0.8-0.4c-1.2-0.7-2.3-0.4-3.1,0.7c-0.2,0.3-0.1,0.7-0.6,0.7
			c-0.6-1.8-0.1-2.9,1.9-3.5c0.4,0.5,1.2-0.1,1.6,0.5C154.6,81.5,155.4,81.8,155.4,82.6z"/>
		<path class="st1" d="M105.1,133.9c0,0.7-1.1,1-0.6,1.9c0.1,0.1-0.1,0.3-0.3,0.4c-0.4,0.1-0.7-0.1-0.8-0.4
			c-0.5-1.3-1.5-2.4-1.6-3.9C103,132.5,104,133.2,105.1,133.9z"/>
		<path class="st1" d="M154.4,80.7c-0.4-0.6-1.2,0-1.6-0.5c1.3-0.3,2.7-0.1,4-0.3c0.2,0.2,0.6,0.5,0.7,0.8c0.2,0.4,0.1,0.9-0.2,1.2
			c-0.4,0.4-0.6-0.1-0.9-0.2C155.8,81.1,155.2,80.7,154.4,80.7z"/>
		<path class="st1" d="M85.1,153.9c0,0,0-0.1,0.1-0.1c0.4-0.3,0.7-0.9,1.3-0.7c0.1,0,0.2,0.2,0.2,0.3c-0.2,0.6-0.4,1.1-1.1,1.2
			C85.4,154.3,85.3,154.1,85.1,153.9z"/>
		<path class="st1" d="M102.2,97.4c1.5-0.4,2-0.1,1.8,1.2C103.3,98.4,102.8,97.9,102.2,97.4z"/>
		<path class="st1" d="M122.4,194.9c-1.3,0.1-1.8-0.6-1.7-2C121.3,193.5,121.9,194.2,122.4,194.9z"/>
		<path class="st1" d="M125.3,162.7c-0.3-0.2-0.6-0.5-0.3-0.7c0.4-0.2,1.1-0.8,1.5,0C126.2,162.2,125.7,162.4,125.3,162.7z"/>
		<path class="st1" d="M151.9,86.1c1,0.2,1.5,0.6,0.6,1.6C152.3,87.2,152.1,86.7,151.9,86.1z"/>
		<path class="st1" d="M80.2,122.5c0.8-0.4,1.1-0.2,1.4,0.9C81.2,123.1,80.7,122.8,80.2,122.5z"/>
		<path class="st1" d="M83.3,149.4c1,0.6,1,1.1-0.2,1.3C83,150.3,83,149.8,83.3,149.4z"/>
		<path class="st1" d="M116.4,187.9c-0.3,0.4-0.6,0.6-0.9,0.1c-0.2-0.4-0.2-0.7,0.3-0.7C116,187.5,116.2,187.7,116.4,187.9z"/>
		<path class="st1" d="M78.4,121.3c0.4-0.2,0.8-0.5,1.2-0.1c0.3,0.3,0.1,0.5-0.2,0.7C79,121.8,78.7,121.6,78.4,121.3z"/>
		<path class="st1" d="M87.4,111.1c-0.5-0.1-0.7-0.3-0.4-0.8c0.3-0.5,0.6-0.4,0.9,0.1C87.7,110.6,87.6,110.8,87.4,111.1z"/>
		<path class="st1" d="M82.9,128.4c-1.2,0.2-1-0.7-1-1.4C82.4,127.4,82.7,127.9,82.9,128.4z"/>
		<path class="st1" d="M108.2,195.9c0.7-0.4,0.8-0.3,0.8,0.7C108.7,196.5,108.3,196.3,108.2,195.9z"/>
		<path class="st1" d="M123.1,163.9c-0.3-0.2-0.4-0.4-0.1-0.6c0.3-0.4,0.6,0,0.9,0.1C123.6,163.6,123.3,163.8,123.1,163.9z"/>
		<path class="st1" d="M127.6,161.4c-0.1-0.4,0-1,0.4-1.1c0.4-0.1,0.2,0.4,0.3,0.7C128.1,161.1,127.9,161.3,127.6,161.4z"/>
		<path class="st1" d="M90.7,160.2c0.6-0.1,1.2-0.1,1.1,0.8C91.4,160.8,91,160.5,90.7,160.2z"/>
		<path class="st1" d="M100.6,97.3c-0.4,0-0.9,0.2-1-0.2c-0.1-0.5,0.5-0.2,0.8-0.3C100.4,97,100.5,97.1,100.6,97.3z"/>
		<path class="st1" d="M121.9,199.1c0.1-0.4,0.1-1.1,0.8-0.6C122.6,198.9,122.3,199,121.9,199.1z"/>
		<path class="st1" d="M122.1,166.1c-0.2-0.1-0.7,0-0.6-0.4c0.1-0.4,0.5-0.2,0.8-0.2C122.3,165.8,122.2,165.9,122.1,166.1z"/>
		<path class="st1" d="M85,146.1c0.6,0.6,0.3,0.9-0.4,1C84.6,146.7,84.8,146.4,85,146.1z"/>
		<path class="st1" d="M85.8,132.2c-0.6,0-1-0.2-0.6-0.9C85.5,131.6,85.7,131.9,85.8,132.2z"/>
		<path class="st1" d="M86.6,133.3c-0.5,0-0.9-0.1-0.8-0.7C86.3,132.5,86.4,132.9,86.6,133.3z"/>
		<path class="st1" d="M119.4,191.5c-0.5,0.1-0.7-0.1-0.6-0.7C119.1,190.9,119.3,191.2,119.4,191.5z"/>
		<path class="st1" d="M86.6,155.9c0.2,0,0.4,0,0.5,0.1c0.2,0.1,0,0.3-0.2,0.4C86.8,156.2,86.7,156.1,86.6,155.9z"/>
		<path class="st1" d="M84,129.8c-0.6,0.1-0.6-0.2-0.4-0.6C83.7,129.4,83.8,129.6,84,129.8z"/>
		<path class="st1" d="M104.3,98.5c0.2,0,0.4,0.2,0.4,0.4C104.4,98.9,104.3,98.8,104.3,98.5z"/>
		<path class="st1" d="M157.6,84.7c0.3-0.7,0.7-0.7,1.1-0.1C158.3,84.7,158,84.7,157.6,84.7z"/>
		<path class="st1" d="M161.4,78.3c-0.7-0.2-1.4,0.9-1.7,0.3c-0.3-0.6,0.8-1.1,1.1-1.7C161,77.4,161.2,77.8,161.4,78.3z"/>
		<path class="st1" d="M97,94.3c0.9,1.9,0.8,2.1-0.9,3.2c-0.2,0.1-0.4,0.3-0.6,0.5c-1.5-2.3-1.5-3,0.5-4.9c1-1,1.9-2.2,3.3-2.7
			c0.1,0.7,0.5,0.8,1.1,0.8c0,0.3,0,0.5,0,0.8C100.8,94.4,99.1,95.1,97,94.3C96.9,94.3,97,94.4,97,94.3c0.4,0.1,0.1-0.1,0.2-0.2
			c-0.1-0.1-0.2-0.1-0.3-0.2C96.9,94.1,96.8,94.1,97,94.3z"/>
		<path class="st1" d="M71.5,117.4c0.4,0.2,0.4,0.5,0.5,0.9c0.3,0.8,0.8,1.2,1.6,0.5c0.3-0.2,0.6-0.6,0.9-0.2
			c0.3,0.4,0.2,0.8-0.2,1.2c-0.7,0.8-2,0.1-2.4,0.7c-0.3,0.6,0,1.6-0.7,2.2s-1.3,0.9-2.2,0.5c-1.1-0.5-1.4-1.4-1.3-2.5
			c0-0.6,0.2-1.1,0.3-1.7c0.1,0,0.3-0.1,0.4-0.1c0.6,0.9,1.5,0.4,2.2,0.4c0.6,0,0.2-1,0.3-1.6C71.1,117.5,71.3,117.4,71.5,117.4z"/>
		<path class="st1" d="M78.5,115.6c-0.7,0.4-1.2,1.3-2.3,1.1c-0.3-0.1-0.4,0.2-0.3,0.5c0.2,0.4,0.2,0.9-0.3,1
			c-0.4,0.1-0.8-0.2-1.2-0.6c-0.3-0.4-0.5-0.8-0.6-1.3c0.9-0.5,1.8-1,2.8-1.2C77.3,115,78,115,78.5,115.6z"/>
		<path class="st1" d="M65.7,121.8c0.8-0.2,1.8-0.7,1.6,0.9c-0.1,0.5,0.6,0.9,1.3,1s1.3,0.3,0.3,1.1C67.7,124,65.9,123.8,65.7,121.8
			z"/>
		<path class="st1" d="M70.9,117.6c-0.1,0.6,0.3,1.6-0.3,1.6c-0.7,0-1.6,0.5-2.2-0.4C69.2,118.2,70,117.9,70.9,117.6z"/>
		<path class="st1" d="M92.1,99.5c0.2,0.5,0.4,0.9,0.5,1.4c0.1,0.5-0.2,0.8-0.6,0.9c-0.5,0.1-0.3-0.4-0.4-0.6
			c-0.2-0.6-0.5-1.1-0.8-1.7C91.2,99.5,91.7,99.5,92.1,99.5z"/>
		<path class="st1" d="M77.3,129.3c0.7-0.3,1.6-1.1,1.6,0.7c0,0.5,0.8,1,0.6,1.7C78.7,131,78.3,129.9,77.3,129.3z"/>
		<path class="st1" d="M102.4,91.6c-0.9,1.1-1.3-0.1-1.9-0.4c-0.1-0.3-0.2-0.5-0.3-0.8C101.2,90.4,101.7,91,102.4,91.6z"/>
		<path class="st1" d="M71.7,126.2c0.2-0.4,0.4-0.9,0.9-0.5c0.4,0.2,0.2,0.7-0.1,1C72.2,126.5,71.9,126.4,71.7,126.2z"/>
		<path class="st1" d="M100.2,90.4c0.1,0.3,0.2,0.5,0.3,0.8c-0.6,0-1-0.1-1.1-0.8C99.7,90.4,99.9,90.4,100.2,90.4z"/>
		<path class="st1" d="M75.9,128.5c0.6-0.3,1-0.3,0.9,0.5C76.5,128.9,76.2,128.7,75.9,128.5z"/>
		<path class="st1" d="M80.3,133.6c-0.1,0.2,0,0.5-0.3,0.4c-0.3-0.1-0.2-0.4-0.2-0.6c0.2,0,0.4,0,0.6,0l0,0
			C80.3,133.4,80.3,133.5,80.3,133.6z"/>
		<path class="st1" d="M80.3,116.8c-0.1,0.3-0.2,0.6-0.5,0.4c-0.4-0.3,0-0.4,0.2-0.6C80.1,116.6,80.2,116.7,80.3,116.8z"/>
		<path class="st1" d="M83.5,108.3c0.1,0.5,0,0.9-0.6,0.9C83,108.8,83.2,108.5,83.5,108.3z"/>
		<path class="st1" d="M118.6,162.3c0.3-1.1,0.8-2.2,2.1-2.5c0.7,1.3,1.9,1.7,3.3,1.8c0.1,0.6-0.4,0.7-0.6,0.8
			c-0.7,0.3-1.6,0.1-1.6,1.4c0,0.7-0.9,0.3-1.2-0.2C120,162.8,119.4,162.4,118.6,162.3z"/>
		<path class="st1" d="M115.6,169.2c0.6-1.6,1.3-3.2,2.1-4.8c0.7,0.2,1.4,0.9,2.1-0.1c0.1-0.2,0.4-0.2,0.6,0
			c0.3,0.2,0.3,0.5,0.1,0.8c-0.3,0.8-1,0.9-1.8,0.8c-0.8,0-1.1,0.1-0.9,1.1C117.9,168.4,117,169.2,115.6,169.2z"/>
		<path class="st1" d="M124.9,157.6c0.4-0.4,0.5-0.9,0.4-1.4c1.1-0.1,1.3,0.8,1.1,1.4C126.1,158.4,125.4,157.5,124.9,157.6z"/>
		<path class="st1" d="M107,188c0.3,0.3,0.6,0.6,0.9,0.9C106.9,189,106.7,188.7,107,188z"/>
		<path class="st1" d="M113.9,192.6c-0.1-0.2-0.2-0.4-0.3-0.5c0.3-0.4,0.7-0.4,1,0c0.2,0.4,0.1,0.8-0.5,0.8
			C114,192.8,113.9,192.7,113.9,192.6L113.9,192.6z"/>
		<path class="st1" d="M91.6,137.1c-0.1,0.5-0.4,1-0.8,1.4C90.4,137.7,90.5,137.1,91.6,137.1z"/>
		<path class="st1" d="M113.3,141.9c-0.4-0.3-0.7-0.6-0.8-1C113.3,140.5,113.3,140.5,113.3,141.9z"/>
		<path class="st1" d="M102.3,137.9c-0.4-0.1-0.7-0.3-0.9-0.6c0.1-0.2,0.2-0.5,0.6-0.4C102.5,137,102.3,137.5,102.3,137.9z"/>
		<path class="st1" d="M100.2,136.6c-0.3-0.2-0.6-0.4-0.8-0.5c0.3-0.1,0.6-0.5,1-0.1C100.6,136.1,100.4,136.4,100.2,136.6z"/>
		<path class="st1" d="M105,91.5c0,0.2,0,0.4-0.3,0.3c-0.1,0-0.3-0.2-0.4-0.3c-0.1-0.2,0-0.3,0.3-0.3
			C104.8,91.2,104.9,91.3,105,91.5z"/>
		<path class="st1" d="M90.5,146.2c-0.1,0.2-0.2,0.4-0.3,0.5c-0.2,0-0.5,0-0.7,0C89.5,146,90.1,146.2,90.5,146.2z"/>
		<path class="st1" d="M110.7,138.8c-0.1,0-0.1-0.1-0.1-0.2c0.1-0.2,0.2-0.4,0.2-0.6c0.1,0.1,0.3,0.1,0.3,0.2
			C111.2,138.5,111,138.7,110.7,138.8z"/>
		<path class="st1" d="M84.7,108.8c-0.1,0-0.2-0.1-0.2-0.1c0-0.1,0.1-0.1,0.1-0.2c0.1,0,0.2,0.1,0.2,0.1
			C84.8,108.6,84.7,108.7,84.7,108.8z"/>
		<path class="st1" d="M102.2,102.3C102.2,102.3,102.1,102.2,102.2,102.3c-0.1-0.1-0.1-0.1-0.1-0.1c0,0,0.1,0,0.1,0
			C102.3,102.2,102.2,102.2,102.2,102.3z"/>
		<path class="st1" d="M85,113.7C85,113.7,85.1,113.7,85,113.7c0.1,0.1,0.1,0.1,0.1,0.1c0,0-0.1,0-0.1,0C85,113.7,85,113.7,85,113.7
			z"/>
		<path class="st1" d="M112.6,133.8c-0.1,0-0.1,0.2-0.2,0.1C112.4,133.9,112.5,133.8,112.6,133.8L112.6,133.8z"/>
		<path class="st1" d="M80.3,133.6c0-0.1,0-0.2,0-0.2c0.1,0,0.1,0.1,0.2,0.1C80.5,133.4,80.4,133.5,80.3,133.6z"/>
		<path class="st1" d="M113.9,192.6c0.1,0.1,0.1,0.2,0.2,0.2C114,192.8,113.9,192.7,113.9,192.6z"/>
		<polygon class="st1" points="89.4,146.7 89.4,146.8 89.3,146.8 		"/>
		<path class="st1" d="M91.6,154.5c0.6,0.5,1.1,1.1,1.7,1.6C91.5,156.1,91.3,155.9,91.6,154.5z"/>
		<path class="st1" d="M97.3,159c0.4,0.3,0.7,0.5,1.1,0.8C97.5,160.2,97.4,160.1,97.3,159z"/>
		<path class="st1" d="M93.9,156.6c0.1,0,0.1,0.1,0.2,0.1c-0.1,0.2-0.2,0.5-0.4,0.3C93.4,156.8,93.8,156.7,93.9,156.6z"/>
		<path class="st1" d="M90.3,153c0.3,0.1,0.5,0.4,0.6,0.7C90.4,153.7,90.2,153.5,90.3,153z"/>
		<path class="st1" d="M96.8,94.2c0-0.1,0.1-0.2,0.1-0.2c0.1,0.1,0.2,0.1,0.3,0.2c-0.1,0.1,0.2,0.2-0.1,0.2
			C97,94.4,96.9,94.3,96.8,94.2z"/>
	</g>
</g>
</svg>
