<?xml version="1.0" encoding="utf-8"?>
<!-- Generator: Adobe Illustrator 28.2.0, SVG Export Plug-In . SVG Version: 6.00 Build 0)  -->
<svg version="1.1" id="Layer_1" xmlns="http://www.w3.org/2000/svg" xmlns:xlink="http://www.w3.org/1999/xlink" x="0px" y="0px"
	 viewBox="0 0 200 200" style="enable-background:new 0 0 200 200;" xml:space="preserve">
<style type="text/css">
	.st0{fill:#8AC24A;}
	.st1{fill:none;stroke:#8AC24A;stroke-width:3;stroke-miterlimit:10;}
	.st2{fill:#FFFFFF;}
</style>
<circle class="st0" cx="100" cy="100" r="91"/>
<circle class="st1" cx="100" cy="100" r="98.5"/>
<g>
	<path class="st2" d="M165,102.8C165,102.8,165,102.8,165,102.8c-0.1,0.6-0.5,0.9-1,1.1c-4.1,1.6-8.3,3.1-12.4,4.7
		c-1.5,0.6-3,0.4-4.3-0.6c-0.6-0.5-1-1.1-1.3-1.8c-2.1-5.5-4.2-11.1-6.4-16.6c-1.7-4.5-3.4-9-5.1-13.5c-0.1-0.2-0.1-0.4-0.2-0.6
		c-0.1-0.6,0.3-1.1,0.9-1.4c0.8-0.3,1.6-0.6,2.4-0.9c4.3-1.6,8.6-3.2,12.9-4.8c0.3-0.1,0.6-0.2,0.9-0.1c0.5,0.1,0.8,0.4,1,0.9
		c0.4,1.1,0.8,2.1,1.2,3.2c3,7.8,5.9,15.6,8.9,23.4c0.8,2.1,1.6,4.1,2.4,6.2c0.1,0.2,0.1,0.4,0.2,0.6C165,102.6,165,102.7,165,102.8
		z"/>
	<path class="st2" d="M67.2,77.7c0.1,0.1,0.2,0.1,0.3,0.1c0.9,0.4,1.8,0.7,2.7,1.1c0.3,0.1,0.5,0.2,0.8,0.2c0.5,0,1.1,0,1.6-0.1
		c0.3,0,0.5-0.1,0.8-0.2c3.2-1.5,6.4-3,9.7-4.5c2.3-1.1,4.6-2.1,6.8-3.2c0.9-0.4,1.9-0.7,2.9-0.7c1.6-0.1,3.1,0.1,4.6,0.5
		c0.9,0.2,1.7,0.6,2.4,1.2c0.4-0.2,0.9-0.3,1.3-0.5c2.1-0.7,4.1-0.5,6.1,0.5c1.6,0.9,3.2,1.7,4.7,2.6c3.1,1.7,6.1,3.3,9.2,5
		c0.4,0.2,0.8,0.3,1.3,0.3c0.6,0,1.1,0,1.7-0.2c2.7-0.9,5.4-1.8,8.1-2.7c0.1,0,0.2-0.1,0.3-0.1c0.1,0.1,0.1,0.2,0.2,0.3
		c3.4,9,6.9,18,10.3,27c0.3,0.8,0.6,1.6,0.9,2.4c0.1,0.3,0.3,0.6,0.4,0.9c-2,0.7-3.9,1.4-5.9,2.1c0,0.1,0,0.1,0,0.2
		c0.9,2.1,0.3,4.2-1.3,5.7c-0.9,0.8-1.9,1.5-3,1.9c-1.4,0.5-2.8,0.5-4.2,0.2c-0.5-0.1-1-0.2-1.5-0.4c0,0.1,0,0.1,0,0.2
		c0.2,1.5-0.4,2.7-1.4,3.7c-1.1,1.3-2.6,1.9-4.3,2.1c-1.4,0.1-2.8,0-4.1-0.6c0,0-0.1,0-0.1,0c0,0,0,0-0.1,0c0,0.1,0,0.2,0,0.4
		c-0.1,0.8-0.4,1.4-0.8,2c-0.4,0.6-0.8,1.1-1.3,1.5c-0.8,0.7-1.8,1.1-2.8,1.2c-1.8,0.3-3.4,0-5-0.8c-0.1,0-0.2-0.1-0.3-0.1
		c0,0.1-0.1,0.2-0.1,0.3c-0.1,0.5-0.4,1-0.7,1.4c-0.8,1.1-1.8,2-3,2.6c-1.5,0.6-3.1,0.6-4.6,0.1c-0.7-0.2-1.4-0.6-2-1
		c-0.9-0.5-1.7-1.1-2.6-1.6c-0.3-0.2-0.5-0.3-0.8-0.5c-0.1,0-0.1,0.1-0.1,0.1c-1,1.3-2.4,1.8-4,1.7c-1.9-0.2-3.4-1.1-4.4-2.7
		c-0.7-1-0.8-2.1-0.2-3.3c0,0,0-0.1,0-0.2c-0.1,0-0.1,0-0.2,0.1c-0.9,0.7-2,1-3.2,1c-1.7,0-3.3-0.5-4.6-1.7
		c-0.7-0.6-1.1-1.3-1.2-2.2c-0.1-0.6,0-1.2,0.3-1.8c0.1-0.1,0.1-0.2,0.2-0.4c-0.1,0-0.2,0-0.3,0c-0.1,0-0.2,0.1-0.3,0.2
		c-1.9,1.2-3.8,1.2-5.7,0c-0.7-0.4-1.3-0.9-1.7-1.6c-0.4-0.6-0.7-1.2-0.8-2c0-0.3,0-0.6,0.1-0.9c0-0.1,0-0.2,0-0.2
		c0-0.1-0.1-0.2-0.2-0.1c0,0-0.1,0.1-0.1,0.1c-0.8,0.7-1.7,1-2.8,0.9c-1.7-0.2-3.1-1-4.3-2.2c-0.8-0.9-1.3-2-1.1-3.2
		c0,0,0-0.1,0-0.2c-0.3-0.2-0.7-0.3-1-0.5c-1.1-0.4-2.1-0.9-3.2-1.2c-0.6-0.2-1.3-0.4-1.9-0.6c-0.1-0.1-0.3-0.1-0.4-0.1
		c-0.2,0.2-0.4,0.3-0.6,0.4c-1.7,1.1-3.5,1.1-5.3,0.3c-1.4-0.6-2.7-1.3-4.1-1.9c-2.3-1.1-4.6-2.1-6.9-3.2c-1-0.4-1.5-1.2-1.5-2.2
		c0-0.4,0.1-0.8,0.3-1.2c0.9-2.1,1.8-4.1,2.8-6.2c2.9-6.5,5.8-12.9,8.7-19.4c0.7-1.5,1.3-2.9,2-4.4c0.4-0.9,1.1-1.4,2.1-1.5
		c0.4,0,0.8,0.1,1.2,0.3c1.9,0.9,3.8,1.7,5.7,2.6c2.7,1.2,5.3,2.5,8,3.7c1.1,0.5,1.8,1.5,1.6,2.8C67.2,77.6,67.2,77.7,67.2,77.7z
		 M95.5,126.3c0.4,0.2,0.7,0.4,1,0.6c0.9,0.5,1.7,1.1,2.6,1.6c0.6,0.4,1.2,0.6,1.8,0.8c2.1,0.6,3.8-0.3,5-2.3
		c0.3-0.4,0.2-0.9-0.1-1.3c-0.2-0.2-0.4-0.4-0.6-0.6c-0.3-0.2-0.5-0.5-0.8-0.7c-0.9-0.7-1.9-1.3-2.8-2c-0.1-0.1-0.2-0.1-0.3-0.2
		c-0.4-0.4-0.5-1-0.2-1.4c0.3-0.4,0.9-0.6,1.4-0.4c0.1,0.1,0.3,0.2,0.4,0.3c1.9,1.3,3.7,2.6,5.6,3.8c1.3,0.9,2.7,1.3,4.2,1.2
		c0.7,0,1.5-0.2,2.1-0.6c0.5-0.4,1-0.9,1.3-1.5c0.2-0.4,0.3-0.9,0.1-1.4c-0.1-0.5-0.4-0.9-0.8-1.2c-0.5-0.6-1.2-1-1.8-1.5
		c-2.4-1.7-4.8-3.3-7.2-5c-0.1-0.1-0.2-0.1-0.3-0.2c-0.4-0.4-0.5-1-0.2-1.5c0.3-0.5,0.9-0.6,1.4-0.3c0.1,0.1,0.2,0.2,0.4,0.2
		c3.5,2.4,7,4.9,10.5,7.3c0.3,0.2,0.6,0.4,0.9,0.5c1.1,0.5,2.2,0.6,3.4,0.6c1.5-0.1,2.5-0.8,3.3-2c0.4-0.6,0.4-1.3,0.1-2
		c-0.2-0.4-0.5-0.8-0.7-1.1c-0.6-0.7-1.3-1.3-2-1.8c-3.8-2.8-7.7-5.5-11.5-8.3c-0.2-0.1-0.4-0.3-0.6-0.4c-0.4-0.3-0.5-0.8-0.3-1.3
		c0.2-0.5,0.6-0.7,1.1-0.7c0.3,0,0.5,0.1,0.7,0.3c1.8,1.3,3.6,2.6,5.4,3.9c3.1,2.2,6.1,4.5,9.2,6.5c1.3,0.9,2.7,1.4,4.3,1.4
		c1.8,0.1,3.2-0.8,4.4-2.1c0.1-0.1,0.2-0.2,0.2-0.3c0.4-0.7,0.5-1.5,0.1-2.2c-0.3-0.7-0.8-1.3-1.4-1.7c-3.9-2.8-7.8-5.6-11.6-8.3
		c-6.9-5-13.9-10-20.8-15c-0.1-0.1-0.2-0.1-0.3-0.2c-1.3-0.4-2.6-0.6-3.9-0.3c-1.5,0.3-2.7,1.1-3.8,2c-0.1,0.1-0.3,0.3-0.4,0.5
		c-1,1.8-2.3,3.2-4,4.4c-1.4,1-2.9,1.5-4.6,1.4c-1.4-0.1-2.6-0.5-3.8-1.2c-0.1-0.1-0.3-0.2-0.4-0.3c-1.2-1.3-1.6-2.8-1.1-4.5
		c0-0.1,0.2-0.3,0.3-0.4c1.5-1.3,2.9-2.7,4.2-4.1c1.3-1.3,2.5-2.7,3.5-4.2c0.4-0.5,0.8-1,1.3-1.6c0.4-0.4,0.8-0.7,1.3-1
		c2-1,4.1-2.1,6.1-3.1c0.1-0.1,0.2-0.1,0.4-0.2c-0.2-0.1-0.3-0.1-0.4-0.1c-1.3-0.4-2.7-0.5-4.1-0.4c-0.8,0-1.5,0.2-2.2,0.6
		c-2,1-4.1,1.9-6.2,2.9c-3.4,1.6-6.8,3.2-10.3,4.8c-0.4,0.2-0.9,0.3-1.3,0.4c-0.6,0-1.2,0.1-1.8,0.1c-0.7,0-1.3-0.1-2-0.4
		c-0.8-0.4-1.7-0.7-2.6-1c-0.1,0-0.2-0.1-0.4-0.1c-3.8,8.5-7.6,17.1-11.4,25.6c0.4,0.2,0.8,0.3,1.3,0.5c0.4,0.1,0.8,0.2,1.1,0.3
		c0.2,0.1,0.4,0.1,0.6,0.2c1.1,0.5,2.2,0.8,3.3,1.4c0,0,0.1,0,0.1,0c0.1-0.1,0.1-0.2,0.2-0.3c0.4-0.5,0.8-0.9,1.4-1.1
		c0.6-0.3,1.3-0.4,1.9-0.3c1.8,0.2,3.3,1,4.5,2.5c0.1,0.1,0.1,0.2,0.2,0.3c0.4,0.7,0.6,1.4,0.4,2.2c-0.1,0.4-0.2,0.8-0.3,1.2
		c0.1,0.1,0.3,0.1,0.4,0.2c0.1-0.1,0.2-0.2,0.2-0.3c0.5-0.6,0.9-1.1,1.4-1.7c0.3-0.4,0.7-0.7,1.2-0.9c0.6-0.3,1.3-0.4,2-0.3
		c2.1,0.2,3.7,1.3,4.6,3.2c0.6,1.2,0.7,2.4,0.1,3.6c0,0,0,0.1,0,0.1c0.1,0,0.2-0.1,0.3-0.2c0.3-0.4,0.6-0.7,0.9-1.1
		c0.5-0.6,1-1,1.7-1.2c0.9-0.3,1.9-0.3,2.8-0.1c1.4,0.4,2.6,1.1,3.3,2.5c0.2,0.4,0.3,0.8,0.4,1.2c0.3,1.3,0.2,2.6-0.7,3.6
		c0,0,0,0,0,0.1c0,0.1,0,0.1-0.1,0.2c0.1-0.1,0.2-0.1,0.3-0.2c0.4-0.3,0.9-0.5,1.4-0.6c1.4-0.2,2.7,0.2,3.9,0.9
		c1.1,0.7,1.7,1.7,2,2.9C95.5,125,95.5,125.7,95.5,126.3z M50,106.4c1.2-0.1,2.1-0.6,2.6-1.7c0.1-0.2,0.2-0.4,0.3-0.6
		c4-8.9,7.9-17.7,11.9-26.6c0-0.1,0.1-0.1,0.1-0.2c0-0.1,0-0.2-0.1-0.3c-0.1,0-0.1-0.1-0.2-0.1c-4.5-2.1-9-4.1-13.4-6.2
		c-0.1,0-0.1-0.1-0.2-0.1c-0.1,0-0.2,0-0.3,0.1c0,0.1-0.1,0.2-0.1,0.3c-0.4,0.8-0.7,1.6-1.1,2.4c-4.1,9.1-8.1,18.1-12.2,27.2
		c0,0.1-0.1,0.1-0.1,0.2c0,0.1,0,0.2,0.1,0.3c0.1,0,0.2,0.1,0.3,0.1c1.7,0.8,3.4,1.6,5.1,2.3c1.9,0.9,3.8,1.7,5.7,2.6
		C48.9,106.2,49.4,106.3,50,106.4z"/>
</g>
</svg>
