<?xml version="1.0" encoding="utf-8"?>
<!-- Generator: Adobe Illustrator 28.2.0, SVG Export Plug-In . SVG Version: 6.00 Build 0)  -->
<svg version="1.1" id="Layer_1" xmlns="http://www.w3.org/2000/svg" xmlns:xlink="http://www.w3.org/1999/xlink" x="0px" y="0px"
	 viewBox="0 0 200 200" style="enable-background:new 0 0 200 200;" xml:space="preserve">
<style type="text/css">
	.st0{fill:#F36E46;}
	.st1{fill:none;stroke:#F36E46;stroke-width:3;stroke-miterlimit:10;}
	.st2{fill:#FFFFFF;}
</style>
<circle class="st0" cx="100" cy="100" r="91"/>
<circle class="st1" cx="100" cy="100" r="98.5"/>
<g>
	<path class="st2" d="M99.7,50.1c1.7,0,3,0,4.4,0.1c4.3,0.3,8.4,1.2,12.4,2.6c16,5.6,28.2,19.1,32.1,35.6c0.7,2.9,1.1,5.9,1.3,8.8
		c0.4,8.2-1,16-4.4,23.5c-6.4,14.2-19.3,24.6-34.5,28c-3.4,0.8-6.8,1.2-10.3,1.1c-2,0-3.9,0-5.9-0.2c-2.7-0.2-5.4-0.7-8-1.4
		c-16.7-4.5-29.9-17.4-34.8-33.9c-0.9-3.2-1.6-6.4-1.9-9.7c-0.3-2.9-0.3-5.8-0.1-8.6c1.5-17.8,12.2-33.4,28.2-41.2
		c4.7-2.3,9.7-3.8,14.9-4.4c0.6-0.1,1.3-0.2,1.9-0.2C96.8,50.2,98.4,50.1,99.7,50.1z M132.5,121.4c7-10.2,9.1-25.2,2.4-38.6
		c-6.9-14-19.9-20.2-29.5-21.3c0,0.2,0,0.4,0,0.6c0,11.2,0,22.3,0,33.5c0,0.4,0.1,0.7,0.4,1c8.7,8.2,17.5,16.3,26.2,24.5
		C132.2,121.1,132.4,121.2,132.5,121.4z M67.5,121.4c0.3-0.2,0.5-0.5,0.8-0.7c8.6-8,17.1-16,25.7-24c0.4-0.4,0.6-0.7,0.6-1.3
		c0-8.6,0-17.1,0-25.7c0-2.5,0-5.1,0-7.6c0-0.2,0-0.4,0-0.6c-11.1,1.4-24.2,8.8-30.4,23.3C58.5,98,61.1,112.2,67.5,121.4z
		 M105.5,138.6c3.1-0.4,6-1.2,8.9-2.3c4-1.6,7.5-3.7,10.8-6.5c-0.4-0.6-19.2-18.1-19.6-18.3C105.5,120.5,105.5,129.5,105.5,138.6z
		 M94.5,111.4c0,0-0.1,0-0.1-0.1c-6.5,6.1-13,12.2-19.6,18.3c3.9,3.3,8.2,5.7,13,7.3c2.8,0.9,5.9,1.6,6.7,1.5
		C94.5,129.5,94.5,120.5,94.5,111.4z"/>
</g>
</svg>
