<?xml version="1.0" encoding="utf-8"?>
<!-- Generator: Adobe Illustrator 28.2.0, SVG Export Plug-In . SVG Version: 6.00 Build 0)  -->
<svg version="1.1" id="Layer_1" xmlns="http://www.w3.org/2000/svg" xmlns:xlink="http://www.w3.org/1999/xlink" x="0px" y="0px"
	 viewBox="0 0 200 200" style="enable-background:new 0 0 200 200;" xml:space="preserve">
<style type="text/css">
	.st0{fill:#FFFFFF;}
	.st1{fill:none;stroke:#F36E46;stroke-width:3;stroke-miterlimit:10;}
	.st2{fill:#F36E46;}
</style>
<circle class="st0" cx="100" cy="100" r="91"/>
<circle class="st1" cx="100" cy="100" r="98.5"/>
<g>
	<path class="st2" d="M101.9,48.5c0.2,0.3,0.1,0.7,0.1,1.1c0,33.4,0,66.8,0,100.1c0,0.1,0,0.2,0,0.3c0.1,0.7-0.1,1.1-0.9,0.9
		c-0.2,0-0.4,0-0.5,0c-8.1,0-16.2,0-24.3,0c-0.3,0-0.6,0-0.9,0c-0.4,0-0.6-0.2-0.6-0.6c0-0.4,0-0.7,0-1.1c0-19.2,0-38.4,0-57.7
		c0-4.7,0-9.3,0-14c0-1.1,0.3-1.9,1-2.6c2.1-2.1,4.3-4.2,6.3-6.3c2.2-2.4,4.5-4.7,6.7-7c2.4-2.5,4.7-5,7.2-7.4
		c1.8-1.7,3.4-3.6,5.1-5.4C101.3,48.8,101.4,48.4,101.9,48.5z"/>
	<path class="st2" d="M70.2,96.9c0.3,0.6,0.2,1,0.2,1.5c0,17,0,34.1,0,51.1c0,0,0,0.1,0,0.1c0,1.4,0.1,1.3-1.3,1.3
		c-6,0-11.9,0-17.9,0c-1.1,0-1.2,0.2-1.2-1.1c0-12.5,0-25,0-37.4c0-0.8,0.2-1.3,1-1.8c4.6-3.2,9.1-6.6,13.7-9.8
		C66.5,99.5,68.3,98.2,70.2,96.9z"/>
	<path class="st2" d="M129.5,104.3c2.3,1.6,4.4,3.1,6.6,4.6c3.5,2.5,7,4.9,10.5,7.4c0.3,0.2,0.6,0.5,1,0.7c0.8,0.5,1.9,0.9,2.2,1.6
		c0.4,0.8,0.1,1.9,0.1,2.8c0,9.4,0,18.9,0,28.3c0,0.2,0,0.5,0,0.7c0,1,0,1-1.1,1c-6.1,0-12.3,0-18.4,0c-1,0-1,0-1-0.9
		c0-15.3,0-30.6,0-46C129.4,104.6,129.4,104.6,129.5,104.3z"/>
	<path class="st2" d="M106.3,127.9c2.3,1.5,4.3,2.9,6.4,4.3c2.8,1.9,5.6,3.9,8.4,5.8c1,0.7,1.9,1.3,2.9,2c0.4,0.3,0.7,0.5,0.7,1.1
		c0,2.2,0,4.4,0,6.6c-0.5,0.2-0.8,0-1.1-0.3c-1.9-1.3-3.7-2.6-5.7-3.8c-3.5-2.1-6.9-4.6-10.4-6.7c-0.9-0.5-1.2-1.1-1.2-2.2
		C106.4,132.5,106.3,130.3,106.3,127.9z"/>
	<path class="st2" d="M106.6,104.8c2.1,1.4,4,2.7,5.9,4c3.9,2.7,7.7,5.3,11.6,8c0.6,0.4,0.8,0.8,0.8,1.5c0,1.9,0,3.7,0,5.6
		c0,0.8-0.2,0.9-0.9,0.5c-2.8-1.8-5.6-3.6-8.4-5.5c-2.6-1.7-5.1-3.4-7.7-5.1c-0.3-0.2-0.5-0.4-0.8-0.5c-0.5-0.2-0.6-0.6-0.6-1.1
		C106.6,109.8,106.6,107.4,106.6,104.8z"/>
	<path class="st2" d="M106.6,83.7c0.9,0.1,1.4,0.7,1.9,1.1c5.1,3.4,10.1,6.9,15.2,10.4c0.9,0.6,1.4,1.2,1.3,2.4
		c-0.1,1.5,0,3.1,0,4.6c0,0.3,0.2,0.8-0.2,1c-0.4,0.3-0.8-0.2-1.1-0.4c-1.9-1.2-3.8-2.5-5.7-3.7c-3.6-2.3-7.1-4.7-10.7-7
		c-0.4-0.3-0.7-0.5-0.7-1C106.6,88.6,106.6,86.2,106.6,83.7z"/>
	<path class="st2" d="M124.9,81.7c-0.7,0.2-1.1-0.1-1.5-0.4c-4.9-3.2-9.8-6.5-14.7-9.7c-0.5-0.3-0.9-0.6-1.5-0.9
		c-0.5-0.2-0.7-0.6-0.7-1.1c0-2.4,0-4.8,0-7.3c1.1,0.4,2,1.2,2.9,1.8c4.2,2.9,8.5,5.8,12.7,8.8c0.7,0.5,1.5,1,2.2,1.5
		c0.3,0.2,0.6,0.5,0.6,1C124.9,77.4,124.9,79.5,124.9,81.7z"/>
	<path class="st2" d="M106.6,116.4c6,4.1,11.8,8,17.5,12c0.5,0.3,0.9,0.7,0.9,1.4c0,1.9,0,3.7,0,5.6c0,0.8-0.3,1-1.1,0.5
		c-1.2-0.8-2.4-1.6-3.6-2.3c-4.2-2.8-8.4-5.5-12.7-8.3c-0.7-0.4-1-0.9-1-1.8C106.6,121.1,106.6,118.9,106.6,116.4z"/>
	<path class="st2" d="M106.6,73c1.3,0.5,2.2,1.3,3.1,2c2.8,1.9,5.6,3.9,8.4,5.8c2,1.4,4,2.8,6.1,4.2c0.5,0.3,0.8,0.6,0.8,1.3
		c0,1.9,0,3.7,0,5.6c0,0.3,0.2,0.6-0.2,0.8c-0.3,0.1-0.5-0.1-0.7-0.2c-2.7-1.7-5.3-3.5-8-5.2c-3-1.9-5.9-3.8-8.8-5.8
		c-0.4-0.3-0.6-0.4-0.6-0.9C106.6,77.9,106.6,75.5,106.6,73z"/>
	<path class="st2" d="M106.6,94.1c2.1,1.4,3.9,2.7,5.8,4c3.8,2.6,7.7,5.3,11.5,7.9c0.7,0.5,1.1,1,1,1.9c-0.1,1.7,0,3.4,0,5.2
		c0,0.3,0.1,0.6-0.2,0.7c-0.3,0.2-0.7,0-1-0.2c-1.9-1.3-3.9-2.5-5.8-3.8c-3.1-2.1-6.2-4.1-9.4-6.2c-0.6-0.4-1.5-0.7-1.9-1.3
		c-0.3-0.6-0.1-1.5-0.1-2.3C106.6,98.1,106.6,96.3,106.6,94.1z"/>
	<path class="st2" d="M106.6,51.7c0.8,0.1,1.2,0.6,1.7,0.9c4.5,3.1,9.1,6.2,13.6,9.4c0.7,0.5,1.5,1,2.2,1.5c0.6,0.4,0.9,0.8,0.8,1.6
		c-0.1,1.8,0,3.5,0,5.3c0,1-0.3,1.1-1.1,0.6c-1.9-1.2-3.7-2.5-5.6-3.7c-3.5-2.3-7-4.6-10.6-6.9c-0.8-0.5-1.1-1.1-1.1-2
		C106.6,56.2,106.6,54,106.6,51.7z"/>
	<path class="st2" d="M124,151c-0.5,0-1.1,0-1.6,0c-4.9,0-9.9,0-14.8,0c-1,0-1,0-1-1c0-3.2,0-6.5,0-9.8
		C107.5,140.4,117.2,146.3,124,151z"/>
</g>
</svg>
