<?xml version="1.0" encoding="utf-8"?>
<!-- Generator: Adobe Illustrator 28.2.0, SVG Export Plug-In . SVG Version: 6.00 Build 0)  -->
<svg version="1.1" id="Layer_1" xmlns="http://www.w3.org/2000/svg" xmlns:xlink="http://www.w3.org/1999/xlink" x="0px" y="0px"
	 viewBox="0 0 200 200" style="enable-background:new 0 0 200 200;" xml:space="preserve">
<style type="text/css">
	.st0{fill:#FFFFFF;}
	.st1{fill:none;stroke:#F36E46;stroke-width:3;stroke-miterlimit:10;}
	.st2{fill:#F36E46;}
</style>
<circle class="st0" cx="100" cy="100.5" r="91.1"/>
<circle class="st1" cx="100" cy="100.5" r="98.5"/>
<g>
	<path class="st2" d="M54,108.6c-0.1-0.2,0-0.4,0.2-0.5c0.1-0.1,0.2-0.2,0.3-0.3c0.2-0.2,0.5-0.1,0.7-0.1c0.2,0.5,0.7,0.3,1.1,0.3
		c0.9,0,1.8,0,2.8,0c28,0,56,0,84,0c0.5,0,1.1,0.3,1.4-0.3c1.1-0.2,1.5,0.3,1.5,1.4c-0.1,1.8-0.1,3.5,0,5.3c0,1.1-0.4,1.5-1.4,1.4
		c-0.1,0-0.2,0-0.4,0c-29.5,0-59,0-88.4,0c-0.7,0-1.6,0.2-1.7-0.9c0.6-1.7,0.1-3.4,0.3-5.1C54.3,109.5,54.5,109,54,108.6z"/>
	<path class="st2" d="M53.4,89.9c-0.5-0.3-0.5-0.8-0.5-1.3c-0.4-3.5-0.4-7,0.8-10.4c0.6-1.7,1.5-2.8,3.5-3.1
		c2.7-0.4,4.2-2.4,4.1-5.2c0-0.6-0.2-1-0.8-1.2c-1.6-0.5-2.6-3-1.7-4.4c0.3-0.5,0.4-0.8,0.3-1.3c0-2.1,0.3-4.1,2-5.6
		c0.2-0.2,0.4-0.4,0.3-0.6c-1.1-1.1,0.2-1.1,0.7-1.3c2.3-1.2,4.5-0.2,6.6,0.7c0.4,0.2,0.8,0.5,1.2,0.5c1.9,0.3,2.5,1.6,2.7,3.3
		c0.1,0.8,0.1,1.5,0.1,2.3c0,0.8,0,1.5,0.5,2.2c0.8,1.3-0.3,3.7-1.7,4.2c-0.8,0.3-1,0.8-0.9,1.5c0.2,1,0.4,2,0.7,2.9
		c0.5,1.4,2,1.9,3.2,2c2.5,0.3,3.5,2,4,4.1c0.8,3.2,1.1,6.4,0.5,9.7c-0.1,0.4,0,0.9-0.5,1.1c-0.3-0.3-0.6-0.3-1,0
		c-3.1,0-6.1,0.1-9.2,0.1c-4.7,0-9.4,0-14.1-0.1C53.9,89.7,53.6,89.7,53.4,89.9z M69.4,65.4c0-1.5-0.3-2.5-0.9-3.4
		c-0.3-0.4-0.5-0.5-0.9-0.3c-1.1,0.7-2.2,0.7-3.3,0.1c-0.6-0.3-0.9-0.1-1.2,0.4c-1.6,2.6-0.4,6.5,2.3,7.9c0.4,0.2,0.7,0.2,1,0
		C68.1,68.8,69.3,67.2,69.4,65.4z M67.9,72.2c-0.8,0.4-1.7,1.2-2.6,0.7c-1.7-1.1-1.8,0.1-2.1,1.2c0,0.1-0.1,0.2-0.1,0.3
		c-0.7,1.6-0.5,2.2,1.2,2.8c1.6,0.6,3.1,0.2,4.4-0.8c0.3-0.2,0.8-0.5,0.4-1.1C68.5,74.4,68.3,73.3,67.9,72.2z"/>
	<path class="st2" d="M144.5,90c-5.2,0-10.4,0.1-15.6,0.1c-2,0-4,0-6-0.1c-0.4-0.4-0.8-0.4-1.2,0c-0.9-0.9-0.7-2.1-0.8-3.1
		c-0.2-2.9,0-5.8,1-8.6c0.6-1.6,1.4-2.8,3.4-3c2.8-0.4,4.3-2.5,4.2-5.3c0-0.5-0.3-1-0.8-1.2c-1.8-0.7-2.6-3-1.6-4.6
		c0.5-0.8,0.1-1.5,0.2-2.3c0.3-1.6,0.6-3.2,1.9-4.3c0.2-0.2,0.5-0.5,0.3-0.7c-1.1-1.1,0.3-1.1,0.6-1.2c2.4-1.2,4.7-0.2,6.9,0.8
		c0.4,0.2,0.7,0.4,1.1,0.5c1.8,0.2,2.4,1.4,2.6,3c0.1,0.8,0.1,1.6,0.2,2.4c0,0.8,0,1.6,0.5,2.5c0.7,1.4-0.4,3.7-1.8,4.1
		c-0.7,0.2-0.9,0.7-0.8,1.2c0.1,1.2,0.2,2.4,0.9,3.5c0.8,1.3,2.2,1.7,3.6,1.9c1.4,0.2,2.2,0.9,2.7,2c1,2,1.3,4.1,1.4,6.2
		c0,0-0.1,0.1-0.1,0.1c0,0.1,0.1,0.1,0.1,0.2c0,1,0,2.1,0,3.1c-0.2,0.1-0.2,0.3,0,0.5c-0.1,0.9,0.1,1.9-0.7,2.6
		C145.9,89.6,145.2,89.6,144.5,90z M130.6,64.9c0,2.3,1.3,3.8,3.1,5.1c0.3,0.2,0.6,0.2,0.9,0c2.7-1.3,3.9-4.9,2.5-7.6
		c-0.4-0.7-0.7-1.2-1.6-0.6c-0.7,0.5-1.6,0.4-2.4,0.1c-1.4-0.5-1.7-0.4-2.1,1.1C130.7,63.7,130.6,64.3,130.6,64.9z M132.1,72.1
		c-0.3,1.2-0.6,2.2-1.1,3c-0.3,0.5-0.2,0.8,0.2,1.1c1.5,1.5,4.5,1.5,6,0c0.3-0.3,0.5-0.5,0.2-1c-0.5-0.8-0.8-1.7-1-2.6
		c-0.1-0.3-0.2-0.6-0.5-0.3C134.6,73.3,133.4,73.1,132.1,72.1z"/>
	<path class="st2" d="M87.6,144.9c-1.3-0.4-0.7-1.5-0.7-2.2c0-0.8,0.7-0.8,1.3-0.8c2.9,0,5.8,0,8.8-0.1c-3.2-1.1-5.8-2.9-7.4-6
		c-1.6-3-1.8-6.3-0.8-9.5c1.7-5.3,6.7-8.4,12.4-7.9c5,0.4,9.5,4.7,10.3,9.7c0.9,6.1-1.9,10.6-8.6,13.7c1.2,0,2.5,0,3.7,0
		c1.6,0,3.2,0,4.8,0c0.6,0,1.3-0.1,1.5,0.6c0.2,0.7,0.4,1.5-0.3,2.2c-0.1,0-0.2,0-0.2,0c-8,0-16,0-24.1,0
		C88.2,144.6,87.8,144.6,87.6,144.9z"/>
	<path class="st2" d="M50.5,93.9c0.2,0,0.3,0,0.5,0c0.3,0.7,0.9,0.4,1.3,0.4c9.8,0,19.6,0,29.3,0c0.4,5.6-4.5,10.7-10.4,10.8
		c-3.6,0.1-7.2,0.1-10.8,0c-5.9-0.1-10.4-4.7-10.4-10.6c0.2-0.1,0.2-0.3,0.2-0.5l0,0C50.3,94,50.4,93.9,50.5,93.9z"/>
	<path class="st2" d="M149.6,97.2c-1,4.2-4.8,7.6-9.2,7.8c-4,0.2-8.1,0.2-12.1,0c-5.1-0.2-9-3.8-9.9-8.8c0.2,0,0.4,0,0.4-0.2
		c0-0.1-0.3-0.2-0.5-0.3c-0.1-0.5-0.1-1,0-1.4c9.7,0,19.4,0,29.1,0c0.5,0,1.1,0.2,1.4-0.4c0.2,0,0.5,0,0.7,0c0,0.2,0.2,0.3,0.4,0.4
		c0.1,0.6,0.2,1.1-0.1,1.7C149.1,96.2,149.3,96.7,149.6,97.2z"/>
	<path class="st2" d="M144.5,107.8c-0.3,0.6-0.9,0.3-1.4,0.3c-28,0-56,0-84,0c-0.9,0-1.8,0-2.8,0c-0.4,0-0.8,0.1-1.1-0.3
		c0.4,0,0.8-0.1,1.2-0.1c28.9,0,57.8,0,86.8,0C143.6,107.7,144.1,107.8,144.5,107.8z"/>
	<path class="st2" d="M81.6,94.3c-9.8,0-19.6,0-29.3,0c-0.5,0-1.1,0.3-1.3-0.4c3.8,0,7.7,0,11.5,0c6,0,11.9,0,17.9,0
		C80.8,93.8,81.4,93.6,81.6,94.3z"/>
	<path class="st2" d="M148.8,93.9c-0.3,0.6-0.9,0.4-1.4,0.4c-9.7,0-19.4,0-29.1,0c0.1-0.5,0.5-0.5,0.8-0.5
		C129.1,93.8,139,93.8,148.8,93.9z"/>
	<path class="st2" d="M87.6,144.9c0.2-0.3,0.5-0.3,0.9-0.3c8,0,16,0,24.1,0c0.1,0,0.2,0,0.2,0c-0.2,0.4-0.6,0.3-0.9,0.3
		c-8,0-15.9,0-23.9,0C87.8,145,87.7,145,87.6,144.9z"/>
	<path class="st2" d="M54,108.6c0.4,0.3,0.3,0.8,0.3,1.2c-0.1,1.7,0.3,3.4-0.3,5.1C53.9,112.8,53.9,110.7,54,108.6z"/>
	<path class="st2" d="M149.6,97.2c-0.3-0.5-0.5-0.9,0.2-1.2C149.9,96.4,149.8,96.8,149.6,97.2z"/>
	<path class="st2" d="M144.5,90c0.7-0.4,1.4-0.4,2.2,0C145.9,90.1,145.2,90,144.5,90z"/>
	<path class="st2" d="M121.7,89.9c0.4-0.3,0.8-0.3,1.2,0C122.5,90,122.1,90.1,121.7,89.9z"/>
	<path class="st2" d="M118.4,95.7c0.2,0.1,0.4,0.2,0.5,0.3c0,0.3-0.2,0.2-0.4,0.2C118.4,96.1,118.4,95.9,118.4,95.7z"/>
	<path class="st2" d="M77.3,90c0.3-0.4,0.6-0.3,1,0C78,90,77.7,90,77.3,90z"/>
	<path class="st2" d="M53.4,89.9c0.3-0.3,0.5-0.3,0.7,0C53.8,90,53.6,90.1,53.4,89.9z"/>
	<path class="st2" d="M147.3,87.3c-0.2-0.2-0.2-0.3,0-0.5C147.3,87,147.3,87.2,147.3,87.3z"/>
	<path class="st2" d="M50.2,94c0,0.2-0.1,0.4-0.2,0.5C50,94.3,50,94.1,50.2,94z"/>
	<path class="st2" d="M147.4,83.7c0-0.1-0.1-0.1-0.1-0.2c0,0,0.1,0,0.1-0.1C147.3,83.6,147.3,83.6,147.4,83.7z"/>
	<path class="st2" d="M50.5,93.9c-0.1,0.1-0.2,0.1-0.2,0.2C50.3,93.9,50.3,93.8,50.5,93.9z"/>
	<path class="st2" d="M149.9,94.3c-0.2,0-0.3-0.2-0.4-0.4C149.7,93.9,149.9,94.1,149.9,94.3z"/>
	<path class="st2" d="M54.5,107.9c-0.1,0.1-0.2,0.2-0.3,0.3C54.3,108,54.4,107.9,54.5,107.9z"/>
</g>
</svg>
