<?xml version="1.0" encoding="utf-8"?>
<!-- Generator: Adobe Illustrator 28.2.0, SVG Export Plug-In . SVG Version: 6.00 Build 0)  -->
<svg version="1.1" id="Layer_1" xmlns="http://www.w3.org/2000/svg" xmlns:xlink="http://www.w3.org/1999/xlink" x="0px" y="0px"
	 viewBox="0 0 200 200" style="enable-background:new 0 0 200 200;" xml:space="preserve">
<style type="text/css">
	.st0{fill:#FFFFFF;}
	.st1{fill:none;stroke:#F36E46;stroke-width:3;stroke-miterlimit:10;}
	.st2{fill:#F36E46;}
</style>
<circle class="st0" cx="100" cy="100" r="91"/>
<circle class="st1" cx="100" cy="100" r="98.5"/>
<g>
	<path class="st2" d="M100,150.2c-16.5,0-33,0-49.4,0c-0.5,0-0.5,0-0.5-0.5c0-10.9,0-21.7,0-32.6c0-0.6-0.1-0.5,0.5-0.5
		c33,0,66,0,99,0c0.6,0,0.5-0.1,0.5,0.5c0,10.9,0,21.7,0,32.6c0,0.6,0.1,0.5-0.5,0.5C133,150.2,116.5,150.2,100,150.2z M74.1,139.2
		c2.2,0,4.4,0,6.6,0c0.5,0,0.5,0.1,0.5-0.4c0-3.5,0-7,0-10.6c0-0.5,0.1-0.5-0.4-0.5c-4.4,0-8.8,0-13.2,0c-0.1,0-0.2,0-0.3,0
		c-0.1,0-0.2,0-0.2,0.2c0,0.1,0,0.2,0,0.2c0,3.5,0,7.1,0,10.6c0,0.1,0,0.2,0,0.2c0,0.1,0,0.2,0.2,0.2c0.1,0,0.2,0,0.3,0
		C69.8,139.2,71.9,139.2,74.1,139.2z M125.8,139.2c2.2,0,4.4,0,6.6,0c0.5,0,0.4,0.1,0.4-0.5c0-3.5,0-7,0-10.6c0-0.1,0-0.2,0-0.3
		c0-0.1,0-0.2-0.2-0.2c-0.1,0-0.2,0-0.3,0c-2.4,0-4.7,0-7.1,0c-2.1,0-4.1,0-6.2,0c-0.3,0-0.3,0-0.3,0.3c0,3.6,0,7.2,0,10.8
		c0,0.3,0,0.3,0.3,0.3c0.1,0,0.2,0,0.2,0C121.5,139.2,123.7,139.2,125.8,139.2z M100,139.2c2.2,0,4.4,0,6.6,0c0.1,0,0.2,0,0.3,0
		c0.1,0,0.2,0,0.2-0.2c0-0.1,0-0.2,0-0.3c0-3.5,0-7.1,0-10.6c0-0.5,0.1-0.4-0.4-0.4c-4.4,0-8.8,0-13.2,0c-0.5,0-0.5-0.1-0.5,0.4
		c0,3.5,0,7.1,0,10.6c0,0.1,0,0.2,0,0.2c0,0.1,0.1,0.2,0.2,0.2c0.1,0,0.2,0,0.3,0C95.6,139.2,97.8,139.2,100,139.2z"/>
	<path class="st2" d="M50.5,115.3c0.9-0.9,1.8-1.9,2.7-2.8c5.8-6.1,11.6-12.3,17.4-18.4c2.6-2.7,5.2-5.5,7.8-8.2
		c0.1-0.1,0.1-0.1,0.2-0.2c0.5-0.5,1.3-0.3,1.4,0.4c0,0.2,0,0.3,0,0.5c0,5.7,0,11.4,0,17.1c0,0.6-0.1,0.5,0.5,0.5
		c0.4,0,0.8,0.1,1.2,0c0.3-0.2,0.6-0.5,0.8-0.8c5.6-5.8,11.1-11.7,16.7-17.5c0.1-0.1,0.1-0.2,0.2-0.2c0.5-0.5,1.2-0.2,1.4,0.4
		c0,0.2,0,0.3,0,0.5c0,5.7,0,11.4,0,17.1c0,0.6-0.1,0.5,0.5,0.5c0.4,0,0.8,0.1,1.2,0c0.3-0.2,0.5-0.5,0.8-0.8
		c5.6-5.8,11.1-11.6,16.7-17.4c0.1-0.1,0.2-0.2,0.3-0.3c0.3-0.3,0.6-0.3,0.9-0.2c0.3,0.1,0.5,0.4,0.5,0.7c0,0.1,0,0.2,0,0.3
		c0,9.4,0,18.9,0,28.3c0,0.1,0,0.2,0,0.2c0,0.2,0,0.3-0.2,0.3c-0.1,0-0.2,0-0.3,0c-23.4,0-46.8,0-70.3,0
		C50.8,115.4,50.7,115.4,50.5,115.3C50.5,115.3,50.5,115.3,50.5,115.3z"/>
	<path class="st2" d="M145,89.5c0.1,1.9,0.2,3.9,0.4,5.8c0.2,2.7,0.4,5.5,0.5,8.2c0.1,1.5,0.2,3.1,0.3,4.6c0.1,1.9,0.2,3.8,0.4,5.6
		c0,0.5,0.1,0.9,0.1,1.4c0,0.1,0,0.2-0.2,0.2c-0.1,0-0.2,0-0.2,0c-6.2,0-12.4,0-18.6,0c-0.5,0-0.5,0.1-0.4-0.4
		c0.1-2.1,0.3-4.1,0.4-6.2c0.1-1.9,0.2-3.8,0.3-5.7c0.1-2,0.3-3.9,0.4-5.9c0.1-1.4,0.2-2.8,0.3-4.3c0.1-2,0.3-4,0.4-6
		c0.1-1.4,0.2-2.9,0.3-4.3c0.1-2,0.3-4.1,0.4-6.1c0.1-1.4,0.2-2.9,0.3-4.3c0.1-2,0.3-4,0.4-6c0-0.6,0.1-1.2,0.1-1.8
		c0-0.2,0-0.3,0-0.5c0.1-0.5,0-0.4,0.4-0.4c1.2,0,2.3,0,3.5,0c2.9,0,5.8,0,8.6,0c0.1,0,0.2,0,0.3,0c0.2,0,0.2,0.1,0.2,0.2
		c0,0.4,0,0.8,0.1,1.2c0.1,1.5,0.2,2.9,0.3,4.4c0.1,2,0.3,3.9,0.4,5.9c0.1,1.9,0.2,3.8,0.4,5.7c0.1,1.9,0.2,3.8,0.4,5.8
		C144.9,87.6,144.9,88.6,145,89.5C145,89.5,145,89.5,145,89.5z"/>
	<path class="st2" d="M66.4,53.1c1,0.1,2,0.3,3.1,0.4c3.2,0.5,6.4,1.1,9.6,1.7c2.4,0.4,4.9,0.9,7.3,1.3c1.9,0.3,3.8,0.5,5.7,0.6
		c1.2,0,2.5-0.1,3.7-0.2c1.4-0.1,2.8-0.3,4.1-0.7c1.6-0.4,3.1-1.1,4.6-1.9c1.4-0.8,2.8-1.6,4.3-2.3c2.2-1,4.4-1.7,6.8-2
		c1.8-0.2,3.6-0.3,5.4-0.1c2.1,0.2,4.1,0.5,6.1,1c1.7,0.5,3.3,1.1,4.9,1.9c1.1,0.6,2,1.3,2.9,2.2c0.8,0.8,1.4,1.7,1.6,2.7
		c0.1,0.3,0.1,0.5,0.1,0.8c-0.1,0-0.1,0-0.2-0.1c-1.1-1-2.4-1.5-3.8-1.9c-1.6-0.4-3.3-0.6-5-0.7c-2,0-3.9,0.1-5.8,0.3
		c-1.6,0.2-3.1,0.5-4.6,1c-1.2,0.5-2.4,1.1-3.5,1.9c-1.4,0.9-2.7,1.8-4.2,2.6c-2.8,1.5-5.7,2.5-8.9,3c-2.4,0.4-4.9,0.5-7.3,0.4
		c-1.2,0-2.3-0.2-3.4-0.4c-3.3-0.6-6.4-1.6-9.5-3c-4.1-1.8-8-4-11.6-6.7c-0.7-0.5-1.4-1.1-2.1-1.7C66.5,53.3,66.4,53.2,66.4,53.1
		C66.4,53.1,66.4,53.1,66.4,53.1z"/>
</g>
</svg>
