<?xml version="1.0" encoding="utf-8"?>
<!-- Generator: Adobe Illustrator 28.2.0, SVG Export Plug-In . SVG Version: 6.00 Build 0)  -->
<svg version="1.1" id="Layer_1" xmlns="http://www.w3.org/2000/svg" xmlns:xlink="http://www.w3.org/1999/xlink" x="0px" y="0px"
	 viewBox="0 0 200 200" style="enable-background:new 0 0 200 200;" xml:space="preserve">
<style type="text/css">
	.st0{fill:#8AC24A;}
	.st1{fill:none;stroke:#8AC24A;stroke-width:3;stroke-miterlimit:10;}
	.st2{fill:#FFFFFF;}
</style>
<circle class="st0" cx="100" cy="100.5" r="91.1"/>
<circle class="st1" cx="100" cy="100.5" r="98.5"/>
<g>
	<path class="st2" d="M66.2,105.7c0.1-1,0.7-1.4,1.4-1.8c2.6-1.3,5.2-2.7,7.8-4c5.5-2.9,11-5.7,16.5-8.6c0.3-0.1,0.7-0.2,0.6-0.7
		c-0.5-1.8,0.4-3,1.7-3.9c2.9-2,8-2,10.8,0.1c1.1,0.8,1.9,1.9,1.7,3.4c-0.2,1.4-1.2,2.3-2.4,2.9c-2.4,1.3-4.9,1.4-7.5,0.8
		c-0.4-0.1-0.7-0.1-1.1,0.1c-8,4.2-16,8.3-24.1,12.5c-0.4,0.2-0.9,0.4-0.9,1.1c0,0.6,0.5,0.7,0.9,0.9c8,3.8,16,7.7,24,11.5
		c2.7,1.2,5.5,1.1,8.2-0.2c19.6-9.3,39.3-18.7,58.9-28.1c0.4-0.2,0.8-0.4,1.2-0.8c0.8-0.8,0.8-1.7,0-2.5c-0.4-0.4-1-0.7-1.5-0.9
		c-19.5-9.3-39.1-18.6-58.6-27.9c-2.8-1.3-5.7-1.4-8.6,0c-19.6,9.3-39.3,18.7-58.9,28c-0.5,0.2-0.9,0.5-1.3,0.9
		c-0.7,0.7-0.7,1.5,0,2.2c0.4,0.4,0.9,0.7,1.4,0.9c6.3,3,12.6,6,19,9C59,102.3,62.5,104.1,66.2,105.7z M72.4,112.7
		c0,0.1,0,0.2,0,0.3c1,8.4,2.1,16.9,3.1,25.3c0.1,0.4,0.2,0.6,0.6,0.8c8.1,3.7,16.6,5.5,25.5,5.1c7.6-0.3,14.7-2.1,21.5-5.4
		c5.1-2.5,9.9-5.5,13.6-9.9c2.1-2.5,3.4-5.2,3.3-8.7c-0.2-4.3,0-8.5,0-12.8c0-0.4,0-0.9,0-1.4c-0.4,0.2-0.6,0.3-0.9,0.4
		c-11.6,5.6-23.3,11.2-34.9,16.9c-3.1,1.5-6.1,1.5-9.2,0c-7.2-3.5-14.3-6.9-21.5-10.3C73.2,113,72.9,112.7,72.4,112.7z M67.9,111.9
		c-0.1,0.2-0.1,0.4-0.1,0.5c-0.7,5.2-1.4,10.5-2.1,15.7c-0.7,5.7-1.4,11.5-2.3,17.2c-0.2,1.7,0.2,3,1.4,4.1c1.4,1.4,3.6,1.7,5.3,0.8
		c1.8-0.9,2.7-2.8,2.4-4.8c-0.6-4.8-1.3-9.6-1.9-14.4c-0.8-6.1-1.6-12.2-2.4-18.4C68.2,112.5,68.3,112.1,67.9,111.9z M58.7,106
		c0,0.2-0.1,0.3-0.1,0.4c0,5.3,0,10.6,0,15.9c0,2.5,1.4,4.4,3,6.4c0.3-2.2,0.5-4.3,0.8-6.3c0.5-4.4,1.1-8.9,1.6-13.3
		c0-0.3,0-0.5-0.3-0.7C62.1,107.7,60.4,106.9,58.7,106z"/>
	<path class="st2" d="M66.2,105.7c-3.7-1.5-7.2-3.3-10.8-5c-6.3-3-12.7-6-19-9c-0.5-0.2-1-0.5-1.4-0.9c-0.7-0.8-0.6-1.5,0-2.2
		c0.4-0.4,0.8-0.7,1.3-0.9c19.6-9.4,39.3-18.7,58.9-28c2.8-1.3,5.7-1.3,8.6,0c19.5,9.3,39.1,18.6,58.6,27.9c0.5,0.3,1.1,0.5,1.5,0.9
		c0.8,0.8,0.8,1.7,0,2.5c-0.3,0.3-0.8,0.6-1.2,0.8c-19.6,9.4-39.3,18.7-58.9,28.1c-2.7,1.3-5.5,1.4-8.2,0.2c-8-3.7-16-7.6-24-11.5
		c-0.4-0.2-0.9-0.3-0.9-0.9s0.5-0.8,0.9-1.1c8-4.2,16-8.3,24.1-12.5c0.4-0.2,0.7-0.2,1.1-0.1c2.6,0.6,5.1,0.5,7.5-0.8
		c1.2-0.6,2.2-1.5,2.4-2.9c0.2-1.5-0.6-2.6-1.7-3.4c-2.8-2.1-8-2.1-10.8-0.1c-1.3,0.9-2.2,2.1-1.7,3.9c0.2,0.6-0.3,0.6-0.6,0.7
		c-5.5,2.9-11,5.7-16.5,8.6c-2.6,1.3-5.2,2.7-7.8,4C66.9,104.2,66.3,104.7,66.2,105.7z"/>
	<path class="st2" d="M72.4,112.7c0.5,0,0.8,0.3,1.1,0.4c7.2,3.4,14.3,6.9,21.5,10.3c3.1,1.5,6.1,1.5,9.2,0
		c11.6-5.6,23.3-11.2,34.9-16.9c0.2-0.1,0.5-0.2,0.9-0.4c0,0.5,0,1,0,1.4c0,4.3-0.1,8.5,0,12.8c0.2,3.4-1.1,6.2-3.3,8.7
		c-3.8,4.4-8.5,7.4-13.6,9.9c-6.8,3.3-14,5.1-21.5,5.4c-8.9,0.4-17.4-1.5-25.5-5.1c-0.4-0.2-0.5-0.4-0.6-0.8
		c-1-8.5-2.1-16.9-3.1-25.3C72.4,113,72.4,112.9,72.4,112.7z"/>
	<path class="st2" d="M67.9,111.9c0.4,0.2,0.4,0.6,0.4,0.9c0.8,6.1,1.6,12.2,2.4,18.4c0.6,4.8,1.2,9.6,1.9,14.4
		c0.3,1.9-0.7,3.9-2.4,4.8c-1.8,0.9-4,0.6-5.3-0.8c-1.1-1.1-1.6-2.4-1.4-4.1c0.8-5.7,1.5-11.5,2.3-17.2c0.7-5.2,1.4-10.5,2.1-15.7
		C67.8,112.3,67.8,112.1,67.9,111.9z"/>
	<path class="st2" d="M58.7,106c1.7,0.8,3.4,1.6,5,2.4c0.3,0.1,0.4,0.3,0.3,0.7c-0.6,4.4-1.1,8.9-1.6,13.3c-0.3,2-0.5,4.1-0.8,6.3
		c-1.6-2-2.9-3.9-3-6.4c-0.1-5.3,0-10.6,0-15.9C58.6,106.3,58.7,106.2,58.7,106z"/>
</g>
</svg>
