<?xml version="1.0" encoding="utf-8"?>
<!-- Generator: Adobe Illustrator 28.2.0, SVG Export Plug-In . SVG Version: 6.00 Build 0)  -->
<svg version="1.1" id="Layer_1" xmlns="http://www.w3.org/2000/svg" xmlns:xlink="http://www.w3.org/1999/xlink" x="0px" y="0px"
	 viewBox="0 0 200 200" style="enable-background:new 0 0 200 200;" xml:space="preserve">
<style type="text/css">
	.st0{fill:none;stroke:#8AC24A;stroke-width:3;stroke-miterlimit:10;}
	.st1{fill:#8AC24A;}
	.st2{fill:#FFFFFF;}
</style>
<g>
	<circle class="st0" cx="100" cy="100.5" r="98.5"/>
</g>
<circle id="Ellipse_13_00000136386806081143569470000004120440960093253563_" class="st1" cx="100" cy="100.5" r="92.5"/>
<g>
	<path class="st2" d="M102.6,44.3c0.2,0.1,0.5,0.1,0.6,0.2c2.2,0.4,3.7,2.4,3.6,4.6c-0.1,2.2-1.8,4.1-3.9,4.4
		c-1.5,0.2-2.8-0.2-3.9-1.2c-1.4-1.4-4.2-1.5-5.6-0.1c-0.1,0.1-0.2,0.2-0.2,0.4c0,1.7,0,3.3,0,5c0,0.2,0.1,0.3,0.3,0.4
		c2.5,0.6,4.6,2,6.1,4.1c0.1,0.2,0.3,0.2,0.5,0.2c1.7,0,3.3-0.1,5,0.1c3.4,0.2,6.5,1.5,9.1,3.6c3.5,2.8,5.5,6.4,6.1,10.8
		c0.1,0.8,0.1,1.5,0.1,2.3c0,2.2,0,4.3,0,6.5c0,0.4,0.1,0.4,0.4,0.4c1.6,0,2.9,0.8,3.3,2.2c0.6,1.9-0.8,4.1-2.9,4.1
		c-4.8,0-9.6,0-14.4,0c-1.6,0-2.9-1.4-3-3c-0.1-1.6,1.1-3,2.6-3.3c0.4-0.1,0.7-0.1,1.1-0.1c0.2,0,0.3-0.1,0.3-0.3c0-2.3,0-4.7,0-7
		c-0.1-2-1.8-3.7-3.9-3.7c-1.3,0-2.6,0-3.9,0c-0.2,0-0.4,0.1-0.5,0.2c-1.9,2.4-4.3,3.9-7.3,4.3c-4.2,0.5-7.6-0.9-10.2-4.2
		c-0.2-0.2-0.4-0.4-0.7-0.4c-3.1,0-6.2,0-9.3,0c-0.4,0-0.4,0.1-0.4,0.5c0,0.9,0,1.9,0,2.8c0,0.9-0.5,1.4-1.5,1.5c-1.3,0-2.6,0-3.9,0
		c-0.9,0-1.5-0.6-1.5-1.5c0-6.3,0-12.7,0-19.1c0-0.9,0.5-1.5,1.5-1.5c1.3,0,2.6,0,3.9,0c0.9,0,1.4,0.5,1.4,1.4c0,0.9,0,1.9,0,2.9
		c0,0.3,0.1,0.4,0.4,0.4c3.2,0,6.3,0,9.5,0c0.2,0,0.4-0.1,0.5-0.2c1.5-2.1,3.6-3.4,6-4.1c0.2-0.1,0.3-0.2,0.3-0.4c0-1.6,0-3.3,0-4.9
		c0-0.2-0.1-0.4-0.2-0.5c-1.3-1.3-4.2-1.2-5.5,0.2c-1.3,1.3-3,1.6-4.8,0.9c-1.7-0.6-2.7-1.9-2.9-3.8c-0.3-2.5,1.4-4.6,3.9-5
		c0.1,0,0.2,0.1,0.3-0.1c0.2,0,0.4,0,0.6,0c0.1,0.1,0.1,0.1,0.2,0.1c1,0.1,2,0.5,2.6,1.2c1.2,1.5,4.3,1.4,5.6,0.2
		c1.4-1.3,3.6-1.4,5-0.1c1,0.8,2,1.1,3.2,1.1c0.8-0.1,1.5-0.2,2-0.7c0.9-0.9,1.9-1.5,3.2-1.6c0,0,0,0,0-0.1
		C102.2,44.3,102.5,44.3,102.6,44.3z"/>
	<path class="st2" d="M135,110.7c-0.2,0.3-0.1,0.6-0.1,0.9c-0.2,2-0.4,4-0.5,6c-0.2,1.9-0.4,3.8-0.5,5.7c-0.2,2-0.4,3.9-0.5,5.9
		s-0.4,3.9-0.5,5.9c-0.2,2.2-0.4,4.5-0.6,6.7c-0.2,2.3-0.4,4.5-0.6,6.8c-0.2,2.1-0.4,4.2-0.6,6.2c-0.1,1.1-1.1,1.9-2.1,1.9
		c-9.6,0-19.1,0-28.8,0c-1.2,0-2.1-0.9-2.2-2.3c-0.3-3.5-0.6-6.9-0.9-10.3c-0.3-3.1-0.6-6.3-0.9-9.4c-0.2-2.8-0.5-5.7-0.8-8.5
		c-0.4-3.8-0.7-7.5-1-11.2c-0.1-1.5-0.3-3-0.4-4.5c-0.1-1.2,0.8-2.2,2.1-2.3c1.2-0.1,2.3,0.8,2.3,2c0.3,3.1,0.5,6.2,0.8,9.4
		c0.2,2.9,0.5,5.8,0.8,8.6c0.3,3.2,0.5,6.4,0.8,9.6c0.2,2.9,0.5,5.8,0.8,8.6c0.1,1.3,0.2,2.6,0.4,3.9c0.1,1.2,1.1,2.1,2.3,2.1
		c3.8,0,7.6,0,11.4,0c3,0,5.9,0,8.9,0c1.4,0,2.3-0.9,2.4-2.3c0.2-2.3,0.4-4.6,0.6-6.9c0.2-1.9,0.4-3.8,0.5-5.8
		c0.2-1.9,0.4-3.9,0.5-5.8s0.4-3.9,0.5-5.8c0.2-2.2,0.4-4.5,0.6-6.7c0.2-1.9,0.4-3.9,0.5-5.9c0.1-1.1,0.2-2.1,0.3-3.1
		c0.2-1.2,1.1-1.9,2.2-1.9c1.1,0,1.9,0.7,2.2,1.8c0,0.1,0,0.1,0.1,0.1C135,110.3,135,110.4,135,110.7z"/>
	<path class="st2" d="M126.1,119.3c-0.1,1.5-0.3,3.1-0.4,4.5c-0.2,1.9-0.4,3.9-0.5,5.8c-0.2,1.9-0.4,3.9-0.5,5.8
		c-0.1,1.6-0.3,3.2-0.4,4.8c-0.2,1.7-0.3,3.4-0.5,5c-0.1,1-0.2,2-0.2,3c0,0.3-0.1,0.4-0.4,0.4c-5.8,0-11.5,0-17.3,0
		c-0.3,0-0.4-0.1-0.4-0.4c-0.2-2.6-0.5-5.3-0.7-8c-0.2-2.3-0.4-4.6-0.6-6.9c-0.2-2.9-0.5-5.8-0.8-8.6c-0.2-2.1-0.4-4.3-0.6-6.4
		c0-0.2,0.1-0.4,0.3-0.4c1.2-0.1,2.3-0.1,3.5,0c2.3,0.2,4.5,0.9,6.7,1.5c2.5,0.7,5.1,0.9,7.7,0.7c1.6-0.1,3.2-0.5,4.8-0.9
		C125.9,119.3,126,119.3,126.1,119.3z"/>
	<path class="st2" d="M116.4,103.9c0,2.3,0,4.7,0,7c0,0.9-0.7,1.8-1.7,1.9c-0.9,0.1-1.8-0.5-2-1.4c-0.1-0.2-0.1-0.5-0.1-0.8
		c0-4.5,0-9,0-13.5c0-1.1,0.5-1.8,1.5-2.1c1.2-0.3,2.3,0.6,2.3,1.8C116.4,99.2,116.4,101.5,116.4,103.9z"/>
	<path class="st2" d="M122.4,110.6c-1,0-1.8-0.7-1.9-1.7c-0.2-2.5-0.4-5-0.6-7.5c-0.1-1.4-0.2-2.7-0.4-4c-0.1-1.2,0.5-2.1,1.5-2.3
		c1.1-0.2,2.1,0.5,2.2,1.6c0.2,1.5,0.3,2.9,0.4,4.3c0.2,1.7,0.3,3.4,0.5,5.1c0.1,0.9,0.2,1.8,0.2,2.6
		C124.4,109.7,123.5,110.6,122.4,110.6z"/>
	<path class="st2" d="M106.6,110.6c-1.2,0-2.1-1-1.9-2.2c0.2-1.4,0.2-2.8,0.4-4.1c0.2-1.7,0.3-3.4,0.5-5c0.1-0.8,0.1-1.6,0.2-2.3
		c0.1-1.5,1.5-2.3,2.8-1.7c0.6,0.3,1.1,1.1,1,1.8c-0.2,2.2-0.4,4.5-0.6,6.7c-0.2,1.6-0.3,3.3-0.4,5
		C108.4,109.8,107.6,110.6,106.6,110.6z"/>
</g>
</svg>
