<?xml version="1.0" encoding="utf-8"?>
<!-- Generator: Adobe Illustrator 28.2.0, SVG Export Plug-In . SVG Version: 6.00 Build 0)  -->
<svg version="1.1" id="Layer_1" xmlns="http://www.w3.org/2000/svg" xmlns:xlink="http://www.w3.org/1999/xlink" x="0px" y="0px"
	 viewBox="0 0 200 200" style="enable-background:new 0 0 200 200;" xml:space="preserve">
<style type="text/css">
	.st0{fill:none;stroke:#8AC34B;stroke-width:3;stroke-miterlimit:10;}
	.st1{fill:#8AC34B;}
	.st2{fill:#FFFFFF;}
</style>
<g id="Ellipse_21" transform="translate(302 97)">
	<circle class="st0" cx="-202" cy="3" r="98.5"/>
</g>
<g id="Group_53" transform="translate(-1096 -284)">
	<g>
		<g id="Group_25_00000141415403974506149880000017317089185919734658_" transform="translate(794 187)">
			<circle id="Ellipse_20_00000006680032244234232720000018258757422425323959_" class="st1" cx="402.5" cy="197.5" r="92.5"/>
		</g>
	</g>
</g>
<g>
	<g>
		<path class="st2" d="M95.6,109.4c-1.9,0.7-3.8,1.3-5.8,1.6c-3.5,0.4-6.8-0.1-9.9-1.6c-9.2-4.5-14.7-11.8-16.5-21.9
			c-0.4-2.4-0.6-4.7-0.7-7.1c0-0.2,0.1-0.4-0.1-0.6c0-0.6,0-1.2,0-1.8c0.1-0.1,0.1-0.2,0.1-0.4c0-1.4,0-2.7,0-4.1
			c0-0.1,0-0.3-0.1-0.4c0-0.4,0-0.7,0-1.1c0.3-0.8,0.2-1.5,0.2-2.3c0.2-3,0.5-5.9,0.9-8.9c0-0.2,0.1-0.3,0.1-0.6
			c0.5,1.3,0.9,2.5,1.3,3.7c1,2.9,2,5.7,3.6,8.4c1.9,3.2,4.5,5.8,7.4,8.2c3,2.5,6.2,4.6,9.2,6.9c2.6,2,5.1,4.2,7,6.9
			c2.2,3.1,3.3,6.5,3.7,10.2c0,0.3,0.1,0.6,0,1c-0.4-1.2-0.8-2.4-1.4-3.5c-1.8-3.6-4.9-5.4-8.6-6.5c-2.4-0.7-4.9-0.9-7.4-1.1
			c-3.6-0.3-7.1-0.8-10.3-2.6c0,0-0.1,0-0.3,0c0.2,0.4,0.5,0.5,0.7,0.7c1.4,0.9,3,1.5,4.6,2c2.9,0.9,6,1.3,9,1.8c2,0.4,4,1,5.9,1.8
			c3.5,1.6,5.7,4.4,6.8,8.1C95.3,107.3,95.5,108.3,95.6,109.4L95.6,109.4z"/>
		<path class="st2" d="M127.6,140.8c-5.9,0-11.8,0-17.6,0c-14,0-28,0-42,0c0.3-1.1,0.9-2.1,1.5-3c1.9-3.1,4.3-5.5,7.8-6.7
			c3.2-1,6.3-0.8,9.3,0.7c1.8,0.9,3.7,1.6,5.8,1.8c0.5,0.1,0.6-0.1,0.5-0.5c-0.3-4.3,0.3-8.4,2-12.3c1.1-2.6,1-5.3,1.1-8
			c0-1.1-0.1-2.3-0.2-3.4l0,0c0.5-0.2,1-0.3,1.5-0.5c0.4-0.1,0.5-0.1,0.6,0.4c0.1,1.9,0.2,3.8,0.1,5.7c0.3,0,0.4-0.2,0.5-0.4
			c1.5-1.9,3.2-3.6,5.2-4.9c0.4-0.3,0.6-0.3,0.8,0.2c0.3,1.2,0.4,1.2-0.7,2c-2.6,2-4.2,4.7-5.4,7.7c-1.8,4.4-2.4,8.9-1.9,13.6
			c0,0.4,0.2,0.5,0.6,0.5c1.5-0.2,2.9-0.6,4.2-1.4c4.6-2.8,9.6-3.4,14.8-2c3.5,0.9,6.1,3.2,8.5,5.9c1.1,1.3,2.1,2.7,3,4.1
			C127.5,140.5,127.6,140.6,127.6,140.8z"/>
		<path class="st2" d="M66.4,62.6c0.1,0,0.2,0,0.2,0c3.6,2.2,7.6,3.5,11.5,4.8c4.5,1.5,8.9,3,13.1,5.1c2.8,1.4,5.4,3.1,7.7,5.2
			c3.2,3,4.7,6.8,5.2,11.1c0.5,5.3-1.1,10.1-3.5,14.7c-0.7,1.3-1.5,2.6-2.3,3.9c-0.1,0.2-0.3,0.5-0.5,0.7c-0.2-0.1-0.1-0.3-0.1-0.4
			c0.7-4,1.1-7.9,0.9-12c-0.2-3.9-1-7.7-3-11.1c-0.8-1.3-1.8-2.5-3-3.4c-0.2,0-0.3-0.2-0.6-0.2c-0.1,0.1,0,0.2,0.1,0.3
			c2.7,2.5,4,5.7,4.8,9.2c0.9,4,0.9,8,0.5,12c-0.1,1-0.2,2-0.4,3c-0.1-0.7-0.2-1.4-0.3-2.1c-1-6.2-4-11.3-8.7-15.4
			c-2.6-2.2-5.4-4.1-8.1-6.3c-6.2-5-10.6-11.4-13.5-18.8C66.4,62.8,66.4,62.7,66.4,62.6L66.4,62.6z"/>
		<path class="st2" d="M137.4,87.3c0,0.1,0,0.2-0.1,0.3c-2.6,3.4-5.2,6.8-8.4,9.8c-0.3,0.3-0.6,0.5-0.9,0.8
			c-0.1,0.1-0.2,0.1-0.3,0.1c0.1-1.8,0.2-3.6-0.7-5.2c0.1,0.7,0.2,1.4,0.2,2.1c0.1,2.3-0.6,4.2-2.4,5.6c-4,3.1-8.3,5.7-13.1,7.3
			c-1.4,0.5-2.8,0.8-4.3,1.1c-0.1-0.2,0.1-0.2,0.2-0.3c2.6-1.7,3.9-4.1,4.4-7.1c0.2-1.3,0.4-2.7,1-3.9c0.1-0.1,0.1-0.2,0-0.3
			c-0.2,0-0.3,0.2-0.4,0.4c-0.6,1.1-1.2,2.3-1.5,3.5c-1,3.9-3.6,6.3-7.1,8c-0.3-1.9-0.5-3.7-0.3-5.6c0.3-4.3,2.1-8,5-11.1
			c2.3-2.5,5.3-3.9,8.6-4.6c3.4-0.7,6.8-0.7,10.3-0.5c1.5,0.1,2.9,0.2,4.4,0.2C133.8,87.8,135.6,87.7,137.4,87.3L137.4,87.3z"/>
		<path class="st2" d="M137.3,89.2c-0.1,1.6-0.3,3.2-0.6,4.7c-0.7,4.1-1.8,8.1-3.5,11.9c-1.7,3.5-3.8,6.7-7.1,8.9
			c-3.3,2.2-6.9,2.9-10.8,2.4c-2.7-0.3-5.3-1.1-7.5-2.8c-1.1-0.9-2.1-1.9-3.1-3c1-0.4,2-0.5,3.1-0.4c3,0,5.9,0.5,8.8,1.4
			c1.8,0.5,3.5,1.2,5.3,2.1c-0.8-2-6.5-4.3-11.6-4.6C121.6,106,130.6,99.1,137.3,89.2z"/>
		<path class="st2" d="M137.4,87.3c0-0.1,0-0.1,0.1-0.1l0,0C137.5,87.3,137.4,87.3,137.4,87.3L137.4,87.3z"/>
		<path class="st2" d="M115.7,74.6L115.7,74.6L115.7,74.6L115.7,74.6L115.7,74.6z"/>
	</g>
</g>
</svg>
