<?xml version="1.0" encoding="utf-8"?>
<!-- Generator: Adobe Illustrator 28.2.0, SVG Export Plug-In . SVG Version: 6.00 Build 0)  -->
<svg version="1.1" id="Layer_1" xmlns="http://www.w3.org/2000/svg" xmlns:xlink="http://www.w3.org/1999/xlink" x="0px" y="0px"
	 viewBox="0 0 200 200" style="enable-background:new 0 0 200 200;" xml:space="preserve">
<style type="text/css">
	.st0{fill:#8AC24A;}
	.st1{fill:none;stroke:#8AC24A;stroke-width:3;stroke-miterlimit:10;}
	.st2{fill:#FFFFFF;}
</style>
<circle class="st0" cx="100" cy="100" r="91"/>
<circle class="st1" cx="100" cy="100" r="98.5"/>
<g>
	<path class="st2" d="M100,115.2c13,0,26.1,0,39.1,0c4.4,0,7.7,2,9.7,5.9c3.3,6.4-0.5,14.1-7.5,15.6c-0.7,0.1-1.4,0.2-2.2,0.2
		c-26.1,0-52.2,0-78.3,0c-5.2,0-9.7-3.7-10.7-8.8c-1.1-5.9,2.8-11.6,8.7-12.7c0.7-0.1,1.4-0.2,2-0.2C73.9,115.2,87,115.2,100,115.2z
		"/>
	<path class="st2" d="M85.1,88.4c-5.7,0-11.3,0-16.9,0c-0.1-0.3-0.1-16.6,0-17c5.6,0,11.3,0,16.9,0C85.1,77.1,85.1,82.8,85.1,88.4z"
		/>
	<path class="st2" d="M97.5,110.8c0-5.7,0-11.3,0-16.9c0.3-0.1,16.5-0.1,16.9,0c0,5.6,0,11.3,0,16.9
		C108.8,110.8,103.1,110.8,97.5,110.8z"/>
	<path class="st2" d="M135.6,93.9c0,5.6,0,11.3,0,16.9c-0.3,0.1-16.4,0.1-16.9,0c-0.1-0.3-0.1-16.5,0-16.9
		C124.3,93.9,130,93.9,135.6,93.9z"/>
	<path class="st2" d="M89.2,67.4c-8.4,0-16.8,0-25.2,0c0,0.2,0,0.3,0,0.5c0,3.9,0,7.8,0,11.7c0,0.2,0,0.4,0,0.5
		c-0.1,0.5-0.5,0.9-1.1,0.8c-0.5,0-0.9-0.4-0.9-1c0-0.1,0-0.2,0-0.3c0-4.4,0-8.7,0-13.1c0-0.1,0-0.2,0-0.3c0-0.5,0.4-0.9,0.9-1
		c0.1,0,0.3,0,0.4,0c3.9,0,7.8,0,11.7,0c0.2,0,0.3,0,0.5,0c0-2.3,0-4.6,0-7c-0.1,0-0.3,0-0.4,0c-1.5,0-3.1,0-4.6,0
		c-0.1,0-0.3,0-0.4,0c-0.5,0-0.9-0.4-0.9-0.9c0-0.5,0.3-0.9,0.7-1.1c0.2,0,0.3-0.1,0.5-0.1c4.1,0,8.2,0,12.4,0c0.2,0,0.4,0,0.5,0.1
		c0.5,0.1,0.7,0.6,0.7,1c0,0.5-0.4,0.9-0.9,0.9c-0.1,0-0.3,0-0.4,0c-1.5,0-3.1,0-4.6,0c-0.1,0-0.3,0-0.4,0c0,2.3,0,4.6,0,7
		c0.2,0,0.3,0,0.5,0c3.5,0,7,0,10.5,0c0.5,0,1,0,1.5,0c0.7,0,1.1,0.4,1.1,1.1c0,4.5,0,8.9,0,13.4c0,0.7-0.5,1.2-1.1,1.1
		c-0.5,0-0.9-0.4-1-0.9c0-0.1,0-0.3,0-0.4c0-3.9,0-7.9,0-11.8C89.2,67.7,89.2,67.6,89.2,67.4z"/>
	<path class="st2" d="M126.9,138c2.5,0,4.9,0,7.4,0c0.9,0,1.7,0.3,2.3,1.1c0.7,0.9,0.8,1.8,0.4,2.9c-0.4,1-1.2,1.6-2.3,1.8
		c-0.2,0-0.4,0-0.6,0c-4.8,0-9.6,0-14.4,0c-0.5,0-1-0.1-1.5-0.3c-1-0.5-1.9-1.6-1.6-3.2c0.2-1.3,1.4-2.2,2.7-2.3c0.3,0,0.5,0,0.8,0
		C122.3,138,124.6,138,126.9,138z"/>
	<path class="st2" d="M73.2,138c2.4,0,4.9,0,7.3,0c1,0,1.8,0.4,2.4,1.1c1.3,1.7,0.3,4.3-1.9,4.6c-0.2,0-0.4,0-0.6,0
		c-4.8,0-9.6,0-14.4,0c-0.8,0-1.5-0.2-2.1-0.7c-0.9-0.8-1.2-2-0.8-3.1c0.4-1.1,1.4-1.9,2.6-1.9C68.1,138,70.6,138,73.2,138
		C73.2,138,73.2,138,73.2,138z"/>
</g>
</svg>
