<?xml version="1.0" encoding="utf-8"?>
<!-- Generator: Adobe Illustrator 28.2.0, SVG Export Plug-In . SVG Version: 6.00 Build 0)  -->
<svg version="1.1" id="Layer_1" xmlns="http://www.w3.org/2000/svg" xmlns:xlink="http://www.w3.org/1999/xlink" x="0px" y="0px"
	 viewBox="0 0 200 200" style="enable-background:new 0 0 200 200;" xml:space="preserve">
<style type="text/css">
	.st0{fill:#8AC24A;}
	.st1{fill:none;stroke:#8AC24A;stroke-width:3;stroke-miterlimit:10;}
	.st2{fill:#FFFFFF;}
</style>
<circle class="st0" cx="100" cy="100" r="91.1"/>
<circle class="st1" cx="100" cy="100" r="98.5"/>
<g>
	<path class="st2" d="M100.2,78.3c-0.8,0-1.6,0.1-2.3,0.1c-3.3,0.2-6.6,0.3-9.9,0.5c-2.2,0.1-4.5,0.2-6.7,0.3
		c-3.1,0.1-6.3,0.3-9.4,0.4c-0.9,0-1.9,0.1-2.8,0.3C67.4,80.2,66,81,64.7,82c-0.2,0.1-0.3,0.3-0.5,0.4c-0.2-0.4-0.2-0.8-0.3-1.2
		c-1-4.9,0-9.4,2.4-13.6c1.2-2.1,2.6-3.9,4.2-5.8c2.5-3,4.9-5.9,7.4-8.8c2-2.5,4.4-4.4,7.5-5.5c1.6-0.6,3.3-0.9,5.1-1.1
		c1.3-0.1,2.6-0.1,3.8-0.2c0.4,0,0.8-0.1,1.2-0.3c0.4-0.1,0.7-0.4,0.8-0.7c0.6-1.1,1.4-1.9,2.4-2.7c1.1-0.9,2.3-1.6,3.5-2.3
		c0.3-0.2,0.5-0.2,0.8,0c0.4,0.2,0.8,0.5,1.1,0.9c0.5,0.6,0.8,1.2,0.7,2c-0.2,1.4,0,2.7,0.3,4c0.5,2.7,1.3,5.3,2,7.9
		c0.2,0.6,0.6,1.1,1.2,1.3c0.3,0.1,0.5,0.2,0.8,0.2c0-0.7,0-1.3,0.1-2c0.6-4.6,4.3-8.3,8.9-8.9c5.1-0.7,10.5,2.6,11.5,8.5
		c0.9,5.5-2.7,10.7-8.2,11.8c-2.6,0.5-5,0.1-7.2-1.2c-1.7-1-3.5-1.4-5.5-1.2c-3.6,0.3-6.4,2.1-8.1,5.3c-1.2,2.2-1.5,4.6-0.9,7.1
		C99.8,76.6,100,77.4,100.2,78.3z"/>
	<path class="st2" d="M113.9,135.7c-0.6-0.3-1.1-0.7-1.6-0.9c-0.9-0.4-1.7-0.4-2.5,0.1c-0.8,0.5-1.2,1.3-1.1,2.3
		c0.1,0.9,0.5,1.5,1.3,2c1.2,0.7,2.3,1.4,3.5,2c0.4,0.2,0.5,0.4,0.5,0.9c0,3.2,0,6.4,0,9.5c0,2.9-1.9,5.3-4.8,5.8
		c-3.5,0.7-6.4-1.8-6.9-4.7c-0.1-0.4-0.1-0.8-0.1-1.2c0-8.8,0-17.7,0-26.5c0-0.4-0.1-0.8-0.4-1.1c-3.4-3.6-6.7-7.2-10.1-10.7
		c-0.2-0.2-0.2-0.4-0.6-0.4c-0.5,0.1-0.5,0.2-0.6,0.6c-0.3,4.7-0.6,9.3-1,14c-0.1,1.1-0.1,2.1-0.2,3.2c-0.1,0.6-0.3,1.2-0.5,1.8
		c-3.4,6.8-6.9,13.6-10.3,20.5c-0.7,1.3-1.3,2.7-2,4c-2.1,3.8-7.5,4.1-9.9,0.6c-1.3-1.9-1.5-4-0.4-6c1.8-3.7,3.7-7.4,5.6-11.1
		c0.9-1.8,1.8-3.6,2.7-5.4c0.1-0.2,0.2-0.4,0.4-0.6c1,0.8,2,1.7,3,2.5c0.3,0.2,0.6,0.5,0.9,0.7c1.1,0.9,2.6,0.8,3.5-0.3
		c0.9-1.1,0.8-2.6-0.3-3.5c-1.4-1.2-2.8-2.4-4.3-3.6c-0.7-0.6-0.7-0.4-0.2-1.2c0.4-0.7,0.5-1.5,0.5-2.3c0.3-4.1,0.6-8.1,0.8-12.2
		c0.1-2,0.3-3.9,0.4-5.9c0-0.4,0-0.7-0.2-1.1c-0.7-1.3-1-2.7-1-4.2c0-1.2,0-2.4-0.1-3.5c0-0.5,0-0.5,0.5-0.5
		c3.7-0.2,7.5-0.3,11.2-0.5c0.2,0,0.3,0,0.5-0.1c0.9-0.2,1.7-0.2,2.6-0.1c1,0,2-0.1,3-0.1c0.6,0,1.2-0.1,1.9-0.1
		c0.4,0,0.4,0,0.5,0.4c0,1.1,0,2.1,0,3.2c0,0.4,0.1,0.7,0.4,1c2,2.1,3.9,4.1,5.8,6.2c0.1,0.1,0.2,0.3,0.4,0.5c-0.3,0-0.5,0-0.7,0
		c-0.2,0-0.5,0-0.7,0c-1.2-0.1-2.5,0.8-2.6,2.5c0,1.5,1.1,2.5,2.5,2.5c1.9,0,3.8,0.1,5.7,0.1c0.4,0,0.8,0.1,1.1,0.5
		c0.8,0.9,1.6,1.7,2.4,2.5c1.1,1.1,1.7,2.5,1.7,4.1c0,4.5,0,9,0,13.4C113.9,135.5,113.9,135.5,113.9,135.7z"/>
	<path class="st2" d="M95.3,93.5c-1.5,0.1-2.9,0.1-4.4,0.2c-3.3,0.2-6.5,0.3-9.8,0.5c-2.1,0.1-4.2,0.2-6.3,0.3
		c-1.2,0.1-2.4,0.1-3.6,0.1c-2.4,0-4.4-1.6-4.9-4c-0.6-3,1.6-5.9,4.7-6c3.1-0.1,6.2-0.3,9.3-0.4c4.6-0.2,9.1-0.4,13.7-0.6
		c4-0.2,8-0.4,12-0.6c0.2,0,0.3,0,0.5,0c-0.2-0.8-0.4-1.5-0.5-2.2c-0.5-2-1-4-1.5-6.1c-0.8-3.2,1.5-6.2,4.8-6.2
		c2.6,0,4.4,1.8,4.9,3.8c0.7,2.7,1.3,5.3,2,8c0.5,2.1,1,4.2,1.6,6.3c0.7,2.7-0.9,5.4-3.6,6.1c-0.4,0.1-0.7,0.2-1.1,0.2
		c-3.1,0.1-6.2,0.3-9.3,0.4c-0.3,0-0.6,0-0.9-0.2c-1.3-0.7-2.6-1.3-3.9-1.9c-1.5-0.7-3.1,0.1-3.5,1.6C95.3,92.9,95.3,93.2,95.3,93.5
		z"/>
	<path class="st2" d="M125.1,70.4c0.3,0.2,0.5,0.4,0.7,0.5c0.5,0.4,1,0.7,1.6,0.9c0.5,0.2,0.9,0.4,1.3,0.8c0.7,0.7,1.1,1.6,0.9,2.6
		c-0.2,1.2-1.3,1.8-2.4,1.4c-1-0.4-1.7-1.1-1.9-2.2c-0.1-0.3-0.1-0.7-0.1-1C125.2,72.4,125.1,71.4,125.1,70.4z"/>
	<path class="st2" d="M131,53.8c0.9,0.4,1.9,0.7,2.9,0.9c1,0.2,1.8,0.7,2.3,1.7c0.2,0.4,0.3,0.7,0.3,1.1c0,1.1-1,1.9-2.2,1.7
		c-1-0.2-1.9-0.7-2.2-1.7c-0.4-1.2-0.8-2.3-1.1-3.5C130.9,53.9,131,53.9,131,53.8z"/>
</g>
</svg>
