<svg xmlns="http://www.w3.org/2000/svg" data-name="S_Email_18_N@2x" height="36" id="S_Email_18_N_2x" viewBox="0 0 36 36" width="36">
  <defs>
    <style>
      .fill {
        fill: #707070;
      }

      
    </style>
  </defs>
  <path class="fill" d="M18,20.188,36,6.665v-1.5A1.147,1.147,0,0,0,34.875,4H1.125A1.147,1.147,0,0,0,0,5.167V6.636Z" />
  <polygon class="fill" points="24.779 17.963 36 26.367 36 13.334 36 9.541 24.779 17.963" />
  <path class="fill" d="M22.866,19.4,19.29,22.094a2.172,2.172,0,0,1-2.58,0l-3.628-2.719L0,29.068v1.766A1.146,1.146,0,0,0,1.125,32h33.75A1.146,1.146,0,0,0,36,30.834v-1.59Z" />
  <polygon class="fill" points="11.165 17.938 0 9.512 0 13.334 0 26.195 11.165 17.938" />
  </svg>