<?xml version="1.0" encoding="utf-8"?>
<!-- Generator: Adobe Illustrator 27.7.0, SVG Export Plug-In . SVG Version: 6.00 Build 0)  -->
<svg version="1.1" id="Layer_1" xmlns="http://www.w3.org/2000/svg" xmlns:xlink="http://www.w3.org/1999/xlink" x="0px" y="0px"
	 viewBox="0 0 250 250" style="enable-background:new 0 0 250 250;" xml:space="preserve">
<style type="text/css">
	.st0{fill:#99E1D5;}
	.st1{fill:#018D8A;stroke:#018D8A;stroke-width:2;stroke-miterlimit:10;}
</style>
<g id="Layer_2_00000073682256327389827950000003483270031267505792_">
	<circle id="Ellipse_5" class="st0" cx="125" cy="125" r="75"/>
</g>
<g>
	<path class="st1" d="M125,170c-6.8,0-37-17.4-37-36.7V90.9c13.1-0.3,25.8-4,37-10.9c11.1,7,23.9,10.7,37,10.9v42.5
		C162.1,152.7,131.8,170,125,170z M124.2,85.1c-9.5,5-19.8,8.1-30.4,9.1l-1.7,0.2v39c0,6.9,4.7,14.3,13.9,22.1
		c7.9,6.5,16.1,10.1,18.6,10.6l0.5,0.1l0.5-0.1c2.4-0.7,10.5-4.1,18.7-10.6c9.2-8.1,13.7-15.3,13.7-22.1V94.6l-1.7-0.2
		c-10.5-0.9-20.8-4-30.3-9.3l-0.9-0.5L124.2,85.1z"/>
	<path class="st1" d="M106.6,125.8l3-3.2l8.1,7.6c0.7,0.7,2.7,2.6,2.7,2.6s1.9-2.1,2.7-2.8l0.1-0.1l17.1-20l3.4,2.9l-22.8,26.5
		L106.6,125.8z"/>
</g>
</svg>
