<?xml version="1.0" encoding="utf-8"?>
<!-- Generator: Adobe Illustrator 27.7.0, SVG Export Plug-In . SVG Version: 6.00 Build 0)  -->
<svg version="1.1" id="Layer_1" xmlns="http://www.w3.org/2000/svg" xmlns:xlink="http://www.w3.org/1999/xlink" x="0px" y="0px"
	 viewBox="0 0 250 250" style="enable-background:new 0 0 250 250;" xml:space="preserve">
<style type="text/css">
	.st0{fill:#99E1D5;}
	.st1{fill:#018D8A;}
</style>
<g id="Layer_2_00000014605074634350641220000002593593012102863805_">
	<circle id="Ellipse_5" class="st0" cx="125" cy="125" r="75"/>
</g>
<g id="Layer_1_00000097489852470479962800000004347747219083909765_">
	<path id="noun-teamwork-1800746" class="st1" d="M111.9,77h25.7c4,0,7.9,1.4,11.1,3.9c3.9,3.1,8.8,4.8,13.8,4.8h14.8v-4.4h-14.8
		c-4,0-7.9-1.4-11.1-3.9c-3.9-3.1-8.8-4.8-13.8-4.8h-25.7c-3.6,0-6.5,2.9-6.5,6.5c0,0.7,0.1,1.5,0.4,2.2h-0.4
		c-3.6,0-6.5,2.9-6.5,6.5l0,0c0,0.7,0.1,1.5,0.4,2.2h-0.4c-3.6,0-6.6,2.8-6.6,6.5s2.8,6.6,6.5,6.6c0.1,0,0.1,0,0.2,0h0.4
		c-0.3,0.7-0.4,1.4-0.4,2.2c0,3.6,2.9,6.5,6.5,6.5h10.9v15.3c0,1.2-1,2.2-2.2,2.2s-2.2-1-2.2-2.2l0,0v-10.9h-4.4v28.4
		c0,1.2-1,2.2-2.2,2.2s-2.2-1-2.2-2.2l0,0v-21.8h-4.4v28.3c0,1.2-1,2.2-2.2,2.2s-2.2-1-2.2-2.2l0,0v-28.4h-4.3v21.8
		c0,1.2-1,2.2-2.2,2.2s-2.2-1-2.2-2.2l0,0v-21.8h-4.4V138c0,1.2-1,2.2-2.2,2.2s-2.2-1-2.2-2.2l0,0v-25.7c0-4,1.4-7.9,3.9-11.1
		c3.1-3.9,4.8-8.8,4.8-13.8V72.6h-4.4v14.8c0,4-1.4,7.9-3.9,11.1c-3.1,3.9-4.8,8.8-4.8,13.8V138c0,3.6,2.9,6.5,6.5,6.5
		c0.7,0,1.5-0.1,2.2-0.4v0.4c0,3.6,2.9,6.5,6.5,6.5c0.7,0,1.5-0.1,2.2-0.4v0.4c0,3.6,2.8,6.6,6.5,6.6c3.6,0,6.6-2.8,6.6-6.5
		c0-0.1,0-0.1,0-0.2v-0.4c0.7,0.3,1.4,0.4,2.2,0.4c3.6,0,6.5-2.9,6.5-6.5v-10.9H127c1.2,0,2.2,1,2.2,2.2s-1,2.2-2.2,2.2h-10.9v4.4
		h28.4c1.2,0,2.2,1,2.2,2.2s-1,2.2-2.2,2.2l0,0h-21.8v4.4h28.4c1.2,0,2.2,1,2.2,2.2s-1,2.2-2.2,2.2l0,0h-28.4v4.4h21.8
		c1.2,0,2.2,1,2.2,2.2s-1,2.2-2.2,2.2l0,0h-21.8v4.4h15.4c1.2,0,2.2,1,2.2,2.2s-1,2.2-2.2,2.2l0,0h-25.7c-4,0-7.9-1.4-11.1-3.9
		c-3.9-3.1-8.8-4.8-13.8-4.8H72.6v4.4h14.8c4,0,7.9,1.4,11.1,3.9c3.9,3.1,8.8,4.8,13.8,4.8h25.8c3.6,0,6.5-2.9,6.5-6.5
		c0-0.7-0.1-1.5-0.4-2.2h0.4c3.6,0,6.5-2.9,6.5-6.5c0-0.7-0.1-1.5-0.4-2.2h0.4c3.6,0,6.6-2.8,6.6-6.5c0-3.6-2.8-6.6-6.5-6.6
		c-0.1,0-0.1,0-0.2,0h-0.4c0.3-0.7,0.4-1.4,0.4-2.2c0-3.6-2.9-6.5-6.5-6.5h-10.9v-15.3c0-1.2,1-2.2,2.2-2.2s2.2,1,2.2,2.2v10.9h4.4
		v-28.4c0-1.2,1-2.2,2.2-2.2s2.2,1,2.2,2.2l0,0v21.6h4.4V98.8c0-1.2,1-2.2,2.2-2.2s2.2,1,2.2,2.2l0,0v28.3h4.4v-21.8
		c0-1.2,1-2.2,2.2-2.2s2.2,1,2.2,2.2l0,0v21.8h4.4v-15.3c0-1.2,1-2.2,2.2-2.2s2.2,1,2.2,2.2l0,0v25.7c0,4-1.4,7.9-3.9,11.1
		c-3.1,3.9-4.8,8.8-4.8,13.8v14.8h4.4v-14.8c0-4,1.4-7.9,3.9-11.1c3.1-3.9,4.8-8.8,4.8-13.8v-25.7c0-3.6-2.9-6.5-6.5-6.5
		c-0.7,0-1.5,0.1-2.2,0.4v-0.4c0-3.6-2.9-6.5-6.5-6.5c-0.7,0-1.5,0.1-2.2,0.4v-0.4c0-3.6-2.8-6.6-6.5-6.6S147,95,147,98.7
		c0,0.1,0,0.1,0,0.2v0.4c-0.7-0.3-1.4-0.4-2.2-0.4c-3.6,0-6.5,2.9-6.5,6.5v10.9H123c-1.2,0-2.2-1-2.2-2.2s1-2.2,2.2-2.2l0,0h10.9
		v-4.4h-28.4c-1.2,0-2.2-1-2.2-2.2s1-2.2,2.2-2.2l0,0h21.8v-4.4H98.8c-1.2,0-2.2-1-2.2-2.2s1-2.2,2.2-2.2l0,0h28.4v-4.4h-21.8
		c-1.2,0-2.2-1-2.2-2.2s1-2.2,2.2-2.2l0,0h21.8v-4.4h-15.3c-1.2,0-2.2-1-2.2-2.2C109.7,77.9,110.7,77,111.9,77L111.9,77L111.9,77z
		 M122.8,120.6h6.9c-0.3,0.7-0.4,1.4-0.4,2.2v6.9c-0.7-0.3-1.4-0.4-2.2-0.4h-6.9c0.3-0.7,0.4-1.4,0.4-2.2v-6.9
		C121.3,120.4,122.1,120.6,122.8,120.6z"/>
</g>
</svg>
