<?xml version="1.0" encoding="UTF-8"?>
<svg xmlns="http://www.w3.org/2000/svg" onmouseup="{ if(window.parent.document.onmouseup) window.parent.document.onmouseup(arguments[0]);}" xml:space="preserve" style="enable-background:new 0 0 100 100;" viewBox="0 0 100 100" y="0px" x="0px" id="Layer_1" version="1.1" xmlns:xlink="http://www.w3.org/1999/xlink"><style type="text/css">
	.st0{fill:#03A678;}
	.st1{fill:#FFFFFF;}
</style><circle data-cppathid="10000" r="45" cy="50" cx="50" class="st0"/><g id="NewGroupe8"><g id="NewGroup0-3"><path data-cppathid="10001" d="M35.6,54.6c-2.1-2-5.4-2-7.4,0c-0.3,0.3-0.5,0.7-0.7,1.1l-2-1.4v-9.6c0-2.9-2.4-5.3-5.3-5.3    c-2.9,0-5.3,2.4-5.3,5.3v15.9c0,1.5,0.7,3,1.8,4l15.7,14.2v4.5c0,1,0.8,1.8,1.8,1.8s1.8-0.8,1.8-1.8V78c0-0.5-0.2-1-0.6-1.3    L19.1,62c-0.4-0.3-0.6-0.8-0.6-1.4V44.7c0-1,0.8-1.8,1.8-1.8c1,0,1.8,0.8,1.8,1.8v10.5c0,0.6,0.3,1.1,0.7,1.4l4.2,3    c0.2,0.9,0.7,1.8,1.3,2.4l6.8,6.4c0.7,0.7,1.8,0.6,2.5-0.1c0.7-0.7,0.6-1.8-0.1-2.5l-6.7-6.4c-0.7-0.7-0.7-1.8,0-2.5    c0.7-0.7,1.8-0.7,2.5,0l0,0l0,0l9.3,8.9c0.3,0.3,0.5,0.8,0.5,1.2v16.1c0,1,0.8,1.8,1.8,1.8c1,0,1.8-0.8,1.8-1.8V67.2    c0-1.4-0.6-2.8-1.6-3.7L35.6,54.6z" class="st1"/><path data-cppathid="10002" d="M79.7,39.5c-2.9,0-5.2,2.4-5.2,5.3v9.6l-2,1.4c-0.2-0.4-0.4-0.8-0.7-1.1c-2-2-5.3-2.1-7.4,0L55,63.5    c-1,1-1.5,2.3-1.5,3.7v16c0,1,0.8,1.8,1.8,1.8c1,0,1.8-0.8,1.8-1.8V67.2c0-0.4,0.2-0.9,0.5-1.2l9.4-8.9c0.7-0.7,1.8-0.6,2.5,0.1    c0.6,0.7,0.6,1.7,0,2.4l-6.8,6.4c-0.7,0.7-0.7,1.8-0.1,2.5c0.7,0.7,1.8,0.7,2.5,0.1l0,0l6.8-6.4c0.6-0.7,1.1-1.5,1.3-2.4l4.2-2.9    c0.5-0.3,0.7-0.9,0.7-1.4V44.7c0-1,0.8-1.8,1.8-1.8s1.8,0.8,1.8,1.8v15.9c0,0.5-0.3,1.1-0.7,1.4L64.6,76.7C64.2,77,64,77.5,64,78    v5.3c0,1,0.8,1.8,1.8,1.8s1.8-0.8,1.8-1.8v-4.5l15.6-14.1c1.2-1,1.9-2.5,1.9-4V44.7C85,41.9,82.6,39.5,79.7,39.5L79.7,39.5z" class="st1"/><path data-cppathid="10003" d="M50,49.8C41.4,46.1,32.5,38,32.5,28.5c0-4.5,2-8.1,5.3-9.4c0.9-0.4,1.8-0.5,2.8-0.5c2.7,0,5.6,1.4,8.2,4    c0.7,0.7,1.8,0.7,2.5,0c3.5-3.6,7.6-4.9,10.9-3.5c3.3,1.3,5.3,4.9,5.3,9.4C67.5,38,58.5,46.1,50,49.8L50,49.8z M71,28.5    c0-5.9-2.9-10.8-7.5-12.7c-4.3-1.8-9.3-0.6-13.5,3.1c-4.2-3.7-9.2-4.9-13.5-3.1c-4.6,1.9-7.5,6.7-7.5,12.7    c0,11.4,10.5,20.9,20.3,24.9c0.4,0.2,0.9,0.2,1.3,0C60.4,49.4,71,39.9,71,28.5L71,28.5z" class="st1"/></g></g></svg>