<?xml version="1.0" encoding="UTF-8"?>
<svg xmlns="http://www.w3.org/2000/svg" onmouseup="{ if(window.parent.document.onmouseup) window.parent.document.onmouseup(arguments[0]);}" xml:space="preserve" style="enable-background:new 0 0 100 100;" viewBox="0 0 100 100" y="0px" x="0px" version="1.1" xmlns:xlink="http://www.w3.org/1999/xlink"><style type="text/css">
	.st0{fill:#03A678;}
	.st1{fill:#FFFFFF;}
</style><g id="Layer_1"><circle data-cppathid="10000" r="45" cy="50" cx="50" class="st0"/></g><g id="Layer_2"><path data-cppathid="10001" d="M85,59.3l-0.7-1.8c-3.2-7.9-6.4-15.9-9.7-23.8c0.7,0,1.3-0.1,2-0.1l0.5-0.2l0.4-0.4c0.2-0.4,0.2-0.8,0.2-1.2   l0,0c-0.1-0.4-0.4-0.7-0.7-1l-0.5-0.2l-0.6,0.1c-0.8,0.3-1.6,0.6-2.4,0.7L73,31.5c-0.3,0-0.6,0.1-0.9,0.1l-0.6,0   c-0.3,0-0.7,0-1-0.1l0,0c-0.7-0.1-1.4-0.3-2.1-0.6l0,0c-0.5-0.2-0.9-0.4-1.3-0.7l0,0c-0.4-0.2-0.8-0.4-1.1-0.7l-1.4-0.8l-0.5-0.3   c-1.9-1.1-3.9-2.1-6-2.9c-1.5-0.6-3.1-1.1-4.7-1.7c-0.2-1.4-1.3-2.5-2.7-2.7c0-0.3,0.1-0.6,0.2-0.8l0-0.1l0.1-0.3   c0-0.1,0.1-0.3,0.2-0.5l0.1-0.2c0-0.1,0.1-0.2,0.1-0.3c0.2-0.4,0.3-0.7,0.5-1.1l0.2-0.4c0-0.7-0.3-1.3-0.9-1.6   c-0.3-0.2-0.7-0.3-1.1-0.4c-0.3,0-0.5,0.1-0.8,0.2c-0.5,0.2-0.9,0.6-1.1,1l0,0l0,0.1l-0.1,0.4v0.4l0,0l0.2,0.4l0.5,1.1l0.3,0.7   l0.2,0.7l0.2,0.7v0.1c-1.4,0.3-2.4,1.4-2.6,2.7c-1.7,0.6-3.4,1.2-5.1,1.8c-3.1,1.2-5.8,2.9-8.7,4.5l0,0c-0.8,0.4-1.7,0.8-2.5,1.1   l0,0c-0.6,0.2-1.3,0.2-2,0.2c-0.7,0-1.4-0.1-2.1-0.3c-0.4-0.1-0.7-0.2-1.1-0.3c-0.6-0.2-1.1-0.4-1.7-0.5l-0.5,0.2   c-0.3,0.3-0.6,0.6-0.7,1l0,0c-0.1,0.4,0,0.8,0.2,1.2l0.4,0.4l0.5,0.2c0.5,0,1,0.1,1.5,0.1h0.5c-3.2,7.9-6.5,15.9-9.7,23.8   c-0.2,0.6-0.7,1.8-0.7,1.8c0,0.1-0.1,0.1-0.1,0.2c0,0.1,0,0.2,0.1,0.3l0,0c2.2,4.2,6.6,6.8,11.4,6.7c4.7,0.1,9-2.4,11.3-6.5   c0.1-0.1,0.1-0.1,0.1-0.2c0-0.1,0.1-0.1,0-0.4v-0.1c-2.6-6.4-5.2-12.9-7.9-19.3l-2.6-6.4c0.3,0,0.6,0,1-0.1   c0.5-0.1,1.4-0.3,1.4-0.3c0.8-0.2,1.7-0.4,2.5-0.7c1.6-0.6,3.2-1.4,4.7-2.1h0C39,29.7,41,29,43,28.5c1.5-0.4,3-0.7,4.5-0.9   c0.3,0.3,0.7,0.6,1.1,0.8c-0.3,0.2-0.6,0.6-0.8,1c-0.1,0.1-0.1,0.3-0.1,0.4l0,0.5v0.1l0.2,2c0.3,2.9,0.6,5.2,0.8,8.1   c0.2,2.5,0.3,3.8,0.4,6.2c0,0.8,0.1,1.9,0.1,2.7v2.6c-0.1,2.2-0.1,3.4-0.3,5.6c-0.2,2.8-0.4,5.4-0.7,8.2c-0.1,1.4-0.3,2.8-0.4,4.2   c0,0.2,0,0.4,0,0.6c0.1,0.6,0.5,1.1,1,1.4c-1.4,0.7-3.7,2.4-6.9,6.4c-1.2,1.6-2.8,2.9-4.6,3.8h-3c-0.6,0.1-1.1,0.6-1.1,1.3   c0,0.6,0.5,1,1.1,1.1h31.5c0.6,0.1,1.2-0.4,1.3-1.1c0.1-0.6-0.4-1.2-1.1-1.3l0,0c-0.1,0-0.1,0-0.2,0h-3.1c-1.8-0.9-3.4-2.2-4.6-3.8   c-3.2-4-5.5-5.7-6.9-6.4c0.4-0.2,0.7-0.6,0.9-1c0.1-0.3,0.2-0.6,0.2-0.9l0,0c-0.5-4.2-0.9-8.3-1.2-12.5c-0.2-2.2-0.2-3.4-0.3-5.6   c0-0.7,0-1.9,0-2.6c0-0.8,0-1.9,0.1-2.7c0-1,0.1-2,0.2-3.1c0.1-1.8,0.3-4.4,0.5-6.2c0.2-1.7,0.3-3.3,0.5-5l0.2-2v-0.1   c0-0.3-0.1-0.6-0.2-0.9c-0.2-0.4-0.4-0.7-0.7-0.9c0.5-0.2,0.9-0.5,1.2-1c1.5,0.3,3.1,0.6,4.6,1c1.9,0.5,3.7,1.2,5.5,2   c1.9,0.8,3.8,1.9,5.8,2.5c0.3,0.1,0.6,0.2,0.6,0.2c0.7,0.2,1.5,0.4,2.3,0.5c0.4,0.1,0.7,0.1,1.1,0.1c-3.1,7.4-6.1,14.9-9.1,22.3   l-1.4,3.4c-0.1,0.2,0,0.5,0.1,0.7c3.6,6.3,11.6,8.4,17.8,4.9c2.1-1.2,3.8-2.9,5-5l0,0C85,59.7,85,59.5,85,59.3z M35.5,56.5l1,2.5   c-4.9,0-9.7-0.1-14.6,0h-5.3l0.4-1c2.8-7.3,5.5-14.7,8.3-22c0.3-0.7,0.6-1.5,0.8-2.2h0.9C29.8,41.4,32.6,48.9,35.5,56.5L35.5,56.5z    M70.6,40.3c0.8-2.2,1.6-4.4,2.5-6.6H74c3,8.1,6,16.2,9.1,24.3l0.4,1c-4.6,0-9.2,0-13.8,0h-6.1C65.9,52.8,68.2,46.5,70.6,40.3z" class="st1"/></g></svg>