<?xml version="1.0" encoding="UTF-8"?>
<svg xmlns="http://www.w3.org/2000/svg" onmouseup="{ if(window.parent.document.onmouseup) window.parent.document.onmouseup(arguments[0]);}" viewBox="0 0 264 264" height="264" width="264" xmlns:xlink="http://www.w3.org/1999/xlink"><defs><clipPath id="clip-path"><rect data-cppathid="10000" fill="#f8f7f4" height="143.368" width="129.717" data-name="Rectangle 298709" id="Rectangle_298709"/></clipPath></defs><g transform="translate(-216 -204)" data-name="Group 308849" id="Group_308849"><rect data-cppathid="10001" fill="#075ca3" transform="translate(216 204)" rx="132" height="264" width="264" data-name="Rectangle 299232" id="Rectangle_299232"/><g transform="translate(-12303 1467)" data-name="Group 307895" id="Group_307895"><rect data-cppathid="10002" fill="none" transform="translate(12571 -1211)" height="160" width="160" data-name="Rectangle 298715" id="Rectangle_298715"/><g transform="translate(12586 -1203)" data-name="Group 307850" id="Group_307850"><g clip-path="url(#clip-path)" data-name="Group 307849" id="Group_307849"><path data-cppathid="10003" fill="#f8f7f4" transform="translate(-148.559)" d="M213.419,17.066a3.414,3.414,0,0,0,3.413-3.413V3.412a3.414,3.414,0,0,0-6.828,0V13.653a3.414,3.414,0,0,0,3.415,3.413" data-name="Path 88150" id="Path_88150"/><path data-cppathid="10004" fill="#f8f7f4" transform="translate(-235.858 -43.508)" d="M346.576,62.5a3.413,3.413,0,0,0-4.827,0h0l-7.239,7.244a3.413,3.413,0,1,0,4.626,5.02q.1-.094.2-.2l7.244-7.244a3.413,3.413,0,0,0,0-4.823Z" data-name="Path 88151" id="Path_88151"/><path data-cppathid="10005" fill="#f8f7f4" transform="translate(-272.355 -148.553)" d="M398.657,210H388.417a3.413,3.413,0,0,0,0,6.827h10.241a3.413,3.413,0,0,0,3.415-3.41v0A3.415,3.415,0,0,0,398.657,210" data-name="Path 88152" id="Path_88152"/><path data-cppathid="10006" fill="#f8f7f4" transform="translate(-43.511 -43.509)" d="M74.578,74.574h0a3.413,3.413,0,0,0,0-4.827h0l-7.24-7.239a3.414,3.414,0,0,0-4.828,4.828l7.244,7.24a3.413,3.413,0,0,0,4.827,0" data-name="Path 88153" id="Path_88153"/><path data-cppathid="10007" fill="#f8f7f4" transform="translate(0 -148.553)" d="M13.655,210H3.415A3.414,3.414,0,0,0,0,213.409H0a3.413,3.413,0,0,0,3.412,3.413H13.655a3.414,3.414,0,0,0,0-6.827" data-name="Path 88154" id="Path_88154"/><path data-cppathid="10008" fill="#f8f7f4" transform="translate(-53.633 -49.356)" d="M118.43,69.836a8.966,8.966,0,0,0-.959.044c-1.2.027-2.407.082-3.687.215-1.13.127-2.253.3-3.328.516a42.625,42.625,0,0,0-14.064,78.345,3.306,3.306,0,0,1,1.594,2.847l.023,3.374H94.6a3.413,3.413,0,0,0,0,6.827H98.01v3.414a3.413,3.413,0,0,0-.109,6.826h.109v3.414a17.087,17.087,0,0,0,17.068,17.067h6.828a17.087,17.087,0,0,0,17.067-17.066v-3.415a3.413,3.413,0,0,0,0-6.827h0V162h3.415a3.413,3.413,0,0,0,0-6.827h-3.415V151.81a3.324,3.324,0,0,1,1.591-2.83v0a43.352,43.352,0,0,0,15.975-56.517A39.635,39.635,0,0,0,118.43,69.836M121.906,185.9h-6.828a10.243,10.243,0,0,1-10.241-10.241v-3.415h27.308v3.415A10.243,10.243,0,0,1,121.906,185.9m10.241-20.481H104.838V162h13.194a1.192,1.192,0,0,0,.921,0h13.193Zm4.877-22.281a10.2,10.2,0,0,0-4.854,8.643l-.024,3.4H121.9V141.216a20.4,20.4,0,0,0,8.875-3.792,3.414,3.414,0,1,0-4.1-5.462,13.651,13.651,0,0,1-16.385,0,3.414,3.414,0,1,0-4.1,5.462,20.939,20.939,0,0,0,8.875,3.786v13.965H104.836v-3.4a10.237,10.237,0,0,0-4.882-8.657A35.579,35.579,0,0,1,82.649,112.5h0a35.859,35.859,0,0,1,29.117-35.189,28.055,28.055,0,0,1,2.85-.437c1.007-.1,2-.143,3.014-.17l.55-.028-.232-3.414.717,3.386a32.824,32.824,0,0,1,31.687,18.693,36.2,36.2,0,0,1-13.328,47.789" data-name="Path 88155" id="Path_88155"/></g></g></g></g></svg>