<?xml version="1.0" encoding="UTF-8"?>
<svg xmlns="http://www.w3.org/2000/svg" onmouseup="{ if(window.parent.document.onmouseup) window.parent.document.onmouseup(arguments[0]);}" xml:space="preserve" style="enable-background:new 0 0 34 34;" viewBox="0 0 34 34" y="0px" x="0px" id="Layer_1" version="1.1" xmlns:xlink="http://www.w3.org/1999/xlink"><style type="text/css">
	.st0{fill:#F20F79;stroke:#F20F79;stroke-miterlimit:10;}
	.st1{fill:#FFFFFF;}
</style><g transform="translate(-0.053)" id="Ellipse_13105"><circle data-cppathid="10000" r="16" cy="17" cx="17.1" class="st0"/><circle data-cppathid="10001" r="16.5" cy="17" cx="17.1" class="st0"/></g><g transform="translate(6.643 760.899)" id="Group_308002"><path data-cppathid="10002" d="M5.2-740.3h1.2c0.5,0,0.8-0.4,0.8-0.8c0-0.5-0.4-0.8-0.8-0.8c0,0,0,0,0,0H5.2   c-1.4,0-2.5-1.1-2.5-2.5c0-1.4,1.1-2.5,2.5-2.5h2.7L7-746c-0.3,0.3-0.3,0.8,0,1.2c0.3,0.3,0.8,0.3,1.2,0c0,0,0,0,0,0l2.4-2.4l0,0   l0,0l0,0l0,0l0,0l0,0l0,0l0,0l0,0l0,0c0.1-0.1,0.1-0.2,0.1-0.4v0c0,0,0,0,0,0c0,0,0,0,0,0v0c0,0,0,0,0,0v0l0,0   c0-0.1-0.1-0.3-0.1-0.4l0,0l0,0l0,0l0,0l0,0l0,0l0,0l-2.4-2.4c-0.3-0.3-0.9-0.3-1.2,0c-0.3,0.3-0.3,0.9,0,1.2l0,0l0.9,0.9H5.2   c-2.3-0.1-4.2,1.7-4.3,4s1.7,4.2,4,4.3C5-740.3,5.1-740.3,5.2-740.3L5.2-740.3z" class="st1" id="Path_88503"/><path data-cppathid="10003" d="M13.7-748.4c-0.5,0-0.8,0.4-0.8,0.8c0,0.5,0.4,0.8,0.8,0.8h1.2c1.4,0,2.5,1.1,2.5,2.5   c0,1.4-1.1,2.5-2.5,2.5h-2.7l0.9-0.9c0.3-0.3,0.3-0.9,0-1.2c-0.3-0.3-0.8-0.3-1.1,0l-2.4,2.4l0,0l0,0l0,0l0,0l0,0l0,0l0,0l0,0   c-0.1,0.1-0.1,0.2-0.1,0.4v0c0,0,0,0,0,0c0,0,0,0,0,0v0c0,0,0,0,0,0v0c0,0.1,0.1,0.3,0.1,0.4l0,0v0l0,0l0,0l0,0l0,0l0,0l0,0L12-738   l0,0c0.3,0.3,0.8,0.3,1.2,0c0.3-0.3,0.3-0.8,0-1.2l-0.9-0.9h2.7c2.3,0.1,4.2-1.7,4.3-4c0.1-2.3-1.7-4.2-4-4.3c-0.1,0-0.2,0-0.3,0   L13.7-748.4z" class="st1" id="Path_88504"/></g></svg>