<?xml version="1.0" encoding="UTF-8"?>
<svg xmlns="http://www.w3.org/2000/svg" onmouseup="{ if(window.parent.document.onmouseup) window.parent.document.onmouseup(arguments[0]);}" xml:space="preserve" style="enable-background:new 0 0 250 250;" viewBox="0 0 250 250" y="0px" x="0px" id="Layer_1" version="1.1" xmlns:xlink="http://www.w3.org/1999/xlink"><style type="text/css">
	.st0{fill:#99E1D5;}
	.st1{fill:#018D8A;}
</style><g id="Layer_2_00000069374399552230033560000010430340605918928516_"><circle data-cppathid="10000" r="75" cy="125" cx="125" class="st0" id="Ellipse_5"/></g><g id="Layer_1_00000172410637713273822720000009920511640671536012_"><path data-cppathid="10001" d="M160.2,104.4c-0.9,0-1.7,0.1-2.5,0.4V75.1c-0.1-1.4-1.2-2.5-2.6-2.4H84.4   c-1.4,0-2.6,1-2.6,2.4V164c0.1,1.4,1.2,2.5,2.6,2.4h37.6v3.8c0,4,3.5,7.2,7.8,7.2h22.6c4.3,0,7.8-3.2,7.8-7.2v-10   c5-4.8,7.9-11.4,7.9-18.3v-30.4C168.1,107.5,164.6,104.4,160.2,104.4L160.2,104.4z M87.1,77.5h65.1v20.4c-0.9-0.3-1.7-0.4-2.6-0.4   c-1.1,0-2.2,0.2-3.2,0.7c-1.4-2.8-4.2-4.6-7.3-4.5c-3.1-0.1-6,1.7-7.3,4.5c-1-0.5-2.1-0.7-3.2-0.7c-4.3,0-7.9,3.2-7.9,7.2v26.4   c-1.1-1.2-2.2-2.4-3.1-3.4c-2.9-3-7.6-3.3-10.9-0.9c-3.4,2.3-5.5,7.1-2.8,11.4c1.6,2.3,4.9,6.6,8.4,10.9h-25V77.5H87.1z    M87.1,161.5V154h29.2c2.3,2.8,4.4,5.2,5.8,6.7v0.8H87.1z M154.8,170.2c-0.1,1.3-1.2,2.3-2.5,2.2l0,0h-22.6   c-1.3,0.1-2.4-0.9-2.5-2.2v-7.5h27.5v7.5H154.8z M162.8,141.8c-0.1,6.2-2.9,12.1-7.7,16h-28.8c-3.8-4.4-15.1-17.7-18-22.2   c-1-1.7-0.4-3.9,1.3-5c1.2-1,2.9-0.9,4,0.2c1.9,1.9,6.1,7,8.3,9.5c0.9,1,2.4,1.1,3.4,0.3c0.2-0.1,0.3-0.3,0.4-0.5   c0.1-0.2,0.1-0.4,0.1-0.6v-35c0.1-1.4,1.3-2.4,2.6-2.3c1.4-0.1,2.5,0.9,2.6,2.3l0,0v23.2c0,1.4,1,2.5,2.4,2.5   c1.4,0.2,2.7-0.8,2.9-2.2c0-0.1,0-0.1,0-0.2v-27.1c0.1-1.4,1.3-2.4,2.6-2.3c1.6,0.1,2.8,1.1,2.8,2.3v27c0,1.4,1,2.5,2.4,2.5   c1.4,0.2,2.7-0.8,2.9-2.2c0-0.1,0-0.1,0-0.2v-23.2c0.1-1.4,1.3-2.4,2.6-2.3c1.4-0.1,2.5,0.9,2.6,2.3l0,0v23.3c0,1,0.7,1.9,1.7,2.2   c0.5,0.2,1.1,0.2,1.7,0.1c1.2-0.2,2.1-1.3,2-2.5v-16.3c0.3-1.5,1.8-2.4,3.3-2c1,0.2,1.8,1,2,2v30.5h-0.1V141.8z" class="st1" id="noun-swear-3677479"/></g></svg>