<?xml version="1.0" encoding="UTF-8"?>
<svg xmlns="http://www.w3.org/2000/svg" onmouseup="{ if(window.parent.document.onmouseup) window.parent.document.onmouseup(arguments[0]);}" xml:space="preserve" style="enable-background:new 0 0 250 250;" viewBox="0 0 250 250" y="0px" x="0px" version="1.1" xmlns:xlink="http://www.w3.org/1999/xlink"><style type="text/css">
	.st0{fill:#99E1D5;}
	.st1{fill:#018D8A;}
</style><g id="Layer_2"><circle data-cppathid="10000" r="75" cy="119.2" cx="120.8" class="st0" id="Ellipse_5"/></g><g id="Layer_1"><g transform="translate(-176.956 -99.24)" id="noun-star-2892330"><path data-cppathid="10001" d="M275.4,187.5c-0.7,0-1.4-0.3-1.8-0.8l-6.4-7.3c-0.9-1-0.8-2.6,0.2-3.4s2.6-0.8,3.4,0.2l6.4,7.3    c0.9,1,0.8,2.5-0.2,3.4c0,0,0,0,0,0C276.5,187.3,276,187.5,275.4,187.5z" class="st1" id="Path_7"/><path data-cppathid="10002" d="M273.4,270.7c-0.6,0-1.1-0.2-1.6-0.5c-0.8-0.6-1.2-1.7-1.1-2.7l4.4-26.4l-18.7-18.7    c-0.7-0.7-1-1.8-0.7-2.8c0.3-1,1.1-1.7,2.2-1.9l25.8-3.9l11.5-24c0.6-1.3,2.2-1.9,3.5-1.3c0.6,0.3,1,0.7,1.3,1.3l11.5,24l25.8,3.9    c1,0.2,1.9,0.9,2.2,1.9c0.3,1,0.1,2.1-0.7,2.8l-18.7,18.7l4.4,26.4c0.2,1-0.2,2.1-1.1,2.7c-0.8,0.6-1.9,0.7-2.8,0.2L297.7,258    l-23.1,12.5C274.3,270.6,273.8,270.7,273.4,270.7L273.4,270.7z M264.1,222.4l15.8,15.8c0.6,0.6,0.9,1.5,0.8,2.4L277,263l19.5-10.5    c0.8-0.4,1.7-0.4,2.5,0l19.5,10.5l-3.7-22.3c-0.2-0.9,0.1-1.8,0.8-2.4l15.8-15.8l-21.8-3.3c-0.9-0.1-1.6-0.7-2-1.5l-9.8-20.3    l-9.8,20.3c-0.4,0.8-1.1,1.4-2,1.5L264.1,222.4z" class="st1" id="Path_8"/><path data-cppathid="10003" d="M296.8,180.6c-1.3,0-2.4-1.1-2.4-2.4l-0.1-9.7c0-1.3,1.1-2.4,2.4-2.4c0,0,0,0,0,0h0    c1.3,0,2.4,1.1,2.4,2.4l0.1,9.7C299.2,179.5,298.2,180.6,296.8,180.6C296.8,180.6,296.8,180.6,296.8,180.6L296.8,180.6z" class="st1" id="Path_9"/><path data-cppathid="10004" d="M317.9,187.7c-0.5,0-1-0.2-1.5-0.5c-1.1-0.8-1.3-2.3-0.5-3.4c0,0,0,0,0,0l5.9-7.7    c0.8-1.1,2.3-1.3,3.4-0.4c1.1,0.8,1.3,2.3,0.5,3.4l-5.9,7.7C319.4,187.3,318.7,187.7,317.9,187.7L317.9,187.7z" class="st1" id="Path_10"/></g></g></svg>